<svg width="150" height="150" viewBox="0 0 150 150" fill="none" xmlns="http://www.w3.org/2000/svg">
<path d="M134 1H16C7.71573 1 1 7.71573 1 16V134C1 142.284 7.71573 149 16 149H134C142.284 149 149 142.284 149 134V16C149 7.71573 142.284 1 134 1Z" fill="#B50903" stroke="#043371" stroke-width="2"/>
<path d="M72.7344 112L72.1719 109.859H68.4609L67.8828 112H64.4922L68.2188 100.531H72.3359L76.1094 112H72.7344ZM71.5312 107.328L71.0391 105.453C70.987 105.25 70.9115 104.961 70.8125 104.586C70.7135 104.206 70.6146 103.815 70.5156 103.414C70.4219 103.008 70.349 102.674 70.2969 102.414C70.25 102.674 70.1823 102.997 70.0938 103.383C70.0104 103.763 69.9219 104.141 69.8281 104.516C69.7396 104.891 69.6615 105.203 69.5938 105.453L69.1016 107.328H71.5312ZM82.4375 102.945C82.0729 102.945 81.7474 103.023 81.4609 103.18C81.1745 103.331 80.9297 103.552 80.7266 103.844C80.5234 104.135 80.3672 104.492 80.2578 104.914C80.1536 105.331 80.1016 105.805 80.1016 106.336C80.1016 107.055 80.1927 107.659 80.375 108.148C80.5573 108.638 80.8333 109.008 81.2031 109.258C81.5781 109.508 82.0469 109.633 82.6094 109.633C83.1198 109.633 83.6094 109.562 84.0781 109.422C84.5521 109.281 85.0286 109.112 85.5078 108.914V111.523C85.0026 111.747 84.4844 111.909 83.9531 112.008C83.4271 112.107 82.8672 112.156 82.2734 112.156C81.0339 112.156 80.0182 111.911 79.2266 111.422C78.4401 110.927 77.8594 110.242 77.4844 109.367C77.1146 108.492 76.9297 107.477 76.9297 106.32C76.9297 105.456 77.0495 104.664 77.2891 103.945C77.5339 103.227 77.8906 102.604 78.3594 102.078C78.8281 101.547 79.4062 101.138 80.0938 100.852C80.7865 100.56 81.5781 100.414 82.4688 100.414C83.0208 100.414 83.6016 100.479 84.2109 100.609C84.8255 100.734 85.4245 100.938 86.0078 101.219L85.0625 103.648C84.6458 103.451 84.224 103.284 83.7969 103.148C83.3698 103.013 82.9167 102.945 82.4375 102.945Z" fill="#fff"/>
<path d="M42.8047 131V119.578H45.9062V131H42.8047ZM59.2578 131H55.2109L51.0391 122.953H50.9688C50.9948 123.198 51.0182 123.492 51.0391 123.836C51.0599 124.18 51.0781 124.531 51.0938 124.891C51.1094 125.245 51.1172 125.565 51.1172 125.852V131H48.3828V119.578H52.4141L56.5703 127.516H56.6172C56.6016 127.266 56.5859 126.977 56.5703 126.648C56.5547 126.315 56.5391 125.979 56.5234 125.641C56.513 125.302 56.5078 125.003 56.5078 124.742V119.578H59.2578V131ZM69.1953 127.531C69.1953 128.151 69.0391 128.74 68.7266 129.297C68.4141 129.849 67.9271 130.297 67.2656 130.641C66.6094 130.984 65.7604 131.156 64.7188 131.156C64.1979 131.156 63.7396 131.133 63.3438 131.086C62.9531 131.039 62.5885 130.964 62.25 130.859C61.9115 130.75 61.5599 130.609 61.1953 130.438V127.688C61.8151 128 62.4401 128.24 63.0703 128.406C63.7005 128.568 64.2708 128.648 64.7812 128.648C65.0885 128.648 65.3385 128.612 65.5312 128.539C65.7292 128.466 65.875 128.367 65.9688 128.242C66.0625 128.112 66.1094 127.964 66.1094 127.797C66.1094 127.599 66.0391 127.432 65.8984 127.297C65.763 127.156 65.5443 127.01 65.2422 126.859C64.9401 126.708 64.5417 126.521 64.0469 126.297C63.625 126.099 63.2422 125.896 62.8984 125.688C62.5599 125.479 62.2682 125.242 62.0234 124.977C61.7839 124.706 61.599 124.391 61.4688 124.031C61.3385 123.672 61.2734 123.247 61.2734 122.758C61.2734 122.023 61.4531 121.409 61.8125 120.914C62.1771 120.414 62.6823 120.039 63.3281 119.789C63.9792 119.539 64.7292 119.414 65.5781 119.414C66.3229 119.414 66.9922 119.497 67.5859 119.664C68.1849 119.831 68.7214 120.021 69.1953 120.234L68.25 122.617C67.7604 122.393 67.2786 122.216 66.8047 122.086C66.3307 121.951 65.8906 121.883 65.4844 121.883C65.2188 121.883 65 121.917 64.8281 121.984C64.6615 122.047 64.5365 122.133 64.4531 122.242C64.375 122.352 64.3359 122.477 64.3359 122.617C64.3359 122.794 64.4036 122.953 64.5391 123.094C64.6797 123.234 64.9115 123.388 65.2344 123.555C65.5625 123.716 66.0078 123.927 66.5703 124.188C67.1276 124.438 67.6016 124.708 67.9922 125C68.3828 125.286 68.6797 125.633 68.8828 126.039C69.0911 126.44 69.1953 126.938 69.1953 127.531ZM76 131H72.9141V122.102H70.125V119.578H78.7812V122.102H76V131ZM87.4219 131L86.8594 128.859H83.1484L82.5703 131H79.1797L82.9062 119.531H87.0234L90.7969 131H87.4219ZM86.2188 126.328L85.7266 124.453C85.6745 124.25 85.599 123.961 85.5 123.586C85.401 123.206 85.3021 122.815 85.2031 122.414C85.1094 122.008 85.0365 121.674 84.9844 121.414C84.9375 121.674 84.8698 121.997 84.7812 122.383C84.6979 122.763 84.6094 123.141 84.5156 123.516C84.4271 123.891 84.349 124.203 84.2812 124.453L83.7891 126.328H86.2188ZM92.0391 131V119.578H95.125V128.508H99.5234V131H92.0391ZM101.352 131V119.578H104.438V128.508H108.836V131H101.352Z" fill="#fff"/>
<path d="M95.155 60.3621L95.1536 60.3616C93.6898 59.7554 93.5764 58.4011 93.5764 58.0007C93.5759 57.5998 93.6898 56.2456 95.1536 55.6394C95.8913 55.3338 96.4653 54.7593 96.7708 54.0221C97.0764 53.2848 97.0764 52.4728 96.7708 51.735L94.8245 47.0362C94.1934 45.5153 92.4441 44.7883 90.9197 45.4199C89.455 46.0272 88.4175 45.1491 88.135 44.866C87.8514 44.5825 86.9743 43.5445 87.581 42.0803C87.8861 41.343 87.8861 40.531 87.5805 39.7937C87.275 39.056 86.7005 38.4815 85.9638 38.1764L81.265 36.2301C79.744 35.6004 77.9923 36.326 77.3606 37.8479C76.7544 39.3102 75.4007 39.4241 74.9998 39.4241C74.5989 39.4241 73.2446 39.3107 72.6384 37.8469C72.3333 37.1092 71.7589 36.5347 71.0211 36.2292C70.2839 35.9236 69.4718 35.9236 68.7336 36.2292L64.0362 38.175C63.2985 38.4805 62.724 39.0545 62.4185 39.7923C62.1129 40.53 62.1129 41.3421 62.4185 42.0793C63.0252 43.5431 62.1476 44.5815 61.8646 44.8646C61.5815 45.1481 60.5445 46.0262 59.0798 45.419C58.3425 45.1139 57.53 45.1139 56.7923 45.419C56.0545 45.7245 55.4801 46.299 55.175 47.0362L53.2292 51.734C52.9236 52.4718 52.9236 53.2839 53.2292 54.0216C53.5347 54.7593 54.1092 55.3338 54.8464 55.6389C56.3092 56.2451 56.4231 57.5998 56.4231 58.0002C56.4231 58.4006 56.3092 59.7549 54.8445 60.3616C53.3225 60.9928 52.5975 62.7445 53.2282 64.2655L55.174 68.9638C55.4796 69.7015 56.054 70.2755 56.7913 70.581C57.528 70.8861 58.3401 70.8866 59.0783 70.581C60.5416 69.9758 61.58 70.8519 61.8636 71.1354C62.1467 71.4185 63.0237 72.4569 62.4175 73.9207C61.7868 75.4421 62.5119 77.1939 64.0348 77.8255L68.7331 79.7718C69.1022 79.9243 69.4894 80.0006 69.8771 80.0006C70.2648 80.0006 70.652 79.9243 71.0206 79.7713C71.7584 79.4658 72.3328 78.8913 72.6379 78.1545C73.2446 76.6903 74.5989 76.5769 74.9993 76.5769C75.3997 76.5769 76.7539 76.6903 77.3606 78.1555C77.9918 79.6765 79.7435 80.4 81.2645 79.7713L85.9642 77.825C87.4852 77.1939 88.2102 75.4426 87.5801 73.9207C86.9738 72.4569 87.8509 71.4185 88.1345 71.1354C88.418 70.8519 89.454 69.9738 90.9202 70.5815C92.4426 71.2098 94.1929 70.4857 94.8245 68.9638L96.7708 64.2655C97.401 62.744 96.676 60.9928 95.155 60.3621ZM74.9998 71.7505C67.4057 71.7505 61.2495 65.5943 61.2495 58.0002C61.2495 50.4062 67.4057 44.25 74.9998 44.25C82.5938 44.25 88.75 50.4062 88.75 58.0002C88.75 65.5943 82.5938 71.7505 74.9998 71.7505Z" fill="#fff"/>
<path d="M76.8444 60.0785L73.3429 59.6361L72.9004 56.1346L77.4672 51.5678C75.1508 50.7347 72.4614 51.2393 70.6051 53.0951C68.8221 54.8781 68.2833 57.4311 68.9819 59.683L63.3552 65.3092C64.4508 67.0512 65.9258 68.5286 67.6648 69.6281L73.296 63.997C75.5478 64.6952 78.1008 64.1564 79.8839 62.3739C81.7397 60.518 82.2442 57.8281 81.4112 55.5117L76.8444 60.0785Z" fill="#fff"/>
</svg>
