<svg width="150" height="150" viewBox="0 0 150 150" fill="none" xmlns="http://www.w3.org/2000/svg">
<path d="M134 1H16C7.71573 1 1 7.71573 1 16V134C1 142.284 7.71573 149 16 149H134C142.284 149 149 142.284 149 134V16C149 7.71573 142.284 1 134 1Z" fill="#B50903" stroke="#043371" stroke-width="2"/>
<path d="M72.7344 112L72.1719 109.859H68.4609L67.8828 112H64.4922L68.2188 100.531H72.3359L76.1094 112H72.7344ZM71.5312 107.328L71.0391 105.453C70.987 105.25 70.9115 104.961 70.8125 104.586C70.7135 104.206 70.6146 103.815 70.5156 103.414C70.4219 103.008 70.349 102.674 70.2969 102.414C70.25 102.674 70.1823 102.997 70.0938 103.383C70.0104 103.763 69.9219 104.141 69.8281 104.516C69.7396 104.891 69.6615 105.203 69.5938 105.453L69.1016 107.328H71.5312ZM82.4375 102.945C82.0729 102.945 81.7474 103.023 81.4609 103.18C81.1745 103.331 80.9297 103.552 80.7266 103.844C80.5234 104.135 80.3672 104.492 80.2578 104.914C80.1536 105.331 80.1016 105.805 80.1016 106.336C80.1016 107.055 80.1927 107.659 80.375 108.148C80.5573 108.638 80.8333 109.008 81.2031 109.258C81.5781 109.508 82.0469 109.633 82.6094 109.633C83.1198 109.633 83.6094 109.562 84.0781 109.422C84.5521 109.281 85.0286 109.112 85.5078 108.914V111.523C85.0026 111.747 84.4844 111.909 83.9531 112.008C83.4271 112.107 82.8672 112.156 82.2734 112.156C81.0339 112.156 80.0182 111.911 79.2266 111.422C78.4401 110.927 77.8594 110.242 77.4844 109.367C77.1146 108.492 76.9297 107.477 76.9297 106.32C76.9297 105.456 77.0495 104.664 77.2891 103.945C77.5339 103.227 77.8906 102.604 78.3594 102.078C78.8281 101.547 79.4062 101.138 80.0938 100.852C80.7865 100.56 81.5781 100.414 82.4688 100.414C83.0208 100.414 83.6016 100.479 84.2109 100.609C84.8255 100.734 85.4245 100.938 86.0078 101.219L85.0625 103.648C84.6458 103.451 84.224 103.284 83.7969 103.148C83.3698 103.013 82.9167 102.945 82.4375 102.945Z" fill="#fff"/>
<path d="M51.6016 119.578C52.638 119.578 53.5 119.706 54.1875 119.961C54.875 120.211 55.3906 120.586 55.7344 121.086C56.0833 121.586 56.2578 122.208 56.2578 122.953C56.2578 123.417 56.1797 123.839 56.0234 124.219C55.8672 124.599 55.6432 124.94 55.3516 125.242C55.0651 125.539 54.7214 125.799 54.3203 126.023L57.6484 131H54.1484L51.7266 126.844H50.9453V131H47.8594V119.578H51.6016ZM51.5547 121.914H50.9453V124.523H51.5234C51.9974 124.523 52.3854 124.419 52.6875 124.211C52.9896 124.003 53.1406 123.63 53.1406 123.094C53.1406 122.724 53.0156 122.435 52.7656 122.227C52.5156 122.018 52.112 121.914 51.5547 121.914ZM65.4688 131H58.6875V119.578H65.4688V122.055H61.7734V123.852H65.1953V126.328H61.7734V128.484H65.4688V131ZM71.4219 119.578C72.8698 119.578 73.9531 119.893 74.6719 120.523C75.3958 121.154 75.7578 122.049 75.7578 123.211C75.7578 123.732 75.6823 124.232 75.5312 124.711C75.3854 125.19 75.1432 125.617 74.8047 125.992C74.4714 126.367 74.026 126.664 73.4688 126.883C72.9167 127.102 72.2344 127.211 71.4219 127.211H70.5547V131H67.4688V119.578H71.4219ZM71.3516 122.07H70.5547V124.695H71.1641C71.4297 124.695 71.6771 124.651 71.9062 124.562C72.1354 124.469 72.3177 124.32 72.4531 124.117C72.5938 123.909 72.6641 123.633 72.6641 123.289C72.6641 122.93 72.5573 122.638 72.3438 122.414C72.1302 122.185 71.7995 122.07 71.3516 122.07ZM84.5859 131L84.0234 128.859H80.3125L79.7344 131H76.3438L80.0703 119.531H84.1875L87.9609 131H84.5859ZM83.3828 126.328L82.8906 124.453C82.8385 124.25 82.763 123.961 82.6641 123.586C82.5651 123.206 82.4661 122.815 82.3672 122.414C82.2734 122.008 82.2005 121.674 82.1484 121.414C82.1016 121.674 82.0339 121.997 81.9453 122.383C81.862 122.763 81.7734 123.141 81.6797 123.516C81.5911 123.891 81.513 124.203 81.4453 124.453L80.9531 126.328H83.3828ZM89.2031 131V119.578H92.3047V131H89.2031ZM98.5234 119.578C99.5599 119.578 100.422 119.706 101.109 119.961C101.797 120.211 102.312 120.586 102.656 121.086C103.005 121.586 103.18 122.208 103.18 122.953C103.18 123.417 103.102 123.839 102.945 124.219C102.789 124.599 102.565 124.94 102.273 125.242C101.987 125.539 101.643 125.799 101.242 126.023L104.57 131H101.07L98.6484 126.844H97.8672V131H94.7812V119.578H98.5234ZM98.4766 121.914H97.8672V124.523H98.4453C98.9193 124.523 99.3073 124.419 99.6094 124.211C99.9115 124.003 100.062 123.63 100.062 123.094C100.062 122.724 99.9375 122.435 99.6875 122.227C99.4375 122.018 99.0339 121.914 98.4766 121.914Z" fill="#fff"/>
<path d="M97 46.2081C96.9416 46.3094 96.8686 46.4036 96.8261 46.512C96.6682 46.9144 96.5926 47.3781 96.3563 47.7149C95.503 48.9292 94.6709 50.1777 93.6901 51.2678C92.793 52.2638 91.5136 52.4964 90.2661 52.632C89.0969 52.7589 87.921 52.816 86.7518 52.9416C86.5196 52.9673 86.2595 53.1185 86.0896 53.2983C84.8301 54.6267 83.5826 55.9695 82.351 57.3279C82.0445 57.666 81.8109 57.7046 81.4977 57.3592C81.1672 56.9954 80.7877 56.6829 80.4652 56.3119C80.355 56.1849 80.2541 55.9024 80.3112 55.774C80.9602 54.2886 80.574 52.8488 80.1745 51.4134C80.006 50.8112 79.7857 50.2234 79.5627 49.6398C79.4605 49.3729 79.4605 49.1889 79.6954 49.0062C79.8653 48.8749 79.9808 48.6595 80.1533 48.5339C81.207 47.7605 81.3663 46.6162 81.4194 45.3605C81.4738 44.0692 81.6184 42.775 81.8149 41.4993C81.9768 40.4434 82.5488 39.583 83.3026 38.9009C84.1267 38.1547 84.9735 37.4341 85.8494 36.762C86.9363 35.9302 88.1294 35.7646 89.3769 36.3382C89.6145 36.4481 89.8494 36.5865 90.0537 36.7549C90.8553 37.417 90.8845 37.8693 90.1785 38.6413C89.284 39.6172 88.3723 40.5747 87.4831 41.5564C86.8235 42.2841 86.7757 43.0603 87.3995 43.8038C88.0989 44.6371 88.8315 45.4433 89.6052 46.1981C90.363 46.9372 90.9111 46.9572 91.6888 46.238C92.5421 45.4504 93.3185 44.5671 94.1267 43.7239C94.2794 43.5655 94.4161 43.3885 94.5713 43.2344C95.2429 42.5695 95.6543 42.5624 96.1891 43.3586C96.5209 43.8537 96.6948 44.4701 96.9389 45.0323C96.9283 45.048 96.9642 44.9952 97 44.941V46.2081Z" fill="#fff"/>
<path d="M62.5129 64.3054C62.2926 64.0885 62.1214 63.9315 61.9622 63.7603C60.7147 62.419 59.4698 61.0749 58.2236 59.7308C58.1546 59.6566 58.0883 59.5781 58.0232 59.4996C57.1778 58.4922 57.1606 57.7131 58.0365 56.7371C59.1712 55.4743 60.3391 54.2458 61.495 53.0044C63.2283 51.1423 64.9575 49.2745 66.7067 47.4295C66.8965 47.2283 67.2004 47.0671 67.4632 47.0457C69.0916 46.913 70.7253 46.8573 72.3524 46.7146C74.9721 46.4835 77.8587 48.4726 78.6457 51.646C78.8089 52.3066 78.9854 52.9659 79.1075 53.6351C79.3079 54.7381 78.7173 55.8082 77.6861 56.2877C76.7333 56.7314 75.7711 56.5117 75.1938 55.5086C74.7386 54.7181 74.4917 53.7892 74.1599 52.9173C74.075 52.6962 74.0153 52.4636 73.8958 52.0869C70.0604 56.2049 66.2993 60.2402 62.5143 64.304L62.5129 64.3054Z" fill="#fff"/>
<path d="M73.649 63.7246C73.0995 62.5845 73.1248 61.7684 73.7459 61.0221C74.4705 60.1531 75.2999 60.0161 76.6337 60.6026C76.5156 60.3671 76.3696 60.2031 76.3563 60.0275C76.3192 59.5324 76.29 59.0259 76.355 58.5393C76.3789 58.3638 76.6695 58.1141 76.854 58.097C77.5627 58.0342 78.2422 57.9286 78.8553 57.4977C78.9482 57.432 79.1938 57.4705 79.28 57.559C81.0956 59.4539 82.9217 61.3374 84.6895 63.2823C85.2946 63.9472 85.2721 64.9632 84.8222 65.678C84.3165 66.4814 83.3663 66.9023 82.5581 66.6512C82.3033 66.5727 82.071 66.4115 81.7153 66.2303C82.3895 67.3732 82.3152 68.3834 81.5309 69.2467C80.7041 70.1585 79.7405 69.9145 78.7425 69.3623C79.361 70.451 79.4247 71.4042 78.9071 72.0734C78.0577 73.1692 77.0252 73.2677 75.8334 72.5314C76.0272 72.9167 76.221 73.1849 76.3033 73.4903C76.5236 74.3008 76.2011 75.1469 75.503 75.6991C74.8434 76.2214 74.144 76.3855 73.4114 75.8818C73.1248 75.6848 72.8447 75.4623 72.6019 75.2068C71.1699 73.6915 69.7445 72.1704 68.3311 70.6351C67.8613 70.1242 67.3928 69.5991 67.3796 68.8001C67.365 67.9297 67.7047 67.279 68.3948 66.8367C69.0902 66.3929 69.7896 66.4329 70.4891 66.8281C70.5581 66.8666 70.6257 66.9109 70.7585 66.9408C70.1228 65.9063 70.1307 64.9061 70.9257 64.0428C71.714 63.1881 72.6536 63.161 73.6463 63.7275L73.649 63.7246Z" fill="#fff"/>
<path d="M73.3185 55.8296C73.7644 56.3433 74.1665 56.7913 74.5501 57.2594C74.6855 57.4235 74.8859 57.6546 74.8593 57.8187C74.8009 58.1926 74.7505 58.6263 74.2714 58.7419C73.4751 58.9345 72.8208 59.3997 72.3723 60.1274C72.1148 60.5455 71.9754 61.0435 71.7512 61.4887C71.6702 61.6485 71.5163 61.8297 71.3623 61.8739C70.0577 62.2521 69.2827 63.1753 68.8779 64.5251C68.8248 64.7006 68.6629 64.9303 68.5169 64.966C66.3417 65.4925 65.1048 68.2564 66.2024 70.3525C66.6576 71.2215 67.349 71.9464 67.9781 72.7968C67.1048 73.7271 66.1626 74.7374 65.2123 75.7419C64.2462 76.7636 63.2893 77.7966 62.2993 78.7912C61.4698 79.6231 60.5036 80.1111 59.3238 79.9784C56.8646 79.7044 55.3411 76.8321 56.428 74.4506C56.6536 73.9554 56.9721 73.4831 57.3305 73.0879C58.9947 71.2515 60.6974 69.4579 62.3669 67.6272C64.2183 65.5967 66.0299 63.5234 67.8918 61.5044C69.5826 59.6722 71.3172 57.8872 73.0332 56.0836C73.1354 55.9766 73.2535 55.8867 73.3172 55.831L73.3185 55.8296ZM59.9662 73.6187C58.7147 73.6187 57.9555 74.4106 57.9622 75.7063C57.9688 77.0104 58.7425 77.8395 59.9555 77.8395C61.1208 77.8395 61.9768 76.9619 61.9861 75.7733C61.994 74.7859 61.3344 73.4803 59.9662 73.6187Z" fill="#fff"/>
<path d="M53 50.9382C53.2468 50.4588 53.3968 49.9522 53.7047 49.6112C55.4326 47.6978 57.1938 45.8171 58.9549 43.9379C59.706 43.136 60.6218 43.0817 61.3995 43.8494C62.0338 44.4758 62.6244 45.1622 63.1699 45.8799C63.7551 46.6504 63.7366 47.3396 63.0982 48.0459C61.3809 49.9465 59.6317 51.8129 57.8945 53.6921C57.848 53.7421 57.7963 53.7835 57.7445 53.8277C56.6563 54.7623 56.1135 54.748 55.1062 53.7307C54.5952 53.2141 54.075 52.7019 53.6158 52.134C53.3636 51.8215 53.2296 51.3977 53 50.9382Z" fill="#fff"/>
</svg>
