<svg width="150" height="150" viewBox="0 0 150 150" fill="none" xmlns="http://www.w3.org/2000/svg">
<path d="M134 1H16C7.71573 1 1 7.71573 1 16V134C1 142.284 7.71573 149 16 149H134C142.284 149 149 142.284 149 134V16C149 7.71573 142.284 1 134 1Z" fill="#B50903" stroke="#043371" stroke-width="2"/>
<path d="M72.7344 112L72.1719 109.859H68.4609L67.8828 112H64.4922L68.2188 100.531H72.3359L76.1094 112H72.7344ZM71.5312 107.328L71.0391 105.453C70.987 105.25 70.9115 104.961 70.8125 104.586C70.7135 104.206 70.6146 103.815 70.5156 103.414C70.4219 103.008 70.349 102.674 70.2969 102.414C70.25 102.674 70.1823 102.997 70.0938 103.383C70.0104 103.763 69.9219 104.141 69.8281 104.516C69.7396 104.891 69.6615 105.203 69.5938 105.453L69.1016 107.328H71.5312ZM82.4375 102.945C82.0729 102.945 81.7474 103.023 81.4609 103.18C81.1745 103.331 80.9297 103.552 80.7266 103.844C80.5234 104.135 80.3672 104.492 80.2578 104.914C80.1536 105.331 80.1016 105.805 80.1016 106.336C80.1016 107.055 80.1927 107.659 80.375 108.148C80.5573 108.638 80.8333 109.008 81.2031 109.258C81.5781 109.508 82.0469 109.633 82.6094 109.633C83.1198 109.633 83.6094 109.562 84.0781 109.422C84.5521 109.281 85.0286 109.112 85.5078 108.914V111.523C85.0026 111.747 84.4844 111.909 83.9531 112.008C83.4271 112.107 82.8672 112.156 82.2734 112.156C81.0339 112.156 80.0182 111.911 79.2266 111.422C78.4401 110.927 77.8594 110.242 77.4844 109.367C77.1146 108.492 76.9297 107.477 76.9297 106.32C76.9297 105.456 77.0495 104.664 77.2891 103.945C77.5339 103.227 77.8906 102.604 78.3594 102.078C78.8281 101.547 79.4062 101.138 80.0938 100.852C80.7865 100.56 81.5781 100.414 82.4688 100.414C83.0208 100.414 83.6016 100.479 84.2109 100.609C84.8255 100.734 85.4245 100.938 86.0078 101.219L85.0625 103.648C84.6458 103.451 84.224 103.284 83.7969 103.148C83.3698 103.013 82.9167 102.945 82.4375 102.945Z" fill="#fff"/>
<path d="M22.0391 119.578C23.0755 119.578 23.9375 119.706 24.625 119.961C25.3125 120.211 25.8281 120.586 26.1719 121.086C26.5208 121.586 26.6953 122.208 26.6953 122.953C26.6953 123.417 26.6172 123.839 26.4609 124.219C26.3047 124.599 26.0807 124.94 25.7891 125.242C25.5026 125.539 25.1589 125.799 24.7578 126.023L28.0859 131H24.5859L22.1641 126.844H21.3828V131H18.2969V119.578H22.0391ZM21.9922 121.914H21.3828V124.523H21.9609C22.4349 124.523 22.8229 124.419 23.125 124.211C23.4271 124.003 23.5781 123.63 23.5781 123.094C23.5781 122.724 23.4531 122.435 23.2031 122.227C22.9531 122.018 22.5495 121.914 21.9922 121.914ZM35.9062 131H29.125V119.578H35.9062V122.055H32.2109V123.852H35.6328V126.328H32.2109V128.484H35.9062V131ZM41.8594 119.578C43.3073 119.578 44.3906 119.893 45.1094 120.523C45.8333 121.154 46.1953 122.049 46.1953 123.211C46.1953 123.732 46.1198 124.232 45.9688 124.711C45.8229 125.19 45.5807 125.617 45.2422 125.992C44.9089 126.367 44.4635 126.664 43.9062 126.883C43.3542 127.102 42.6719 127.211 41.8594 127.211H40.9922V131H37.9062V119.578H41.8594ZM41.7891 122.07H40.9922V124.695H41.6016C41.8672 124.695 42.1146 124.651 42.3438 124.562C42.5729 124.469 42.7552 124.32 42.8906 124.117C43.0312 123.909 43.1016 123.633 43.1016 123.289C43.1016 122.93 42.9948 122.638 42.7812 122.414C42.5677 122.185 42.237 122.07 41.7891 122.07ZM48.0156 131V119.578H51.1016V128.508H55.5V131H48.0156ZM64.3359 131L63.7734 128.859H60.0625L59.4844 131H56.0938L59.8203 119.531H63.9375L67.7109 131H64.3359ZM63.1328 126.328L62.6406 124.453C62.5885 124.25 62.513 123.961 62.4141 123.586C62.3151 123.206 62.2161 122.815 62.1172 122.414C62.0234 122.008 61.9505 121.674 61.8984 121.414C61.8516 121.674 61.7839 121.997 61.6953 122.383C61.612 122.763 61.5234 123.141 61.4297 123.516C61.3411 123.891 61.263 124.203 61.1953 124.453L60.7031 126.328H63.1328ZM74.0391 121.945C73.6745 121.945 73.349 122.023 73.0625 122.18C72.776 122.331 72.5312 122.552 72.3281 122.844C72.125 123.135 71.9688 123.492 71.8594 123.914C71.7552 124.331 71.7031 124.805 71.7031 125.336C71.7031 126.055 71.7943 126.659 71.9766 127.148C72.1589 127.638 72.4349 128.008 72.8047 128.258C73.1797 128.508 73.6484 128.633 74.2109 128.633C74.7214 128.633 75.2109 128.562 75.6797 128.422C76.1536 128.281 76.6302 128.112 77.1094 127.914V130.523C76.6042 130.747 76.0859 130.909 75.5547 131.008C75.0286 131.107 74.4688 131.156 73.875 131.156C72.6354 131.156 71.6198 130.911 70.8281 130.422C70.0417 129.927 69.4609 129.242 69.0859 128.367C68.7161 127.492 68.5312 126.477 68.5312 125.32C68.5312 124.456 68.651 123.664 68.8906 122.945C69.1354 122.227 69.4922 121.604 69.9609 121.078C70.4297 120.547 71.0078 120.138 71.6953 119.852C72.388 119.56 73.1797 119.414 74.0703 119.414C74.6224 119.414 75.2031 119.479 75.8125 119.609C76.4271 119.734 77.026 119.938 77.6094 120.219L76.6641 122.648C76.2474 122.451 75.8255 122.284 75.3984 122.148C74.9714 122.013 74.5182 121.945 74.0391 121.945ZM86.125 131H79.3438V119.578H86.125V122.055H82.4297V123.852H85.8516V126.328H82.4297V128.484H86.125V131ZM93.1016 131L90.7656 122.773H90.6953C90.7161 122.987 90.737 123.276 90.7578 123.641C90.7839 124.005 90.8073 124.398 90.8281 124.82C90.849 125.242 90.8594 125.648 90.8594 126.039V131H88.125V119.578H92.2344L94.6172 127.688H94.6797L97.0156 119.578H101.133V131H98.2969V125.992C98.2969 125.633 98.3021 125.247 98.3125 124.836C98.3281 124.419 98.3438 124.029 98.3594 123.664C98.3802 123.294 98.3984 123.003 98.4141 122.789H98.3438L96.0391 131H93.1016ZM110.375 131H103.594V119.578H110.375V122.055H106.68V123.852H110.102V126.328H106.68V128.484H110.375V131ZM123.25 131H119.203L115.031 122.953H114.961C114.987 123.198 115.01 123.492 115.031 123.836C115.052 124.18 115.07 124.531 115.086 124.891C115.102 125.245 115.109 125.565 115.109 125.852V131H112.375V119.578H116.406L120.562 127.516H120.609C120.594 127.266 120.578 126.977 120.562 126.648C120.547 126.315 120.531 125.979 120.516 125.641C120.505 125.302 120.5 125.003 120.5 124.742V119.578H123.25V131ZM130.758 131H127.672V122.102H124.883V119.578H133.539V122.102H130.758V131Z" fill="#fff"/>
<path d="M90.54 68.7459L90.2267 68.1393H80.9833L80.3567 68.7459H90.54Z" fill="#fff"/>
<path d="M80.4611 71.3238C80.4089 71.3238 80.4089 71.3238 80.4611 71.3238C80.2 71.071 79.7822 71.071 79.5211 71.3238C79.5211 71.3238 79.5211 71.3238 79.4689 71.3238L79.26 71.5765L77.9022 72.8907L77.5889 73.1434C77.4844 73.2445 77.38 73.4467 77.38 73.5984C77.38 73.75 77.4322 73.9522 77.5889 74.0533L78.1111 74.5587L80.9311 71.8292L80.4611 71.3238Z" fill="#fff"/>
<path d="M82.0136 74.9716L81.3858 75.5792L84.0076 78.1168L84.6354 77.5092L82.0136 74.9716Z" fill="#fff"/>
<path d="M81.7051 72.566L78.8987 75.2823L79.5264 75.8899L82.3328 73.1736L81.7051 72.566Z" fill="#fff"/>
<path d="M75.1344 66.8757L75.4478 67.179L78.3722 64.3484C78.9467 63.7924 79.8867 63.7924 80.5133 64.3484C80.7744 64.6011 80.9311 65.0055 80.9311 65.3593C80.9311 65.7637 80.7744 66.1175 80.5133 66.3702L77.5889 69.2008L77.9544 69.5546L80.3567 67.179L82.1322 65.4604C82.2889 65.3087 82.4978 65.2582 82.7067 65.3593C84.6389 66.0164 86.6755 65.5615 88.1378 64.1462C89.0778 63.2363 89.6522 61.9727 89.6522 60.709L87.4067 62.8825C87.3022 62.9836 87.0933 63.0342 86.9367 63.0342L82.9678 62.4781C82.7589 62.4276 82.55 62.276 82.55 62.0738L81.9233 58.1817C81.8711 58.0301 81.9755 57.8279 82.08 57.7268L84.3256 55.5533C83.02 55.6038 81.7144 56.1093 80.7744 57.0191C79.3644 58.3839 78.8422 60.4057 79.5211 62.276C79.5733 62.4781 79.5211 62.6803 79.4167 62.832L75.1344 66.8757Z" fill="#fff"/>
<path d="M83.1067 73.8973L82.7744 74.2189L85.3961 76.7566L85.7285 76.4349L83.1067 73.8973Z" fill="#fff"/>
<path d="M75.8656 71.6776L75.5 71.3238L72.5756 74.1544C72.2622 74.4577 71.8967 74.5587 71.5311 74.5587C71.1656 74.5587 70.7478 74.4071 70.4867 74.1544C69.9122 73.5984 69.9122 72.638 70.4867 72.082L73.4111 69.2514L73.0978 68.9481L68.8678 73.0424C68.7111 73.194 68.5022 73.2445 68.2933 73.1434C66.3611 72.4863 64.2722 72.9918 62.8622 74.3566C61.9222 75.2664 61.3478 76.5301 61.3478 77.7937L63.5933 75.6202C63.6978 75.5191 63.8545 75.4686 63.9589 75.4686C64.0111 75.4686 64.0111 75.4686 64.0633 75.4686L68.0845 76.0751C68.2933 76.1257 68.5022 76.2773 68.5022 76.4795L69.1289 80.3716C69.1811 80.5232 69.0767 80.7254 68.9722 80.8265L66.7267 83C68.0322 82.9495 69.3378 82.444 70.2778 81.5342C71.6878 80.1694 72.21 78.1475 71.5311 76.2773C71.4789 76.0751 71.5311 75.873 71.6356 75.7213L75.8656 71.6776Z" fill="#fff"/>
<path d="M59.6767 70.4139H70.0167L70.6433 69.8074H59.9378L59.6767 70.4139Z" fill="#fff"/>
<path d="M72.2622 68.2404L72.21 68.1393H60.7733L60.46 68.7459H71.6878L72.2622 68.2404Z" fill="#fff"/>
<path d="M78.1111 71.2227L76.4922 69.6557L74.0378 67.2295L65.1078 58.5861L64.1156 58.2322L64.4811 59.1926L76.91 71.2732L77.4844 71.8292L78.1111 71.2227Z" fill="#fff"/>
<path d="M86.4667 77.1366L85.7355 77.8443L84.3778 79.209L83.6467 79.9167L84.2733 80.5232L87.0933 77.7937L86.4667 77.1366Z" fill="#fff"/>
<path d="M98.06 46H52.94C52.4178 46 52 46.4044 52 46.9098V69.5546C52 70.0601 52.4178 70.4645 52.94 70.4645H58.4756L59.9378 67.4822C60.0422 67.2801 60.1989 67.179 60.4078 67.179H71.1133L63.6456 59.8497C63.5933 59.7992 63.5411 59.7486 63.5411 59.6475L62.7056 57.5246C62.6533 57.3224 62.7056 57.1202 62.81 56.9686C62.9667 56.8169 63.1756 56.7664 63.3844 56.8675L65.5778 57.6762C65.63 57.7268 65.7344 57.7268 65.7867 57.7773L74.4033 66.1175L78.3722 62.276C77.7456 60.153 78.32 57.8784 79.9911 56.2609C81.4533 54.8456 83.5422 54.1885 85.5789 54.5929C85.7878 54.6434 85.9444 54.7445 85.9967 54.9467C86.0489 55.1489 85.9967 55.3511 85.84 55.4522L82.9678 58.2322L83.49 61.4672L86.8322 61.9727L89.7044 59.1926C89.8611 59.041 90.07 58.9904 90.2267 59.041C90.4356 59.0915 90.54 59.2432 90.5922 59.4454C90.9578 61.4167 90.3311 63.4385 88.8689 64.8538C87.25 66.5219 84.9 67.1284 82.7067 66.5219L82.08 67.1284H90.5922C90.8011 67.1284 91.01 67.2295 91.0622 67.4317L92.5244 70.4139H98.06C98.5822 70.4139 99 70.0096 99 69.5041V46.9098C99 46.4044 98.5822 46 98.06 46ZM55.8644 49.0328H54.4022C54.0889 49.0328 53.88 48.7801 53.88 48.5273C53.88 48.224 54.1411 48.0219 54.4022 48.0219H55.8644C56.1778 48.0219 56.3867 48.2746 56.3867 48.5273C56.3867 48.7801 56.1778 49.0328 55.8644 49.0328ZM59.52 49.0328H58.0578C57.7444 49.0328 57.5356 48.7801 57.5356 48.5273C57.5356 48.224 57.7967 48.0219 58.0578 48.0219H59.52C59.8333 48.0219 60.0422 48.2746 60.0422 48.5273C60.0944 48.7801 59.8333 49.0328 59.52 49.0328ZM63.2278 49.0328H61.7656C61.4522 49.0328 61.2433 48.7801 61.2433 48.5273C61.2433 48.224 61.5044 48.0219 61.7656 48.0219H63.2278C63.5411 48.0219 63.75 48.2746 63.75 48.5273C63.75 48.7801 63.4889 49.0328 63.2278 49.0328ZM97.9033 55.7049C97.7989 55.8566 97.6422 55.9576 97.4333 55.9576H88.1378C87.9289 55.9576 87.7722 55.8566 87.6678 55.7049C87.5633 55.5533 87.5633 55.3511 87.6678 55.1995L92.3156 47.4153C92.42 47.2637 92.5767 47.1626 92.7856 47.1626C92.9944 47.1626 93.1511 47.2637 93.2556 47.4153L97.9033 55.1995C98.0078 55.3511 98.0078 55.5533 97.9033 55.7049Z" fill="#fff"/>
<path d="M80.5883 76.2971L80.256 76.6188L82.8777 79.1564L83.2101 78.8347L80.5883 76.2971Z" fill="#fff"/>
<path d="M89.0778 54.9467H96.5456L92.8378 48.679L89.0778 54.9467ZM93.3078 54.138C93.3078 54.4413 93.0467 54.6434 92.7856 54.6434C92.4722 54.6434 92.2633 54.3907 92.2633 54.138V53.8347C92.2633 53.5314 92.5244 53.3292 92.7856 53.3292C93.0989 53.3292 93.3078 53.582 93.3078 53.8347V54.138ZM93.3078 50.2964V52.2172C93.3078 52.5205 93.0467 52.7227 92.7856 52.7227C92.4722 52.7227 92.2633 52.4699 92.2633 52.2172V50.2964C92.2633 49.9932 92.5244 49.791 92.7856 49.791C93.0989 49.791 93.3078 50.0437 93.3078 50.2964Z" fill="#fff"/>
<path d="M79.3122 69.8074L78.7378 70.3634L78.79 70.4139H78.9989C78.9989 70.4139 79.0511 70.4139 79.0511 70.3634C79.1033 70.3634 79.1033 70.3128 79.1556 70.3128C79.2078 70.2623 79.26 70.2623 79.3122 70.2623C79.3644 70.2623 79.3645 70.2117 79.4167 70.2117C79.4689 70.2117 79.5211 70.1612 79.6256 70.1612C79.6778 70.1612 79.6778 70.1612 79.73 70.1612C79.8344 70.1612 79.9389 70.1612 79.9911 70.1612C80.0956 70.1612 80.2 70.1612 80.2522 70.1612C80.3044 70.1612 80.3044 70.1612 80.3567 70.1612C80.4089 70.1612 80.4611 70.2117 80.5656 70.2117C80.6178 70.2117 80.6178 70.2117 80.67 70.2623C80.7222 70.2623 80.7745 70.3128 80.8267 70.3634C80.8789 70.3634 80.8789 70.4139 80.9311 70.4139C80.9311 70.4139 80.9833 70.4139 80.9833 70.4645H91.3756L91.0622 69.8579H79.3122V69.8074Z" fill="#fff"/>
<path d="M87.8245 78.5014L85.0045 81.2309L85.5267 81.7363C85.7878 81.9891 86.2056 81.9891 86.4667 81.7363L88.3467 79.9167C88.4511 79.8156 88.5556 79.6134 88.5556 79.4617C88.5556 79.3101 88.5033 79.1079 88.3467 79.0068L87.8245 78.5014Z" fill="#fff"/>
</svg>
