<svg width="150" height="150" viewBox="0 0 150 150" fill="none" xmlns="http://www.w3.org/2000/svg">
<path d="M134 1H16C7.71573 1 1 7.71573 1 16V134C1 142.284 7.71573 149 16 149H134C142.284 149 149 142.284 149 134V16C149 7.71573 142.284 1 134 1Z" fill="#B50903" stroke="#043371" stroke-width="2"/>
<path d="M103 80.7976V85H49C49 83.5992 49 82.1984 49 80.7976C49.2545 80.3801 49.6258 80.2569 50.1095 80.2639C51.655 80.2877 53.2005 80.2723 54.7459 80.2723C54.9316 80.2723 55.1158 80.2723 55.3084 80.2723V78.6417C53.0317 77.8475 52.1641 76.6274 52.1641 74.2446C52.1641 65.4265 52.1641 56.6084 52.1641 47.7903C52.1641 45.2184 52.1528 42.6466 52.1697 40.0747C52.1823 38.15 53.507 36.539 55.4097 36.2421C56.3195 36.0992 57.2645 36.1426 58.1927 36.1608C58.6638 36.1706 58.9492 36.0417 59.1995 35.6271C59.9617 34.3706 60.7675 33.1393 61.5719 31.9094C61.7406 31.6516 61.9783 31.4415 62.1836 31.209C71.3945 31.209 80.6055 31.209 89.8164 31.209C90.0217 31.4401 90.2608 31.6516 90.4281 31.908C91.1861 33.0636 91.9581 34.2137 92.6556 35.4058C92.9861 35.9703 93.3461 36.2196 94.0197 36.1636C94.803 36.0992 95.6073 36.0908 96.3864 36.1916C98.4691 36.4606 99.8345 38.1107 99.8345 40.2834C99.8373 51.6383 99.8345 62.9933 99.8345 74.3483C99.8345 76.605 98.9036 77.8909 96.7548 78.6109C96.7281 78.6193 96.7112 78.6585 96.7028 78.6683V80.2723C98.4536 80.2723 100.171 80.2863 101.889 80.2639C102.373 80.2569 102.744 80.3815 102.999 80.7976H103ZM95.1123 78.6445H94.3459C82.8695 78.6445 71.3945 78.6445 59.9181 78.6445C59.7072 78.6445 59.4934 78.6613 59.2867 78.6347C58.8494 78.5773 58.5794 78.3139 58.5527 77.8769C58.5259 77.4314 58.8325 77.2227 59.2277 77.1471C59.4147 77.1106 59.613 77.1289 59.8056 77.1289C71.8094 77.1289 83.8117 77.1289 95.8155 77.1289C97.2428 77.1289 98.2609 76.1385 98.2609 74.7447C98.2623 63.1908 98.2623 51.6369 98.2609 40.0817C98.2609 38.7383 97.2428 37.7171 95.9041 37.7171C82.6361 37.7143 69.3667 37.7143 56.0988 37.7171C54.7558 37.7171 53.7405 38.7369 53.7405 40.0803C53.7391 51.6341 53.7391 63.188 53.7405 74.7433C53.7405 76.053 54.663 77.0336 55.9722 77.1303C56.6331 77.1793 56.8581 77.423 56.8581 78.0954C56.8581 78.8238 56.8581 79.5508 56.8581 80.2877H95.1123V78.6445ZM60.6986 36.1314H91.293C90.7052 35.2069 90.1272 34.3566 89.6139 33.4685C89.3116 32.9446 88.9656 32.7442 88.33 32.7512C84.8692 32.7919 81.407 32.7709 77.9448 32.7709C73.0778 32.7709 68.2094 32.7695 63.3423 32.7765C63.1483 32.7765 62.8572 32.7961 62.7756 32.9165C62.0739 33.9545 61.4102 35.0178 60.6986 36.1314ZM50.5947 83.3989H101.386V81.8748H50.5947V83.3989Z" fill="#fff"/>
<path d="M87.1712 57.4461C87.1712 63.0661 87.1712 68.6862 87.1712 74.3062C87.1712 75.298 86.9308 75.5361 85.9253 75.5361C79.2991 75.5361 72.6728 75.5361 66.0466 75.5361C65.0748 75.5361 64.8273 75.2924 64.8273 74.3342C64.8273 63.0591 64.8273 51.784 64.8273 40.5075C64.8273 39.548 65.0734 39.3056 66.0452 39.3056C72.6897 39.3056 79.3328 39.3056 85.9773 39.3056C86.9139 39.3056 87.1712 39.5578 87.1712 40.4795C87.1712 46.1346 87.1712 51.7896 87.1712 57.4447V57.4461ZM85.63 44.0179H66.3883V45.6107H85.63V44.0179ZM66.3939 69.2199V70.8392H85.6216V69.2199H66.3939ZM66.3855 62.9261V64.5244H85.6314V62.9261H66.3855ZM66.3925 50.2922V51.9255H85.6033V50.2922H66.3925ZM66.3883 56.6252V58.2165H85.63V56.6252H66.3883ZM66.3911 53.486V55.0521H85.6089V53.486H66.3911ZM66.3911 42.4448H85.6089V40.8787H66.3911V42.4448ZM85.6103 72.3969H66.3897V73.9644H85.6103V72.3969ZM66.3897 67.6608H85.6089V66.0933H66.3897V67.6608ZM66.3897 48.7499H85.6089V47.1838H66.3911V48.7499H66.3897ZM85.6075 61.374V59.791H66.3911V61.374H85.6075Z" fill="#fff"/>
<path d="M55.3366 57.4237C55.3366 51.7868 55.3366 46.1486 55.3366 40.5117C55.3366 39.5508 55.5827 39.3084 56.5516 39.307C58.4148 39.307 60.2781 39.3042 62.14 39.307C62.9402 39.307 63.2284 39.5886 63.2284 40.3744C63.2298 51.7364 63.2298 63.0998 63.2284 74.4617C63.2284 75.249 62.9387 75.5333 62.1442 75.5347C60.2641 75.5375 58.3825 75.5361 56.5023 75.5347C55.6009 75.5347 55.3352 75.2742 55.3352 74.3861C55.3352 68.731 55.3352 63.0759 55.3352 57.4209L55.3366 57.4237ZM61.6914 40.8647H56.8933V42.4617H61.6914V40.8647ZM61.6703 58.2347V56.6294H56.8975V58.2347H61.6703ZM56.8764 51.9171H61.6745V50.3202H56.8764V51.9171ZM56.8764 64.523H61.6745V62.9289H56.8764V64.523ZM61.6928 69.2311H56.8947V70.828H61.6928V69.2311ZM56.8891 72.3717V73.9854H61.6816V72.3717H56.8891ZM61.6942 44.0179H56.8961V45.6135H61.6942V44.0179ZM61.6942 53.4734H56.8961V55.0689H61.6942V53.4734ZM61.6703 59.7756H56.9017V61.3754H61.6703V59.7756ZM56.9003 48.7513H61.6703V47.1866H56.9003V48.7513ZM61.6703 66.0807H56.9017V67.6804H61.6703V66.0807Z" fill="#fff"/>
<path d="M88.7701 57.4083C88.7701 51.7882 88.7701 46.1682 88.7701 40.5481C88.7701 39.5424 89.005 39.307 90.0006 39.3056C91.8456 39.3056 93.692 39.3042 95.537 39.3056C96.3934 39.3056 96.6648 39.5788 96.6648 40.4403C96.6648 51.7672 96.6648 63.0956 96.6648 74.4225C96.6648 75.2504 96.385 75.5319 95.5651 75.5333C93.6667 75.5361 91.7683 75.5361 89.8712 75.5333C89.0486 75.5333 88.7716 75.2518 88.7716 74.4239C88.7716 68.752 88.7716 63.0787 88.7716 57.4069L88.7701 57.4083ZM90.3184 42.4687H95.0983V40.8549H90.3184V42.4687ZM95.1236 50.323H90.3311V51.9129H95.1236V50.323ZM95.1264 56.6238H90.3297V58.2179H95.1264V56.6238ZM95.1264 59.7728H90.3283V61.3712H95.1264V59.7728ZM90.3311 62.9092V64.5202H95.1081V62.9092H90.3311ZM90.3114 67.6734H95.1095V66.0779H90.3114V67.6734ZM90.3226 48.7709H95.0997V47.16H90.3226V48.7709ZM95.1278 44.0165H90.3311V45.6107H95.1278V44.0165ZM90.3114 70.8266H95.1095V69.2311H90.3114V70.8266ZM90.3353 55.0521H95.1039V53.4874H90.3353V55.0521ZM95.1053 72.3983H90.3353V73.963H95.1053V72.3983Z" fill="#fff"/>
<path d="M77.8518 23.4802L76 24.9109L74.1482 23.4802V19.2083C72.6694 19.902 71.6435 21.3959 71.6433 23.1322C71.6433 24.8 72.5891 26.2461 73.9744 26.9726L73.9742 32.2358C75.3065 32.5381 76.6928 32.5392 78.0256 32.2401V26.9726C79.4107 26.2459 80.3565 24.7998 80.3567 23.1322C80.3567 21.3961 79.3306 19.902 77.8518 19.2083V23.4802Z" fill="#fff"/>
<g transform="translate(0, 10)">
<path d="M41.4219 112H38.3828V100.578H45.1328V103.055H41.4219V105.234H44.8438V107.711H41.4219V112ZM56.7188 100.578V107.453C56.7188 108.411 56.5365 109.245 56.1719 109.953C55.8073 110.656 55.2604 111.201 54.5312 111.586C53.8021 111.966 52.888 112.156 51.7891 112.156C50.2161 112.156 49.0156 111.753 48.1875 110.945C47.3594 110.138 46.9453 108.997 46.9453 107.523V100.578H50.0469V107.281C50.0469 108.089 50.1979 108.674 50.5 109.039C50.8021 109.404 51.2474 109.586 51.8359 109.586C52.2578 109.586 52.6016 109.508 52.8672 109.352C53.1328 109.19 53.3255 108.938 53.4453 108.594C53.5703 108.25 53.6328 107.807 53.6328 107.266V100.578H56.7188ZM62.8594 100.578C63.8958 100.578 64.7578 100.706 65.4453 100.961C66.1328 101.211 66.6484 101.586 66.9922 102.086C67.3411 102.586 67.5156 103.208 67.5156 103.953C67.5156 104.417 67.4375 104.839 67.2812 105.219C67.125 105.599 66.901 105.94 66.6094 106.242C66.3229 106.539 65.9792 106.799 65.5781 107.023L68.9062 112H65.4062L62.9844 107.844H62.2031V112H59.1172V100.578H62.8594ZM62.8125 102.914H62.2031V105.523H62.7812C63.2552 105.523 63.6432 105.419 63.9453 105.211C64.2474 105.003 64.3984 104.63 64.3984 104.094C64.3984 103.724 64.2734 103.435 64.0234 103.227C63.7734 103.018 63.3698 102.914 62.8125 102.914ZM80.8203 112H76.7734L72.6016 103.953H72.5312C72.5573 104.198 72.5807 104.492 72.6016 104.836C72.6224 105.18 72.6406 105.531 72.6562 105.891C72.6719 106.245 72.6797 106.565 72.6797 106.852V112H69.9453V100.578H73.9766L78.1328 108.516H78.1797C78.1641 108.266 78.1484 107.977 78.1328 107.648C78.1172 107.315 78.1016 106.979 78.0859 106.641C78.0755 106.302 78.0703 106.003 78.0703 105.742V100.578H80.8203V112ZM90.2969 112L89.7344 109.859H86.0234L85.4453 112H82.0547L85.7812 100.531H89.8984L93.6719 112H90.2969ZM89.0938 107.328L88.6016 105.453C88.5495 105.25 88.474 104.961 88.375 104.586C88.276 104.206 88.1771 103.815 88.0781 103.414C87.9844 103.008 87.9115 102.674 87.8594 102.414C87.8125 102.674 87.7448 102.997 87.6562 103.383C87.5729 103.763 87.4844 104.141 87.3906 104.516C87.3021 104.891 87.224 105.203 87.1562 105.453L86.6641 107.328H89.0938ZM100 102.945C99.6354 102.945 99.3099 103.023 99.0234 103.18C98.737 103.331 98.4922 103.552 98.2891 103.844C98.0859 104.135 97.9297 104.492 97.8203 104.914C97.7161 105.331 97.6641 105.805 97.6641 106.336C97.6641 107.055 97.7552 107.659 97.9375 108.148C98.1198 108.638 98.3958 109.008 98.7656 109.258C99.1406 109.508 99.6094 109.633 100.172 109.633C100.682 109.633 101.172 109.562 101.641 109.422C102.115 109.281 102.591 109.112 103.07 108.914V111.523C102.565 111.747 102.047 111.909 101.516 112.008C100.99 112.107 100.43 112.156 99.8359 112.156C98.5964 112.156 97.5807 111.911 96.7891 111.422C96.0026 110.927 95.4219 110.242 95.0469 109.367C94.6771 108.492 94.4922 107.477 94.4922 106.32C94.4922 105.456 94.612 104.664 94.8516 103.945C95.0964 103.227 95.4531 102.604 95.9219 102.078C96.3906 101.547 96.9688 101.138 97.6562 100.852C98.349 100.56 99.1406 100.414 100.031 100.414C100.583 100.414 101.164 100.479 101.773 100.609C102.388 100.734 102.987 100.938 103.57 101.219L102.625 103.648C102.208 103.451 101.786 103.284 101.359 103.148C100.932 103.013 100.479 102.945 100 102.945ZM112.086 112H105.305V100.578H112.086V103.055H108.391V104.852H111.812V107.328H108.391V109.484H112.086V112Z" fill="#fff"/>
</g>
</svg>