<svg width="150" height="150" viewBox="0 0 150 150" fill="none" xmlns="http://www.w3.org/2000/svg">
<path d="M134 1H16C7.71573 1 1 7.71573 1 16V134C1 142.284 7.71573 149 16 149H134C142.284 149 149 142.284 149 134V16C149 7.71573 142.284 1 134 1Z" fill="#B50903" stroke="#043371" stroke-width="2"/>
<path d="M34.3672 123H31.2656V118.344H27.6797V123H24.5781V111.578H27.6797V115.812H31.2656V111.578H34.3672V123ZM43.625 123H36.8438V111.578H43.625V114.055H39.9297V115.852H43.3516V118.328H39.9297V120.484H43.625V123ZM52.6328 123L52.0703 120.859H48.3594L47.7812 123H44.3906L48.1172 111.531H52.2344L56.0078 123H52.6328ZM51.4297 118.328L50.9375 116.453C50.8854 116.25 50.8099 115.961 50.7109 115.586C50.612 115.206 50.513 114.815 50.4141 114.414C50.3203 114.008 50.2474 113.674 50.1953 113.414C50.1484 113.674 50.0807 113.997 49.9922 114.383C49.9089 114.763 49.8203 115.141 49.7266 115.516C49.638 115.891 49.5599 116.203 49.4922 116.453L49 118.328H51.4297ZM62.2891 123H59.2031V114.102H56.4141V111.578H65.0703V114.102H62.2891V123ZM74.8125 111.578C76.2604 111.578 77.3438 111.893 78.0625 112.523C78.7865 113.154 79.1484 114.049 79.1484 115.211C79.1484 115.732 79.0729 116.232 78.9219 116.711C78.776 117.19 78.5339 117.617 78.1953 117.992C77.862 118.367 77.4167 118.664 76.8594 118.883C76.3073 119.102 75.625 119.211 74.8125 119.211H73.9453V123H70.8594V111.578H74.8125ZM74.7422 114.07H73.9453V116.695H74.5547C74.8203 116.695 75.0677 116.651 75.2969 116.562C75.526 116.469 75.7083 116.32 75.8438 116.117C75.9844 115.909 76.0547 115.633 76.0547 115.289C76.0547 114.93 75.9479 114.638 75.7344 114.414C75.5208 114.185 75.1901 114.07 74.7422 114.07ZM90.6797 111.578V118.453C90.6797 119.411 90.4974 120.245 90.1328 120.953C89.7682 121.656 89.2214 122.201 88.4922 122.586C87.763 122.966 86.849 123.156 85.75 123.156C84.1771 123.156 82.9766 122.753 82.1484 121.945C81.3203 121.138 80.9062 119.997 80.9062 118.523V111.578H84.0078V118.281C84.0078 119.089 84.1589 119.674 84.4609 120.039C84.763 120.404 85.2083 120.586 85.7969 120.586C86.2188 120.586 86.5625 120.508 86.8281 120.352C87.0938 120.19 87.2865 119.938 87.4062 119.594C87.5312 119.25 87.5938 118.807 87.5938 118.266V111.578H90.6797ZM98.0547 123L95.7188 114.773H95.6484C95.6693 114.987 95.6901 115.276 95.7109 115.641C95.737 116.005 95.7604 116.398 95.7812 116.82C95.8021 117.242 95.8125 117.648 95.8125 118.039V123H93.0781V111.578H97.1875L99.5703 119.688H99.6328L101.969 111.578H106.086V123H103.25V117.992C103.25 117.633 103.255 117.247 103.266 116.836C103.281 116.419 103.297 116.029 103.312 115.664C103.333 115.294 103.352 115.003 103.367 114.789H103.297L100.992 123H98.0547ZM112.5 111.578C113.948 111.578 115.031 111.893 115.75 112.523C116.474 113.154 116.836 114.049 116.836 115.211C116.836 115.732 116.76 116.232 116.609 116.711C116.464 117.19 116.221 117.617 115.883 117.992C115.549 118.367 115.104 118.664 114.547 118.883C113.995 119.102 113.312 119.211 112.5 119.211H111.633V123H108.547V111.578H112.5ZM112.43 114.07H111.633V116.695H112.242C112.508 116.695 112.755 116.651 112.984 116.562C113.214 116.469 113.396 116.32 113.531 116.117C113.672 115.909 113.742 115.633 113.742 115.289C113.742 114.93 113.635 114.638 113.422 114.414C113.208 114.185 112.878 114.07 112.43 114.07ZM126.125 119.531C126.125 120.151 125.969 120.74 125.656 121.297C125.344 121.849 124.857 122.297 124.195 122.641C123.539 122.984 122.69 123.156 121.648 123.156C121.128 123.156 120.669 123.133 120.273 123.086C119.883 123.039 119.518 122.964 119.18 122.859C118.841 122.75 118.49 122.609 118.125 122.438V119.688C118.745 120 119.37 120.24 120 120.406C120.63 120.568 121.201 120.648 121.711 120.648C122.018 120.648 122.268 120.612 122.461 120.539C122.659 120.466 122.805 120.367 122.898 120.242C122.992 120.112 123.039 119.964 123.039 119.797C123.039 119.599 122.969 119.432 122.828 119.297C122.693 119.156 122.474 119.01 122.172 118.859C121.87 118.708 121.471 118.521 120.977 118.297C120.555 118.099 120.172 117.896 119.828 117.688C119.49 117.479 119.198 117.242 118.953 116.977C118.714 116.706 118.529 116.391 118.398 116.031C118.268 115.672 118.203 115.247 118.203 114.758C118.203 114.023 118.383 113.409 118.742 112.914C119.107 112.414 119.612 112.039 120.258 111.789C120.909 111.539 121.659 111.414 122.508 111.414C123.253 111.414 123.922 111.497 124.516 111.664C125.115 111.831 125.651 112.021 126.125 112.234L125.18 114.617C124.69 114.393 124.208 114.216 123.734 114.086C123.26 113.951 122.82 113.883 122.414 113.883C122.148 113.883 121.93 113.917 121.758 113.984C121.591 114.047 121.466 114.133 121.383 114.242C121.305 114.352 121.266 114.477 121.266 114.617C121.266 114.794 121.333 114.953 121.469 115.094C121.609 115.234 121.841 115.388 122.164 115.555C122.492 115.716 122.938 115.927 123.5 116.188C124.057 116.438 124.531 116.708 124.922 117C125.312 117.286 125.609 117.633 125.812 118.039C126.021 118.44 126.125 118.938 126.125 119.531Z" fill="#fff"/>
<path d="M75.5111 76C68.404 76 61.2981 76 54.191 76C52.6022 76 52.0012 75.3971 52.0012 73.8049C52 63.5997 52 53.3933 52 43.1881C52 41.6006 52.6034 41 54.198 41C68.3923 41 82.5854 41 96.7798 41C98.4095 41 99 41.5912 99 43.2232C99 53.4097 99 63.5962 99 73.7826C99 75.4111 98.4083 76 96.7727 76C89.6855 76 82.5983 76 75.5111 76ZM57.304 58.6709C57.304 65.2188 62.6337 70.5526 69.1738 70.5526C75.715 70.5526 81.0412 65.2141 81.0365 58.6651C81.033 52.1722 75.681 46.8091 69.196 46.7986C62.6829 46.7881 57.3016 52.1594 57.3028 58.6721L57.304 58.6709ZM88.5256 53.4682C89.7535 53.4682 90.9814 53.4752 92.2092 53.4659C93.2215 53.4577 94.0077 52.7318 94.0381 51.7988C94.0698 50.8247 93.375 50.0333 92.3416 50.0193C89.8273 49.9853 87.313 49.9853 84.7987 50.0193C83.7899 50.0333 83.0213 50.8598 83.0389 51.7695C83.0576 52.7389 83.8414 53.46 84.8982 53.4659C86.1062 53.4729 87.3153 53.4671 88.5233 53.4671L88.5256 53.4682ZM88.5502 63.8783C87.32 63.8783 86.0898 63.8701 84.8596 63.8807C83.7993 63.89 83.0283 64.5995 83.033 65.5325C83.0389 66.5698 83.7758 67.3214 84.8619 67.3284C87.3024 67.3448 89.7429 67.3425 92.1846 67.3296C93.2696 67.3238 94.0592 66.5511 94.0405 65.5653C94.0229 64.5831 93.2625 63.8865 92.1823 63.8795C90.972 63.8713 89.7605 63.8771 88.5502 63.8783ZM88.4987 60.3942C89.7465 60.3942 90.9954 60.4048 92.2432 60.3907C93.2531 60.3802 94.0264 59.6356 94.0405 58.6955C94.0557 57.7027 93.3141 56.9593 92.2467 56.9535C89.7898 56.9394 87.3317 56.9394 84.8748 56.9535C83.8403 56.9605 83.0307 57.7542 83.0435 58.6897C83.0588 59.7058 83.777 60.3837 84.8713 60.3919C86.0804 60.4013 87.2895 60.3942 88.4987 60.3942Z" fill="#fff"/>
<path d="M77.4818 56.8961H73.667C74.527 56.0426 75.4033 55.1751 76.357 54.2292C76.6863 55.0112 77.0694 55.9174 77.4818 56.8961Z" fill="#fff"/>
<path d="M64.7802 60.4457C63.8522 61.3718 62.9794 62.2428 62.0128 63.2075C61.646 62.3283 61.2676 61.4186 60.8622 60.4457H64.7802Z" fill="#fff"/>
<path d="M60.8786 56.8809C61.2875 55.9232 61.6706 55.0265 62.0385 54.1636C62.9864 55.1108 63.8604 55.9853 64.7556 56.8809H60.8786Z" fill="#fff"/>
<path d="M73.626 60.4376H77.4642C77.0589 61.3975 76.6746 62.3084 76.3231 63.1408C75.3916 62.2077 74.5246 61.3378 73.626 60.4376Z" fill="#fff"/>
<path d="M64.7884 51.4522C65.5101 51.1537 66.4169 50.7791 67.3999 50.3728V54.0688C66.5974 53.2645 65.7186 52.3841 64.7884 51.4522Z" fill="#fff"/>
<path d="M70.9476 66.9784V63.2157C71.7807 64.068 72.65 64.9554 73.5592 65.8849C72.8386 66.187 71.9295 66.5675 70.9476 66.9784Z" fill="#fff"/>
<path d="M70.9793 50.3916C71.9271 50.7931 72.8152 51.1701 73.6506 51.5236C72.7379 52.4474 71.8627 53.3324 70.9793 54.2257V50.3916Z" fill="#fff"/>
<path d="M67.3847 66.962C66.4146 66.5476 65.5148 66.1636 64.7204 65.8252C65.6319 64.9074 66.5107 64.0235 67.3847 63.1443V66.962Z" fill="#fff"/>
<path d="M70.4614 58.644C70.4778 59.3441 69.8709 59.9634 69.1703 59.9634C68.4919 59.9634 67.8955 59.3804 67.8815 58.7025C67.8662 58.0013 68.472 57.3808 69.1714 57.3808C69.8439 57.3808 70.4473 57.9708 70.4626 58.6452L70.4614 58.644Z" fill="#fff"/>
</svg>
