<svg width="150" height="150" viewBox="0 0 150 150" fill="none" xmlns="http://www.w3.org/2000/svg">
<path d="M134 1H16C7.71573 1 1 7.71573 1 16V134C1 142.284 7.71573 149 16 149H134C142.284 149 149 142.284 149 134V16C149 7.71573 142.284 1 134 1Z" fill="#B50903" stroke="#043371" stroke-width="2"/>
<path d="M39.4844 112H36.3828V107.344H32.7969V112H29.6953V100.578H32.7969V104.812H36.3828V100.578H39.4844V112ZM48.7422 112H41.9609V100.578H48.7422V103.055H45.0469V104.852H48.4688V107.328H45.0469V109.484H48.7422V112ZM57.75 112L57.1875 109.859H53.4766L52.8984 112H49.5078L53.2344 100.531H57.3516L61.125 112H57.75ZM56.5469 107.328L56.0547 105.453C56.0026 105.25 55.9271 104.961 55.8281 104.586C55.7292 104.206 55.6302 103.815 55.5312 103.414C55.4375 103.008 55.3646 102.674 55.3125 102.414C55.2656 102.674 55.1979 102.997 55.1094 103.383C55.026 103.763 54.9375 104.141 54.8438 104.516C54.7552 104.891 54.6771 105.203 54.6094 105.453L54.1172 107.328H56.5469ZM67.4062 112H64.3203V103.102H61.5312V100.578H70.1875V103.102H67.4062V112ZM79.9297 100.578C81.3776 100.578 82.4609 100.893 83.1797 101.523C83.9036 102.154 84.2656 103.049 84.2656 104.211C84.2656 104.732 84.1901 105.232 84.0391 105.711C83.8932 106.19 83.651 106.617 83.3125 106.992C82.9792 107.367 82.5339 107.664 81.9766 107.883C81.4245 108.102 80.7422 108.211 79.9297 108.211H79.0625V112H75.9766V100.578H79.9297ZM79.8594 103.07H79.0625V105.695H79.6719C79.9375 105.695 80.1849 105.651 80.4141 105.562C80.6432 105.469 80.8255 105.32 80.9609 105.117C81.1016 104.909 81.1719 104.633 81.1719 104.289C81.1719 103.93 81.0651 103.638 80.8516 103.414C80.638 103.185 80.3073 103.07 79.8594 103.07ZM95.7969 100.578V107.453C95.7969 108.411 95.6146 109.245 95.25 109.953C94.8854 110.656 94.3385 111.201 93.6094 111.586C92.8802 111.966 91.9661 112.156 90.8672 112.156C89.2943 112.156 88.0938 111.753 87.2656 110.945C86.4375 110.138 86.0234 108.997 86.0234 107.523V100.578H89.125V107.281C89.125 108.089 89.276 108.674 89.5781 109.039C89.8802 109.404 90.3255 109.586 90.9141 109.586C91.3359 109.586 91.6797 109.508 91.9453 109.352C92.2109 109.19 92.4036 108.938 92.5234 108.594C92.6484 108.25 92.7109 107.807 92.7109 107.266V100.578H95.7969ZM103.172 112L100.836 103.773H100.766C100.786 103.987 100.807 104.276 100.828 104.641C100.854 105.005 100.878 105.398 100.898 105.82C100.919 106.242 100.93 106.648 100.93 107.039V112H98.1953V100.578H102.305L104.688 108.688H104.75L107.086 100.578H111.203V112H108.367V106.992C108.367 106.633 108.372 106.247 108.383 105.836C108.398 105.419 108.414 105.029 108.43 104.664C108.451 104.294 108.469 104.003 108.484 103.789H108.414L106.109 112H103.172ZM117.617 100.578C119.065 100.578 120.148 100.893 120.867 101.523C121.591 102.154 121.953 103.049 121.953 104.211C121.953 104.732 121.878 105.232 121.727 105.711C121.581 106.19 121.339 106.617 121 106.992C120.667 107.367 120.221 107.664 119.664 107.883C119.112 108.102 118.43 108.211 117.617 108.211H116.75V112H113.664V100.578H117.617ZM117.547 103.07H116.75V105.695H117.359C117.625 105.695 117.872 105.651 118.102 105.562C118.331 105.469 118.513 105.32 118.648 105.117C118.789 104.909 118.859 104.633 118.859 104.289C118.859 103.93 118.753 103.638 118.539 103.414C118.326 103.185 117.995 103.07 117.547 103.07Z" fill="#fff"/>
<path d="M20.8438 131L18.5078 122.773H18.4375C18.4583 122.987 18.4792 123.276 18.5 123.641C18.526 124.005 18.5495 124.398 18.5703 124.82C18.5911 125.242 18.6016 125.648 18.6016 126.039V131H15.8672V119.578H19.9766L22.3594 127.688H22.4219L24.7578 119.578H28.875V131H26.0391V125.992C26.0391 125.633 26.0443 125.247 26.0547 124.836C26.0703 124.419 26.0859 124.029 26.1016 123.664C26.1224 123.294 26.1406 123.003 26.1562 122.789H26.0859L23.7812 131H20.8438ZM38.3438 131L37.7812 128.859H34.0703L33.4922 131H30.1016L33.8281 119.531H37.9453L41.7188 131H38.3438ZM37.1406 126.328L36.6484 124.453C36.5964 124.25 36.5208 123.961 36.4219 123.586C36.3229 123.206 36.224 122.815 36.125 122.414C36.0312 122.008 35.9583 121.674 35.9062 121.414C35.8594 121.674 35.7917 121.997 35.7031 122.383C35.6198 122.763 35.5312 123.141 35.4375 123.516C35.349 123.891 35.2708 124.203 35.2031 124.453L34.7109 126.328H37.1406ZM42.9609 131V119.578H46.0625V131H42.9609ZM59.4141 131H55.3672L51.1953 122.953H51.125C51.151 123.198 51.1745 123.492 51.1953 123.836C51.2161 124.18 51.2344 124.531 51.25 124.891C51.2656 125.245 51.2734 125.565 51.2734 125.852V131H48.5391V119.578H52.5703L56.7266 127.516H56.7734C56.7578 127.266 56.7422 126.977 56.7266 126.648C56.7109 126.315 56.6953 125.979 56.6797 125.641C56.6693 125.302 56.6641 125.003 56.6641 124.742V119.578H59.4141V131ZM66.9219 131H63.8359V122.102H61.0469V119.578H69.7031V122.102H66.9219V131ZM78.1172 131H71.3359V119.578H78.1172V122.055H74.4219V123.852H77.8438V126.328H74.4219V128.484H78.1172V131ZM90.9922 131H86.9453L82.7734 122.953H82.7031C82.7292 123.198 82.7526 123.492 82.7734 123.836C82.7943 124.18 82.8125 124.531 82.8281 124.891C82.8438 125.245 82.8516 125.565 82.8516 125.852V131H80.1172V119.578H84.1484L88.3047 127.516H88.3516C88.3359 127.266 88.3203 126.977 88.3047 126.648C88.2891 126.315 88.2734 125.979 88.2578 125.641C88.2474 125.302 88.2422 125.003 88.2422 124.742V119.578H90.9922V131ZM100.469 131L99.9062 128.859H96.1953L95.6172 131H92.2266L95.9531 119.531H100.07L103.844 131H100.469ZM99.2656 126.328L98.7734 124.453C98.7214 124.25 98.6458 123.961 98.5469 123.586C98.4479 123.206 98.349 122.815 98.25 122.414C98.1562 122.008 98.0833 121.674 98.0312 121.414C97.9844 121.674 97.9167 121.997 97.8281 122.383C97.7448 122.763 97.6562 123.141 97.5625 123.516C97.474 123.891 97.3958 124.203 97.3281 124.453L96.8359 126.328H99.2656ZM115.961 131H111.914L107.742 122.953H107.672C107.698 123.198 107.721 123.492 107.742 123.836C107.763 124.18 107.781 124.531 107.797 124.891C107.812 125.245 107.82 125.565 107.82 125.852V131H105.086V119.578H109.117L113.273 127.516H113.32C113.305 127.266 113.289 126.977 113.273 126.648C113.258 126.315 113.242 125.979 113.227 125.641C113.216 125.302 113.211 125.003 113.211 124.742V119.578H115.961V131ZM123.516 121.945C123.151 121.945 122.826 122.023 122.539 122.18C122.253 122.331 122.008 122.552 121.805 122.844C121.602 123.135 121.445 123.492 121.336 123.914C121.232 124.331 121.18 124.805 121.18 125.336C121.18 126.055 121.271 126.659 121.453 127.148C121.635 127.638 121.911 128.008 122.281 128.258C122.656 128.508 123.125 128.633 123.688 128.633C124.198 128.633 124.688 128.562 125.156 128.422C125.63 128.281 126.107 128.112 126.586 127.914V130.523C126.081 130.747 125.562 130.909 125.031 131.008C124.505 131.107 123.945 131.156 123.352 131.156C122.112 131.156 121.096 130.911 120.305 130.422C119.518 129.927 118.938 129.242 118.562 128.367C118.193 127.492 118.008 126.477 118.008 125.32C118.008 124.456 118.128 123.664 118.367 122.945C118.612 122.227 118.969 121.604 119.438 121.078C119.906 120.547 120.484 120.138 121.172 119.852C121.865 119.56 122.656 119.414 123.547 119.414C124.099 119.414 124.68 119.479 125.289 119.609C125.904 119.734 126.503 119.938 127.086 120.219L126.141 122.648C125.724 122.451 125.302 122.284 124.875 122.148C124.448 122.013 123.995 121.945 123.516 121.945ZM135.602 131H128.82V119.578H135.602V122.055H131.906V123.852H135.328V126.328H131.906V128.484H135.602V131Z" fill="#fff"/>
<path d="M87.3582 76.3858C86.4779 76.8935 85.6093 77.3938 84.6822 77.9282C84.2144 77.1202 83.7647 76.3442 83.316 75.5682C82.7451 74.5804 82.6856 74.5581 81.5969 74.9274C81.5172 74.954 81.43 74.9604 81.295 74.987C81.3864 73.335 80.9516 71.8479 80.0777 70.5056C85.5179 67.8891 88.5394 63.6483 88.3459 57.6116C88.1524 51.5665 84.8353 47.5513 79.2643 45.2893C80.084 43.9332 80.4647 42.4461 80.3094 40.7206C80.8803 40.9218 81.3715 41.0878 81.8563 41.2667C82.5102 41.5083 82.7823 41.4231 83.1311 40.827C83.6392 39.9595 84.1411 39.0877 84.6748 38.1669C85.5933 38.696 86.4736 39.2048 87.3965 39.737C86.8702 40.6471 86.3663 41.5157 85.8666 42.3865C85.5072 43.0124 85.6018 43.2679 86.1164 43.7607C87.2019 44.7986 88.2608 45.8662 89.2985 46.9531C89.7748 47.4523 90.0342 47.5492 90.6274 47.2096C91.5024 46.7093 92.3721 46.2016 93.3034 45.6629C93.8222 46.5613 94.3315 47.4427 94.8737 48.3827C94.0231 48.8787 93.2056 49.3588 92.3859 49.8346C91.5609 50.3136 91.5534 50.4775 91.8235 51.3749C92.2466 52.7779 92.5964 54.2032 92.9451 55.6275C93.1035 56.2757 93.2747 56.4631 93.9455 56.4663C94.9513 56.4705 95.9581 56.4673 97 56.4673V59.6341C96.023 59.6341 95.0544 59.6341 94.0869 59.6341C93.23 59.6341 93.1173 59.7789 92.9185 60.5943C92.5634 62.0526 92.1637 63.5003 91.749 64.9427C91.5747 65.5473 91.63 65.8262 92.169 66.1445C93.0504 66.665 93.937 67.1759 94.8747 67.7209C94.3474 68.6364 93.8382 69.5188 93.3044 70.4449C92.3986 69.9201 91.5322 69.4145 90.6625 68.9142C90.0352 68.5534 89.7811 68.646 89.29 69.1612C88.2534 70.248 87.1891 71.3103 86.1047 72.3493C85.6104 72.824 85.5168 73.0816 85.8581 73.6799C86.3482 74.5421 86.8447 75.4001 87.3369 76.2612C87.3444 76.275 87.3422 76.2953 87.3561 76.3858H87.3582Z" fill="#fff"/>
<path d="M56.7338 70.4396C56.2001 69.5135 55.6909 68.6311 55.1603 67.7103C56.0523 67.1951 56.8933 66.7108 57.7332 66.2243C58.4381 65.8155 58.4689 65.5803 58.2308 64.7873C57.8204 63.4173 57.4557 62.0324 57.1272 60.6401C56.9231 59.7757 56.8167 59.6331 55.9439 59.632C54.9902 59.632 54.0366 59.632 53 59.632C53 59.0902 53 58.5846 53 58.0789C53 57.5733 53 57.0539 53 56.4663C53.9494 56.4663 54.8637 56.4663 55.778 56.4663C56.8582 56.4663 56.9252 56.3449 57.157 55.306C57.46 53.9456 57.8416 52.6001 58.2435 51.2642C58.47 50.5116 58.4328 50.2774 57.7406 49.8751C56.9007 49.3875 56.0598 48.9011 55.1625 48.3816C55.6877 47.4693 56.1959 46.5869 56.7317 45.6565C57.6024 46.16 58.4391 46.6444 59.2758 47.1287C60.0275 47.563 60.2295 47.4779 60.8079 46.8594C61.786 45.8141 62.8002 44.7996 63.8464 43.8225C64.4683 43.2413 64.5534 43.0411 64.1185 42.2885C63.6412 41.4604 63.1617 40.6333 62.6482 39.7445C63.5423 39.2271 64.4226 38.7172 65.3731 38.1669C65.7112 38.7556 66.0354 39.3144 66.3491 39.8796C66.3863 39.9467 66.3767 40.0532 66.3618 40.1351C65.9174 42.5366 66.5723 44.6197 68.1756 46.4294C68.1862 46.4411 68.1862 46.4623 68.1968 46.4953C63.8985 49.2875 61.5414 53.226 61.6733 58.3919C61.8051 63.5408 64.3429 67.3452 68.7943 69.9372C68.7635 69.9979 68.7359 70.0788 68.6869 70.1416C67.6621 71.4626 67.1528 72.9592 67.1528 74.6315C67.1528 74.7497 67.1379 74.8838 67.0805 74.9828C66.5245 75.9483 65.9589 76.9084 65.3614 77.9271C64.4598 77.4077 63.5785 76.8988 62.6429 76.3591C63.1436 75.4916 63.6274 74.6549 64.11 73.8172C64.5544 73.0465 64.4662 72.8645 63.807 72.2471C62.7619 71.2688 61.7594 70.2437 60.7813 69.1984C60.2454 68.6257 60.0158 68.5363 59.329 68.9334C58.4859 69.4198 57.646 69.9106 56.7338 70.4396ZM60.0785 57.3083C60.2805 53.8913 61.4787 50.9076 63.6476 48.3167C63.4147 48.1165 63.2266 47.9558 63.0384 47.7951C62.8534 47.6375 62.6684 47.4821 62.4536 47.3012C60.0381 50.1923 58.7304 53.4517 58.5146 57.2125C59.0611 57.2465 59.5459 57.2753 60.0785 57.3083ZM63.4519 45.6523C63.8676 46.0408 64.2323 46.3804 64.6076 46.7317C64.9531 46.4208 65.3135 46.0972 65.6846 45.763C65.3571 45.3457 65.0563 44.9636 64.7203 44.5367C64.2897 44.9146 63.8995 45.2595 63.4519 45.6523Z" fill="#fff"/>
<path d="M79.7045 52.5458V63.5706C79.5057 63.5706 79.3196 63.5706 79.1336 63.5706C75.5199 63.5706 71.9062 63.5706 68.2925 63.5706C68.1862 63.5706 68.0799 63.5759 67.9736 63.5674C67.4749 63.529 67.1496 63.2086 67.1539 62.7669C67.1581 62.3251 67.4898 62.0005 67.9906 61.9919C68.7337 61.9781 69.4769 61.9888 70.2626 61.9888V60.4038C69.5343 60.4038 68.8305 60.4069 68.1277 60.4038C67.5058 60.3995 67.1432 60.0993 67.1539 59.6075C67.1645 59.1306 67.5079 58.8422 68.1075 58.8337C68.8135 58.8241 69.5205 58.8315 70.2657 58.8315V57.2678C69.5035 57.2678 68.7592 57.3125 68.0257 57.2455C67.7439 57.2199 67.3856 56.9932 67.2474 56.7526C67.1411 56.5663 67.2527 56.1672 67.3984 55.9521C67.5068 55.7925 67.8237 55.7169 68.0512 55.7073C68.7741 55.6775 69.4992 55.6967 70.2636 55.6967V54.1127C69.5343 54.1127 68.7986 54.1393 68.0661 54.0978C67.8109 54.084 67.5015 53.9637 67.3272 53.7849C66.9689 53.4155 67.1539 52.8002 67.645 52.6107C67.8045 52.549 67.9895 52.533 68.1628 52.533C71.8828 52.5288 75.6028 52.5298 79.3228 52.5309C79.427 52.5309 79.5312 52.5405 79.7034 52.549L79.7045 52.5458Z" fill="#fff"/>
<path d="M68.0118 40.5439C68.3606 40.9399 68.6827 41.339 69.0389 41.7031C69.8564 42.5398 70.6868 43.3637 71.5192 44.1833C71.9764 44.6336 72.3591 44.6442 72.8078 44.2014C73.8677 43.1561 74.9181 42.1023 75.9632 41.0431C76.4289 40.5716 76.4193 40.1979 75.9409 39.7125C74.8958 38.6534 73.8443 37.5995 72.7886 36.551C72.6653 36.4286 72.4963 36.3509 72.3931 36.1732C73.1862 35.9443 73.9305 35.9454 74.6513 36.1582C76.869 36.8118 78.299 38.267 78.6924 40.5535C79.0772 42.7878 78.2884 44.6453 76.4491 45.9876C75.976 46.3325 75.774 46.6901 75.7878 47.2628C75.8176 48.4646 75.7974 49.6675 75.7974 50.9108H71.0844C71.0844 50.1497 71.0312 49.3716 71.0961 48.603C71.2013 47.3661 70.9738 46.4698 69.7863 45.681C68.216 44.6368 67.6823 42.8996 67.8024 41.0069C67.8077 40.9196 67.829 40.8324 67.8513 40.7472C67.8598 40.7163 67.8928 40.6918 68.0097 40.5439H68.0118Z" fill="#fff"/>
<path d="M75.1935 79.8985C72.0508 80.5553 68.9155 78.0772 68.7475 74.9402C68.6508 73.1274 69.2557 71.5978 70.6102 70.3906C70.96 70.0788 71.1024 69.7445 71.0939 69.2804C71.0706 68.0935 71.0865 66.9056 71.0865 65.7176V65.1779H75.7995C75.7995 66.2115 75.8271 67.2174 75.7899 68.2202C75.7644 68.8865 75.976 69.2804 76.6203 69.5742C78.8167 70.5769 80.0777 73.0454 79.629 75.4181C79.478 75.2862 79.3494 75.185 79.2346 75.0701C78.1799 74.0194 77.1295 72.9656 76.0749 71.916C75.5369 71.3806 75.1605 71.3785 74.6321 71.9054C73.6158 72.9188 72.6004 73.9332 71.5904 74.9519C71.1014 75.4448 71.0961 75.8301 71.5841 76.3187C72.7599 77.4949 73.9453 78.6627 75.1924 79.8996L75.1935 79.8985Z" fill="#fff"/>
<path d="M81.3301 63.5706V52.5267C82.4283 52.5267 83.5064 52.5767 84.5759 52.5086C85.2755 52.4638 85.6008 52.7161 85.857 53.3506C87.1817 56.6334 87.1456 59.8726 85.6901 63.1033C85.5264 63.4673 85.3222 63.5876 84.9299 63.5791C83.7466 63.5525 82.5623 63.5706 81.3301 63.5706Z" fill="#fff"/>
<path d="M69.4747 47.6769V50.9523C69.0633 50.9523 68.6774 50.9629 68.2936 50.9502C67.2602 50.9161 66.4001 51.2376 65.8802 52.1818C65.3624 53.1228 65.5177 54.0254 66.1502 54.893C65.4507 55.8627 65.3507 56.8601 66.0397 57.8916C66.0939 57.9736 66.0663 58.1652 66.0046 58.261C65.3635 59.2701 65.4571 60.2377 66.1385 61.1787C65.3911 62.5018 65.4113 63.4843 66.1885 64.3604C67.0826 65.3695 68.2925 65.1002 69.462 65.1588V68.3852C66.533 67.5496 63.4413 62.7605 63.2319 58.7336C62.9416 53.1621 66.3969 49.1363 69.4747 47.6769Z" fill="#fff"/>
<path d="M77.3709 65.1758H84.3877C84.2612 65.3525 84.1751 65.4951 84.0688 65.6207C82.7792 67.1504 81.211 68.2915 79.3494 69.0324C79.0421 69.1548 78.7891 69.208 78.5499 68.9259C78.4829 68.8472 78.3925 68.7695 78.2969 68.7365C77.3815 68.4214 77.2879 67.7156 77.3613 66.8864C77.4102 66.3297 77.3709 65.7655 77.3709 65.1758Z" fill="#fff"/>
<path d="M84.4387 50.947C83.18 50.947 82.0509 50.9523 80.9229 50.9385C80.7985 50.9374 80.6603 50.8416 80.555 50.7575C79.5833 49.9868 78.6169 49.2108 77.6505 48.4338C77.39 48.2241 77.2103 47.5034 77.4346 47.2969C77.7281 47.0255 77.946 46.5741 78.5254 46.7668C80.875 47.546 82.8227 48.8808 84.4409 50.947H84.4387Z" fill="#fff"/>
<path d="M73.2607 75.597C73.9305 74.9253 74.6396 74.2142 75.3073 73.5436C76.0929 74.3324 76.8967 75.1382 77.6909 75.9355C77.6122 75.9536 77.4633 75.9972 77.3124 76.0228C76.8371 76.1015 76.6032 76.3826 76.6022 76.8605C76.6011 77.5609 76.6022 78.2603 76.6022 78.9213C75.4816 77.8068 74.3727 76.704 73.2617 75.598L73.2607 75.597Z" fill="#fff"/>
<path d="M73.5211 39.5252C73.7667 39.7775 74.0474 40.0659 74.2898 40.315C73.5679 41.0282 72.846 41.7425 72.1699 42.411C71.6266 41.8638 70.9887 41.2198 70.3593 40.5843C71.2492 40.034 72.6228 40.5066 73.5201 39.5241L73.5211 39.5252Z" fill="#fff"/>
<path d="M77.391 50.8948V50.2966C77.5463 50.3998 77.6707 50.4765 77.7865 50.5627C77.8971 50.6457 77.9992 50.7405 78.1799 50.8948H77.391Z" fill="#fff"/>
</svg>
