<svg width="150" height="150" viewBox="0 0 150 150" fill="none" xmlns="http://www.w3.org/2000/svg">
<path d="M134 1H16C7.71573 1 1 7.71573 1 16V134C1 142.284 7.71573 149 16 149H134C142.284 149 149 142.284 149 134V16C149 7.71573 142.284 1 134 1Z" fill="#B50903" stroke="#043371" stroke-width="2"/>
<path d="M32.2188 123L29.8828 114.773H29.8125C29.8333 114.987 29.8542 115.276 29.875 115.641C29.901 116.005 29.9245 116.398 29.9453 116.82C29.9661 117.242 29.9766 117.648 29.9766 118.039V123H27.2422V111.578H31.3516L33.7344 119.688H33.7969L36.1328 111.578H40.25V123H37.4141V117.992C37.4141 117.633 37.4193 117.247 37.4297 116.836C37.4453 116.419 37.4609 116.029 37.4766 115.664C37.4974 115.294 37.5156 115.003 37.5312 114.789H37.4609L35.1562 123H32.2188ZM42.7109 123V111.578H45.8125V123H42.7109ZM59.1641 123H55.1172L50.9453 114.953H50.875C50.901 115.198 50.9245 115.492 50.9453 115.836C50.9661 116.18 50.9844 116.531 51 116.891C51.0156 117.245 51.0234 117.565 51.0234 117.852V123H48.2891V111.578H52.3203L56.4766 119.516H56.5234C56.5078 119.266 56.4922 118.977 56.4766 118.648C56.4609 118.315 56.4453 117.979 56.4297 117.641C56.4193 117.302 56.4141 117.003 56.4141 116.742V111.578H59.1641V123ZM61.6328 123V111.578H64.7344V123H61.6328ZM66.3125 119.93V117.492H70.7266V119.93H66.3125ZM79.7734 119.531C79.7734 120.151 79.6172 120.74 79.3047 121.297C78.9922 121.849 78.5052 122.297 77.8438 122.641C77.1875 122.984 76.3385 123.156 75.2969 123.156C74.776 123.156 74.3177 123.133 73.9219 123.086C73.5312 123.039 73.1667 122.964 72.8281 122.859C72.4896 122.75 72.138 122.609 71.7734 122.438V119.688C72.3932 120 73.0182 120.24 73.6484 120.406C74.2786 120.568 74.849 120.648 75.3594 120.648C75.6667 120.648 75.9167 120.612 76.1094 120.539C76.3073 120.466 76.4531 120.367 76.5469 120.242C76.6406 120.112 76.6875 119.964 76.6875 119.797C76.6875 119.599 76.6172 119.432 76.4766 119.297C76.3411 119.156 76.1224 119.01 75.8203 118.859C75.5182 118.708 75.1198 118.521 74.625 118.297C74.2031 118.099 73.8203 117.896 73.4766 117.688C73.138 117.479 72.8464 117.242 72.6016 116.977C72.362 116.706 72.1771 116.391 72.0469 116.031C71.9167 115.672 71.8516 115.247 71.8516 114.758C71.8516 114.023 72.0312 113.409 72.3906 112.914C72.7552 112.414 73.2604 112.039 73.9062 111.789C74.5573 111.539 75.3073 111.414 76.1562 111.414C76.901 111.414 77.5703 111.497 78.1641 111.664C78.763 111.831 79.2995 112.021 79.7734 112.234L78.8281 114.617C78.3385 114.393 77.8568 114.216 77.3828 114.086C76.9089 113.951 76.4688 113.883 76.0625 113.883C75.7969 113.883 75.5781 113.917 75.4062 113.984C75.2396 114.047 75.1146 114.133 75.0312 114.242C74.9531 114.352 74.9141 114.477 74.9141 114.617C74.9141 114.794 74.9818 114.953 75.1172 115.094C75.2578 115.234 75.4896 115.388 75.8125 115.555C76.1406 115.716 76.5859 115.927 77.1484 116.188C77.7057 116.438 78.1797 116.708 78.5703 117C78.9609 117.286 79.2578 117.633 79.4609 118.039C79.6693 118.44 79.7734 118.938 79.7734 119.531ZM85.4922 111.578C86.9401 111.578 88.0234 111.893 88.7422 112.523C89.4661 113.154 89.8281 114.049 89.8281 115.211C89.8281 115.732 89.7526 116.232 89.6016 116.711C89.4557 117.19 89.2135 117.617 88.875 117.992C88.5417 118.367 88.0964 118.664 87.5391 118.883C86.987 119.102 86.3047 119.211 85.4922 119.211H84.625V123H81.5391V111.578H85.4922ZM85.4219 114.07H84.625V116.695H85.2344C85.5 116.695 85.7474 116.651 85.9766 116.562C86.2057 116.469 86.388 116.32 86.5234 116.117C86.6641 115.909 86.7344 115.633 86.7344 115.289C86.7344 114.93 86.6276 114.638 86.4141 114.414C86.2005 114.185 85.8698 114.07 85.4219 114.07ZM91.6484 123V111.578H94.7344V120.508H99.1328V123H91.6484ZM100.961 123V111.578H104.062V123H100.961ZM111.578 123H108.492V114.102H105.703V111.578H114.359V114.102H111.578V123ZM123.461 119.531C123.461 120.151 123.305 120.74 122.992 121.297C122.68 121.849 122.193 122.297 121.531 122.641C120.875 122.984 120.026 123.156 118.984 123.156C118.464 123.156 118.005 123.133 117.609 123.086C117.219 123.039 116.854 122.964 116.516 122.859C116.177 122.75 115.826 122.609 115.461 122.438V119.688C116.081 120 116.706 120.24 117.336 120.406C117.966 120.568 118.536 120.648 119.047 120.648C119.354 120.648 119.604 120.612 119.797 120.539C119.995 120.466 120.141 120.367 120.234 120.242C120.328 120.112 120.375 119.964 120.375 119.797C120.375 119.599 120.305 119.432 120.164 119.297C120.029 119.156 119.81 119.01 119.508 118.859C119.206 118.708 118.807 118.521 118.312 118.297C117.891 118.099 117.508 117.896 117.164 117.688C116.826 117.479 116.534 117.242 116.289 116.977C116.049 116.706 115.865 116.391 115.734 116.031C115.604 115.672 115.539 115.247 115.539 114.758C115.539 114.023 115.719 113.409 116.078 112.914C116.443 112.414 116.948 112.039 117.594 111.789C118.245 111.539 118.995 111.414 119.844 111.414C120.589 111.414 121.258 111.497 121.852 111.664C122.451 111.831 122.987 112.021 123.461 112.234L122.516 114.617C122.026 114.393 121.544 114.216 121.07 114.086C120.596 113.951 120.156 113.883 119.75 113.883C119.484 113.883 119.266 113.917 119.094 113.984C118.927 114.047 118.802 114.133 118.719 114.242C118.641 114.352 118.602 114.477 118.602 114.617C118.602 114.794 118.669 114.953 118.805 115.094C118.945 115.234 119.177 115.388 119.5 115.555C119.828 115.716 120.273 115.927 120.836 116.188C121.393 116.438 121.867 116.708 122.258 117C122.648 117.286 122.945 117.633 123.148 118.039C123.357 118.44 123.461 118.938 123.461 119.531Z" fill="#fff"/>
<path d="M52.4375 64.8904H54.7195C54.7195 64.8904 54.9967 63.7014 55.3407 62.2344C55.6832 60.7681 58.3967 59.5784 61.3989 59.5784H91.3035C94.3067 59.5784 96.9087 60.7681 97.1157 62.2344L97.4896 64.8904H99.5626C102.565 64.8904 105 62.4709 105 59.4877V49.4029C105 46.912 103.295 44.8363 100.987 44.2105C101.117 44.7208 101.194 45.2515 101.194 45.8002V47.9613C101.194 51.5369 98.2671 54.4445 94.6689 54.4445H57.3308C53.7324 54.4445 50.8062 51.5369 50.8062 47.9613V45.8002C50.8062 45.2515 50.8819 44.7208 51.0128 44.2105C48.705 44.8361 47 46.912 47 49.4029V59.4877C47 62.4718 49.4345 64.8904 52.4375 64.8904Z" fill="#fff"/>
<path d="M57.3308 52.2846H94.6658C97.0659 52.2846 99.0155 50.346 99.0155 47.9622V45.8014C99.0155 45.1561 98.8647 44.5499 98.6078 44H53.3888C53.1328 44.5499 52.9811 45.1558 52.9811 45.8014V47.9624C52.9811 50.346 54.933 52.2846 57.3308 52.2846ZM55.173 45.9135H96.2247C96.5253 45.9135 96.7685 46.1557 96.7685 46.4539C96.7685 46.7521 96.5255 46.9943 96.2247 46.9943H55.173C54.8731 46.9943 54.6292 46.7521 54.6292 46.4539C54.6292 46.1557 54.872 45.9135 55.173 45.9135ZM55.173 49.2906H96.2247C96.5253 49.2906 96.7685 49.5327 96.7685 49.8307C96.7685 50.1289 96.5255 50.3711 96.2247 50.3711H55.173C54.8731 50.3711 54.6292 50.1289 54.6292 49.8307C54.6292 49.5325 54.872 49.2906 55.173 49.2906Z" fill="#fff"/>
<path d="M95.426 62.9098C95.2669 61.8161 92.7032 60.9291 89.6989 60.9291H62.695C59.693 60.9291 57.0949 61.8159 56.8956 62.9098C56.6955 64.0041 56.5335 64.8904 56.5335 64.8904H95.715L95.426 62.9098Z" fill="#fff"/>
<path d="M60.1702 81.7361C60.3756 81.9134 60.6289 82 60.8812 82C61.1859 82 61.4892 81.8732 61.7038 81.6276C61.8722 81.4334 65.7946 76.8537 62.8204 73.135C61.1707 71.0709 62.3896 69.8719 62.6552 69.6483C63.116 69.275 63.1908 68.6014 62.8192 68.1373C62.4449 67.6708 61.7609 67.5937 61.291 67.9652C60.1517 68.8673 58.6479 71.3895 61.1174 74.4792C62.969 76.7942 60.0873 80.1797 60.0591 80.2122C59.6677 80.6622 59.7167 81.3448 60.1702 81.7361Z" fill="#fff"/>
<path d="M69.6855 81.7361C69.891 81.9134 70.1442 82 70.3966 82C70.7015 82 71.0046 81.8732 71.2191 81.6276C71.3875 81.4334 75.31 76.8537 72.3359 73.135C70.6862 71.0709 71.9052 69.8719 72.1707 69.6483C72.6317 69.275 72.7066 68.6014 72.3348 68.1373C71.9605 67.6708 71.2767 67.5937 70.8066 67.9652C69.667 68.8673 68.1634 71.3895 70.633 74.4792C72.4845 76.7942 69.6029 80.1797 69.5747 80.2122C69.1831 80.6622 69.232 81.3448 69.6855 81.7361Z" fill="#fff"/>
<path d="M79.2015 81.7361C79.4063 81.9134 79.6602 82 79.9119 82C80.2166 82 80.5203 81.8732 80.7349 81.6276C80.9026 81.4334 84.8257 76.8537 81.851 73.135C80.2018 71.0709 81.4207 69.8719 81.6863 69.6483C82.1471 69.275 82.2215 68.6014 81.8499 68.1373C81.4758 67.6708 80.7922 67.5937 80.3217 67.9652C79.1821 68.8673 77.6783 71.3895 80.1485 74.4792C81.9994 76.7942 79.1184 80.1797 79.0897 80.2122C78.6979 80.6622 78.7468 81.3448 79.2015 81.7361Z" fill="#fff"/>
<path d="M88.7165 81.7361C88.9216 81.9134 89.1755 82 89.4272 82C89.7319 82 90.0356 81.8732 90.25 81.6276C90.4177 81.4334 94.3408 76.8537 91.3661 73.135C89.7168 71.0709 90.936 69.8719 91.2014 69.6483C91.6624 69.275 91.7368 68.6014 91.365 68.1373C90.9911 67.6708 90.3073 67.5937 89.8368 67.9652C88.6972 68.8673 87.1936 71.3895 89.6636 74.4792C91.5147 76.7942 88.6337 80.1797 88.6048 80.2122C88.2132 80.6622 88.2621 81.3448 88.7165 81.7361Z" fill="#fff"/>
</svg>
