<?xml version="1.0" encoding="utf-8"?>
<!-- Generator: Adobe Illustrator 16.0.0, SVG Export Plug-In . SVG Version: 6.00 Build 0)  -->
<!DOCTYPE svg PUBLIC "-//W3C//DTD SVG 1.1//EN" "http://www.w3.org/Graphics/SVG/1.1/DTD/svg11.dtd">
<svg version="1.1" id="Layer_1" xmlns="http://www.w3.org/2000/svg" xmlns:xlink="http://www.w3.org/1999/xlink" x="0px" y="0px"
	 width="512px" height="512px" viewBox="0 0 512 512" enable-background="new 0 0 512 512" xml:space="preserve">
<g id="_x32__portfolio_x2C__case_x2C__business_x2C__job_x2C__work_x2C__employee">
	<g>
		<g>
			<path fill="#5C9EFF" d="M228.019,355.385h55.961V299.58v-1.516h23.984c85.066-5.121,141.824-22.062,172.523-34.055l19.908-8.623
				V451.32c0,17.589-14.396,31.978-31.979,31.978H44.707c-17.59,0-31.979-14.389-31.979-31.978V256.679l6.796,2.374
				c26.221,11.594,86.738,33.094,184.511,39.012h23.984v1.516V355.385z"/>
		</g>
	</g>
	<g>
		<g>
			<path fill="#5C9EFF" d="M283.98,275.439h-55.961v22.625h-23.984c-97.773-5.918-158.291-27.418-184.511-39.012
				c-10.313-4.56-15.353-7.597-15.353-7.597V139.532c0-21.985,17.987-39.973,39.973-39.973h423.711
				c21.984,0,39.973,17.987,39.973,39.973v111.924c0,0-8.947,5.438-27.34,12.554c-30.699,11.992-87.457,28.934-172.523,34.055
				H283.98V275.439z"/>
		</g>
	</g>
	<g>
		<g>
			<g>
				<path fill="#2287FF" d="M283.98,314.054h23.984c85.066-5.121,141.824-22.062,172.523-34.055
					c8.799-3.403,15.379-6.401,19.908-8.635v-15.978l-0.125,0.055c-4.529,2.218-11.055,5.191-19.783,8.568
					c-30.699,11.992-87.457,28.934-172.523,34.055H283.98v1.516V314.054z"/>
			</g>
		</g>
		<g>
			<g>
				<path fill="#2287FF" d="M12.728,271.911c1.932,0.929,4.196,1.982,6.796,3.13c26.221,11.594,86.738,33.096,184.511,39.013h23.984
					V299.58v-1.516h-23.984c-97.773-5.918-158.291-27.418-184.511-39.012l-6.796-2.374V271.911z"/>
			</g>
		</g>
	</g>
	<g>
		<g>
			<g>
				<path fill="#94C1FF" d="M20.161,248.005V136.082c0-21.985,17.987-39.973,39.973-39.973H44.144
					c-21.985,0-39.973,17.988-39.973,39.973v111.924c0,0,5.04,3.037,15.353,7.596L20.161,248.005z"/>
			</g>
		</g>
		<g>
			<g>
				<path fill="#94C1FF" d="M28.717,447.869v-172.43c-3.393-1.358-6.52-2.67-9.193-3.849c-2.6-1.147-4.864-2.202-6.796-3.131
					v179.409c0,17.59,14.389,31.979,31.979,31.979h15.989C43.106,479.848,28.717,465.459,28.717,447.869z"/>
			</g>
		</g>
	</g>
	<g>
		<g>
			<g>
				<path fill="#2287FF" d="M493.838,248.005V136.082c0-21.985-17.988-39.973-39.973-39.973h15.988
					c21.986,0,39.973,17.988,39.973,39.973v111.924c0,0-5.043,3.037-15.348,7.596L493.838,248.005z"/>
			</g>
		</g>
		<g>
			<g>
				<path fill="#2287FF" d="M485.281,447.869v-172.43c3.389-1.358,6.52-2.67,9.197-3.849c2.592-1.147,4.855-2.202,6.791-3.131
					v179.409c0,17.59-14.389,31.979-31.977,31.979h-15.99C470.893,479.848,485.281,465.459,485.281,447.869z"/>
			</g>
		</g>
	</g>
	<g>
		<g>
			<path fill="#94C1FF" d="M331.932,67.581H180.04V51.592c0,0,15.544-15.989,75.948-15.989c60.409,0,75.944,15.989,75.944,15.989
				V67.581z"/>
		</g>
	</g>
	<g>
		<g>
			<path fill="#5C9EFF" d="M255.988,32.152c-60.404,0-75.948,15.989-75.948,15.989v7.994c0,0,15.544-15.989,75.948-15.989
				c60.409,0,75.944,15.989,75.944,15.989v-7.994C331.932,48.142,316.396,32.152,255.988,32.152z"/>
		</g>
	</g>
	<g>
		<g>
			<g>
				<g>
					<path fill="#116FFF" d="M454.451,467.855h-15.99c-2.209,0-3.996-1.788-3.996-3.997c0-2.21,1.787-3.997,3.996-3.997h15.99
						c2.209,0,3.996,1.787,3.996,3.997C458.447,466.067,456.66,467.855,454.451,467.855z M422.473,467.855h-15.988
						c-2.211,0-3.998-1.788-3.998-3.997c0-2.21,1.787-3.997,3.998-3.997h15.988c2.209,0,3.998,1.787,3.998,3.997
						C426.471,466.067,424.682,467.855,422.473,467.855z M390.494,467.855h-15.988c-2.211,0-3.998-1.788-3.998-3.997
						c0-2.21,1.787-3.997,3.998-3.997h15.988c2.209,0,3.998,1.787,3.998,3.997C394.492,466.067,392.703,467.855,390.494,467.855z
						 M358.516,467.855h-15.988c-2.209,0-3.998-1.788-3.998-3.997c0-2.21,1.789-3.997,3.998-3.997h15.988
						c2.209,0,3.998,1.787,3.998,3.997C362.514,466.067,360.725,467.855,358.516,467.855z M326.537,467.855h-15.988
						c-2.209,0-3.998-1.788-3.998-3.997c0-2.21,1.789-3.997,3.998-3.997h15.988c2.211,0,3.998,1.787,3.998,3.997
						C330.535,466.067,328.748,467.855,326.537,467.855z M294.561,467.855h-15.99c-2.209,0-3.998-1.788-3.998-3.997
						c0-2.21,1.789-3.997,3.998-3.997h15.99c2.209,0,3.996,1.787,3.996,3.997C298.557,466.067,296.77,467.855,294.561,467.855z
						 M262.582,467.855h-15.99c-2.209,0-3.997-1.788-3.997-3.997c0-2.21,1.788-3.997,3.997-3.997h15.99
						c2.209,0,3.996,1.787,3.996,3.997C266.578,466.067,264.791,467.855,262.582,467.855z M230.603,467.855h-15.989
						c-2.209,0-3.997-1.788-3.997-3.997c0-2.21,1.788-3.997,3.997-3.997h15.989c2.209,0,3.997,1.787,3.997,3.997
						C234.6,466.067,232.812,467.855,230.603,467.855z M198.625,467.855h-15.989c-2.209,0-3.998-1.788-3.998-3.997
						c0-2.21,1.788-3.997,3.998-3.997h15.989c2.21,0,3.998,1.787,3.998,3.997C202.622,466.067,200.834,467.855,198.625,467.855z
						 M166.646,467.855h-15.989c-2.21,0-3.998-1.788-3.998-3.997c0-2.21,1.788-3.997,3.998-3.997h15.989
						c2.209,0,3.998,1.787,3.998,3.997C170.644,466.067,168.856,467.855,166.646,467.855z M134.668,467.855h-15.989
						c-2.209,0-3.997-1.788-3.997-3.997c0-2.21,1.788-3.997,3.997-3.997h15.989c2.209,0,3.997,1.787,3.997,3.997
						C138.666,466.067,136.877,467.855,134.668,467.855z M102.69,467.855H86.701c-2.209,0-3.997-1.788-3.997-3.997
						c0-2.21,1.788-3.997,3.997-3.997h15.989c2.21,0,3.998,1.787,3.998,3.997C106.688,466.067,104.9,467.855,102.69,467.855z
						 M70.712,467.855H54.723c-2.21,0-3.998-1.788-3.998-3.997c0-2.21,1.788-3.997,3.998-3.997h15.989
						c2.209,0,3.998,1.787,3.998,3.997C74.709,466.067,72.921,467.855,70.712,467.855z M470.15,465.779
						c-1.529,0-2.99-0.883-3.652-2.366c-0.906-2.015,0-4.38,2.014-5.285c4.059-1.827,7.463-5.005,9.557-8.955
						c1.037-1.96,3.465-2.686,5.402-1.663c1.951,1.039,2.701,3.459,1.662,5.41c-2.928,5.521-7.674,9.955-13.357,12.5
						C471.244,465.662,470.697,465.779,470.15,465.779z M39.518,463.905c-0.753,0-1.519-0.219-2.197-0.664
						c-5.223-3.442-9.193-8.596-11.18-14.497c-0.703-2.093,0.421-4.357,2.518-5.06c2.088-0.687,4.356,0.43,5.062,2.514
						c1.417,4.216,4.259,7.901,8.003,10.368c1.842,1.218,2.35,3.701,1.136,5.543C42.091,463.265,40.818,463.905,39.518,463.905z
						 M484.375,439.516c-2.201,0-3.996-1.796-3.996-3.997v-15.989c0-2.218,1.795-3.998,3.996-3.998c2.219,0,3.998,1.78,3.998,3.998
						v15.989C488.373,437.72,486.594,439.516,484.375,439.516z M28.69,435.619c-2.21,0-3.998-1.787-3.998-3.997v-15.989
						c0-2.209,1.788-3.997,3.998-3.997c2.209,0,3.997,1.788,3.997,3.997v15.989C32.687,433.832,30.899,435.619,28.69,435.619z
						 M484.375,407.537c-2.201,0-3.996-1.795-3.996-3.997v-15.989c0-2.217,1.795-3.997,3.996-3.997c2.219,0,3.998,1.78,3.998,3.997
						v15.989C488.373,405.742,486.594,407.537,484.375,407.537z M28.69,403.642c-2.21,0-3.998-1.788-3.998-3.997v-15.989
						c0-2.21,1.788-3.997,3.998-3.997c2.209,0,3.997,1.787,3.997,3.997v15.989C32.687,401.854,30.899,403.642,28.69,403.642z
						 M484.375,375.559c-2.201,0-3.996-1.795-3.996-3.997v-15.989c0-2.217,1.795-3.997,3.996-3.997c2.219,0,3.998,1.78,3.998,3.997
						v15.989C488.373,373.764,486.594,375.559,484.375,375.559z M28.69,371.663c-2.21,0-3.998-1.788-3.998-3.997v-15.989
						c0-2.209,1.788-3.997,3.998-3.997c2.209,0,3.997,1.788,3.997,3.997v15.989C32.687,369.875,30.899,371.663,28.69,371.663z
						 M484.375,343.581c-2.201,0-3.996-1.796-3.996-3.997v-15.989c0-2.218,1.795-3.997,3.996-3.997c2.219,0,3.998,1.779,3.998,3.997
						v15.989C488.373,341.785,486.594,343.581,484.375,343.581z M28.69,339.686c-2.21,0-3.998-1.788-3.998-3.998v-15.988
						c0-2.21,1.788-3.998,3.998-3.998c2.209,0,3.997,1.788,3.997,3.998v15.988C32.687,337.897,30.899,339.686,28.69,339.686z
						 M484.375,311.603c-2.201,0-3.996-1.796-3.996-3.997v-15.989c0-2.218,1.795-3.997,3.996-3.997c2.219,0,3.998,1.779,3.998,3.997
						v15.989C488.373,309.807,486.594,311.603,484.375,311.603z M28.69,307.707c-2.21,0-3.998-1.788-3.998-3.998v-15.988
						c0-2.21,1.788-3.998,3.998-3.998c2.209,0,3.997,1.788,3.997,3.998v15.988C32.687,305.919,30.899,307.707,28.69,307.707z"/>
				</g>
			</g>
		</g>
	</g>
	<g>
		<g>
			<g>
				<g>
					<path fill="#116FFF" d="M20.149,236.014c-2.21,0-3.998-1.788-3.998-3.998v-7.995c0-2.209,1.788-3.997,3.998-3.997
						c2.209,0,3.997,1.788,3.997,3.997v7.995C24.146,234.226,22.358,236.014,20.149,236.014z"/>
				</g>
			</g>
			<g>
				<g>
					<path fill="#116FFF" d="M20.149,210.429c-2.21,0-3.998-1.788-3.998-3.998v-17.589c0-2.21,1.788-3.998,3.998-3.998
						c2.209,0,3.997,1.788,3.997,3.998v17.589C24.146,208.642,22.358,210.429,20.149,210.429z M20.149,175.254
						c-2.21,0-3.998-1.788-3.998-3.997v-17.59c0-2.209,1.788-3.997,3.998-3.997c2.209,0,3.997,1.788,3.997,3.997v17.59
						C24.146,173.466,22.358,175.254,20.149,175.254z"/>
				</g>
			</g>
			<g>
				<g>
					<path fill="#116FFF" d="M20.149,140.079c-2.21,0-3.998-1.788-3.998-3.998v-7.995c0-2.209,1.788-3.997,3.998-3.997
						c2.209,0,3.997,1.788,3.997,3.997v7.995C24.146,138.291,22.358,140.079,20.149,140.079z"/>
				</g>
			</g>
		</g>
	</g>
	<g>
		<g>
			<path fill="#116FFF" d="M491.824,236.014c-2.201,0-3.998-1.788-3.998-3.998v-15.989c0-2.21,1.797-3.998,3.998-3.998
				c2.217,0,3.996,1.788,3.996,3.998v15.989C495.82,234.226,494.041,236.014,491.824,236.014z M491.824,204.035
				c-2.201,0-3.998-1.788-3.998-3.997v-15.989c0-2.209,1.797-3.997,3.998-3.997c2.217,0,3.996,1.788,3.996,3.997v15.989
				C495.82,202.247,494.041,204.035,491.824,204.035z M491.824,172.057c-2.201,0-3.998-1.788-3.998-3.997V152.07
				c0-2.209,1.797-3.997,3.998-3.997c2.217,0,3.996,1.788,3.996,3.997v15.989C495.82,170.269,494.041,172.057,491.824,172.057z
				 M491.824,140.079c-2.201,0-3.998-1.788-3.998-3.998v-7.995c0-2.209,1.797-3.997,3.998-3.997c2.217,0,3.996,1.788,3.996,3.997
				v7.995C495.82,138.291,494.041,140.079,491.824,140.079z"/>
		</g>
	</g>
	<g>
		<g>
			<path fill="#116FFF" d="M275.971,451.866c-2.201,0-3.998-1.788-3.998-3.997V431.88c0-2.209,1.797-3.997,3.998-3.997
				c2.217,0,3.998,1.788,3.998,3.997v15.989C279.969,450.078,278.188,451.866,275.971,451.866z M275.971,419.889
				c-2.201,0-3.998-1.788-3.998-3.998v-15.988c0-2.21,1.797-3.998,3.998-3.998c2.217,0,3.998,1.788,3.998,3.998v15.988
				C279.969,418.101,278.188,419.889,275.971,419.889z M275.971,387.91c-2.201,0-3.998-1.788-3.998-3.998v-15.988
				c0-2.21,1.797-3.998,3.998-3.998c2.217,0,3.998,1.788,3.998,3.998v15.988C279.969,386.122,278.188,387.91,275.971,387.91z"/>
		</g>
	</g>
	<g>
		<g>
			<path fill="#116FFF" d="M236.001,451.866c-2.209,0-3.997-1.788-3.997-3.997V431.88c0-2.209,1.788-3.997,3.997-3.997
				c2.21,0,3.998,1.788,3.998,3.997v15.989C239.999,450.078,238.211,451.866,236.001,451.866z M236.001,419.889
				c-2.209,0-3.997-1.788-3.997-3.998v-15.988c0-2.21,1.788-3.998,3.997-3.998c2.21,0,3.998,1.788,3.998,3.998v15.988
				C239.999,418.101,238.211,419.889,236.001,419.889z M236.001,387.91c-2.209,0-3.997-1.788-3.997-3.998v-15.988
				c0-2.21,1.788-3.998,3.997-3.998c2.21,0,3.998,1.788,3.998,3.998v15.988C239.999,386.122,238.211,387.91,236.001,387.91z"/>
		</g>
	</g>
	<g>
		<g>
			<path fill="#5C9EFF" d="M256,311.962c4.399,0,7.995,3.599,7.995,7.994s-3.596,7.995-7.995,7.995c-4.395,0-7.994-3.6-7.994-7.995
				S251.604,311.962,256,311.962z"/>
		</g>
	</g>
	<g>
		<g>
			<polygon fill="#D7E9FF" points="228.019,271.989 283.98,271.989 283.98,294.614 283.98,296.129 228.019,296.129 228.019,294.614 
							"/>
		</g>
	</g>
	<g>
		<g>
			<path fill="#D7E9FF" d="M283.98,351.935h-55.961v-55.806h55.961V351.935z M256,327.951c4.399,0,7.995-3.6,7.995-7.995
				s-3.596-7.994-7.995-7.994c-4.395,0-7.994,3.599-7.994,7.994S251.604,327.951,256,327.951z"/>
		</g>
	</g>
	<g>
		<g>
			<path fill="#94C1FF" d="M256,232.016c-15.454,0-27.98,12.527-27.98,27.981v11.992h55.961v-11.992
				C283.98,244.543,271.459,232.016,256,232.016z"/>
		</g>
	</g>
	<g>
		<g>
			<path fill="#D7E9FF" d="M259.998,232.418c-1.316-0.187-2.629-0.402-3.999-0.402c-15.454,0-27.98,12.527-27.98,27.981v11.992
				h7.994v-11.992C236.013,245.913,246.452,234.374,259.998,232.418z"/>
		</g>
	</g>
	<g>
		<g>
			<path fill="#5C9EFF" d="M252.002,232.418c1.315-0.187,2.627-0.402,3.997-0.402c15.459,0,27.981,12.527,27.981,27.981v11.992
				h-7.994v-11.992C275.986,245.913,265.549,234.374,252.002,232.418z"/>
		</g>
	</g>
	<g>
		<g>
			<rect x="228.019" y="271.989" fill="#FFFFFF" width="7.982" height="24.14"/>
		</g>
	</g>
	<g>
		<g>
			<rect x="228.019" y="296.129" fill="#FFFFFF" width="7.982" height="55.962"/>
		</g>
	</g>
	<g>
		<g>
			<rect x="275.971" y="271.989" fill="#94C1FF" width="7.986" height="24.14"/>
		</g>
	</g>
	<g>
		<g>
			<rect x="275.971" y="296.129" fill="#94C1FF" width="7.986" height="55.962"/>
		</g>
	</g>
	<g>
		<g>
			<g>
				<path fill="#116FFF" d="M468.418,483.845H44.707c-19.838,0-35.976-16.138-35.976-35.976v-175.88c0-2.21,1.788-3.997,3.997-3.997
					s3.997,1.787,3.997,3.997v175.88c0,15.427,12.554,27.98,27.981,27.98h423.711c15.428,0,27.98-12.554,27.98-27.98v-175.88
					c0-2.21,1.789-3.997,3.998-3.997s3.996,1.787,3.996,3.997v175.88C504.393,467.707,488.256,483.845,468.418,483.845z"/>
			</g>
		</g>
		<g>
			<g>
				<path fill="#116FFF" d="M283.98,355.932h-55.961c-2.21,0-3.998-1.787-3.998-3.997v-79.945c0-2.21,1.788-3.997,3.998-3.997
					h55.961c2.209,0,3.998,1.787,3.998,3.997v79.945C287.979,354.145,286.189,355.932,283.98,355.932z M232.016,347.938h47.968
					v-71.951h-47.968V347.938z"/>
			</g>
		</g>
		<g>
			<g>
				<path fill="#116FFF" d="M256,331.948c-6.612,0-11.991-5.38-11.991-11.992s5.379-11.991,11.991-11.991
					c6.614,0,11.993,5.379,11.993,11.991S262.613,331.948,256,331.948z M256,315.959c-2.205,0-3.997,1.796-3.997,3.997
					c0,2.202,1.792,3.997,3.997,3.997c2.206,0,3.999-1.795,3.999-3.997C259.998,317.755,258.205,315.959,256,315.959z"/>
			</g>
		</g>
		<g>
			<g>
				<path fill="#116FFF" d="M256,339.942c-2.209,0-3.997-1.788-3.997-3.997v-7.994c0-2.21,1.788-3.998,3.997-3.998
					c2.209,0,3.999,1.788,3.999,3.998v7.994C259.998,338.154,258.209,339.942,256,339.942z"/>
			</g>
		</g>
		<g>
			<g>
				<path fill="#116FFF" d="M283.98,300.126h-55.961c-2.21,0-3.998-1.78-3.998-3.997c0-2.202,1.788-3.998,3.998-3.998h55.961
					c2.209,0,3.998,1.796,3.998,3.998C287.979,298.346,286.189,300.126,283.98,300.126z"/>
			</g>
		</g>
		<g>
			<g>
				<path fill="#116FFF" d="M204.039,298.611c-0.082,0-0.164,0-0.246-0.008c-97.656-5.91-158.381-27.192-185.886-39.344
					c-10.422-4.61-15.587-7.702-15.802-7.831c-1.198-0.722-1.932-2.022-1.932-3.423V136.082c0-24.246,19.725-43.97,43.97-43.97
					h423.711c24.25,0,43.971,19.725,43.971,43.97v111.924c0,1.397-0.734,2.689-1.922,3.416c-0.373,0.23-9.461,5.703-27.98,12.862
					c-32.938,12.874-89.828,29.27-173.717,34.32c-2.139,0.156-4.1-1.538-4.232-3.747c-0.133-2.21,1.547-4.099,3.748-4.231
					c82.857-4.989,138.891-21.127,171.312-33.794c13.055-5.047,21.299-9.259,24.797-11.16V136.082
					c0-19.838-16.139-35.976-35.977-35.976H44.144c-19.838,0-35.976,16.137-35.976,35.976v109.585
					c2.292,1.241,6.613,3.466,12.972,6.277c27.013,11.94,86.726,32.849,183.137,38.681c2.202,0.133,3.88,2.021,3.748,4.231
					C207.896,296.972,206.135,298.611,204.039,298.611z"/>
			</g>
		</g>
		<g>
			<g>
				<path fill="#116FFF" d="M267.992,279.983h-23.984c-2.21,0-3.998-1.788-3.998-3.997s1.788-3.997,3.998-3.997h23.984
					c2.209,0,3.996,1.788,3.996,3.997S270.201,279.983,267.992,279.983z"/>
			</g>
		</g>
		<g>
			<g>
				<path fill="#116FFF" d="M283.98,263.994c-2.209,0-3.996-1.787-3.996-3.997c0-13.226-10.76-23.983-23.985-23.983
					s-23.983,10.758-23.983,23.983c0,2.21-1.788,3.997-3.997,3.997c-2.21,0-3.998-1.787-3.998-3.997
					c0-17.633,14.346-31.979,31.978-31.979c17.629,0,31.979,14.346,31.979,31.979C287.979,262.207,286.189,263.994,283.98,263.994z"
					/>
			</g>
		</g>
		<g>
			<g>
				<path fill="#116FFF" d="M387.91,124.09H124.089c-2.209,0-3.997-1.788-3.997-3.998s1.788-3.998,3.997-3.998H387.91
					c2.209,0,3.998,1.788,3.998,3.998S390.119,124.09,387.91,124.09z"/>
			</g>
		</g>
		<g>
			<g>
				<path fill="#116FFF" d="M331.947,68.128H180.051c-2.209,0-3.997-1.788-3.997-3.998V48.142c0-1.039,0.406-2.038,1.128-2.783
					c0.684-0.703,17.395-17.203,78.817-17.203c61.342,0,78.127,16.492,78.805,17.195c0.734,0.745,1.141,1.749,1.141,2.791V64.13
					C335.945,66.34,334.158,68.128,331.947,68.128z M184.049,60.133h143.902V50.042c-4.482-3.197-23.125-13.893-71.952-13.893
					c-48.795,0-67.423,10.657-71.951,13.897V60.133z"/>
			</g>
		</g>
		<g>
			<g>
				<path fill="#116FFF" d="M180.051,84.117c-2.209,0-3.997-1.788-3.997-3.998V64.13c0-2.209,1.788-3.997,3.997-3.997
					c2.21,0,3.998,1.788,3.998,3.997V80.12C184.049,82.329,182.261,84.117,180.051,84.117z"/>
			</g>
		</g>
		<g>
			<g>
				<path fill="#116FFF" d="M196.041,84.117c-2.209,0-3.997-1.788-3.997-3.998V64.13c0-2.209,1.788-3.997,3.997-3.997
					c2.209,0,3.997,1.788,3.997,3.997V80.12C200.038,82.329,198.25,84.117,196.041,84.117z"/>
			</g>
		</g>
		<g>
			<g>
				<path fill="#116FFF" d="M315.959,84.117c-2.209,0-3.998-1.788-3.998-3.998V64.13c0-2.209,1.789-3.997,3.998-3.997
					s3.998,1.788,3.998,3.997V80.12C319.957,82.329,318.168,84.117,315.959,84.117z"/>
			</g>
		</g>
		<g>
			<g>
				<path fill="#116FFF" d="M331.947,84.117c-2.209,0-3.996-1.788-3.996-3.998V64.13c0-2.209,1.787-3.997,3.996-3.997
					c2.211,0,3.998,1.788,3.998,3.997V80.12C335.945,82.329,334.158,84.117,331.947,84.117z"/>
			</g>
		</g>
		<g>
			<g>
				<path fill="#116FFF" d="M256,451.866c-2.209,0-3.997-1.788-3.997-3.997v-79.945c0-2.21,1.788-3.998,3.997-3.998
					c2.209,0,3.999,1.788,3.999,3.998v79.945C259.998,450.078,258.209,451.866,256,451.866z"/>
			</g>
		</g>
	</g>
</g>
</svg>
