<?xml version="1.0" encoding="utf-8"?>
<!-- Generator: Adobe Illustrator 16.0.0, SVG Export Plug-In . SVG Version: 6.00 Build 0)  -->
<!DOCTYPE svg PUBLIC "-//W3C//DTD SVG 1.1//EN" "http://www.w3.org/Graphics/SVG/1.1/DTD/svg11.dtd">
<svg version="1.1" id="Layer_1" xmlns="http://www.w3.org/2000/svg" xmlns:xlink="http://www.w3.org/1999/xlink" x="0px" y="0px"
	 width="512px" height="512px" viewBox="0 0 512 512" enable-background="new 0 0 512 512" xml:space="preserve">

	 <style>
	.primary {
		fill: #3333DB;
	}

	.darker-primary{
		fill: #2525B4;
	}

	.lighter-primary {
		fill: #6666E0;
	}

	.very-light-primary {
		fill: #B3B3F5;
	}

	.double-dark-primary {
		fill: #1A1A7A;
	}

	.white {
		fill: #fff;
	}
</style>


<g id="_x32_0_search_x2C__money_x2C__coin_x2C__business_x2C__job_x2C__work_x2C__office">
	<g>
		<g>
			<path fill="#FFFFFF" d="M313.482,70.542c-67.071-67.157-175.95-67.149-243.029,0c-67.15,67.079-67.158,175.958,0,243.026
				c67.079,67.157,175.958,67.157,243.029,0C380.633,246.5,380.641,137.621,313.482,70.542z M59.101,59.19
				c73.388-73.317,192.354-73.31,265.741-0.008c73.388,73.388,73.388,192.354,0,265.753c-73.387,73.31-192.353,73.294-265.749,0
				C-14.208,251.536-14.216,132.578,59.101,59.19z"/>
		</g>
	</g>
	<g>
		<g>
			<path class="lighter-primary" d="M235.941,264.805c-13.03,7.12-28.066,11.195-43.978,11.195c-15.903,0-30.932-4.075-43.962-11.195
				c-28.621-15.58-47.975-45.887-47.975-80.738v15.981c0.008,34.867,19.354,65.163,47.975,80.745
				c13.03,7.121,28.059,11.196,43.962,11.196c15.911,0,30.94-4.075,43.978-11.196c28.613-15.582,47.968-45.886,47.968-80.745
				v-15.981C283.909,218.918,264.555,249.225,235.941,264.805z"/>
		</g>
	</g>
	<g>
		<g>
			<polygon class="primary" points="187.967,152.088 203.963,140.089 203.963,220.042 187.967,220.034 			"/>
		</g>
	</g>
	<g>
		<g>
			<path class="very-light-primary" d="M187.967,152.088v67.946l15.997,0.008v-79.953L187.967,152.088z M283.909,184.066
				c0,34.852-19.354,65.158-47.968,80.738c-13.03,7.12-28.066,11.195-43.978,11.195c-15.903,0-30.932-4.075-43.962-11.195
				c-28.621-15.58-47.975-45.887-47.975-80.738c0.008-50.763,41.183-91.938,91.938-91.945
				C242.734,92.121,283.909,133.296,283.909,184.066z"/>
		</g>
	</g>
	<g>
		<g>
			<g>
				<path fill="#FFFFFF" d="M163.991,264.805c-28.621-15.58-47.975-45.887-47.975-80.738c0.008-48.069,36.943-87.479,83.958-91.539
					c-2.647-0.227-5.309-0.406-8.01-0.406c-50.755,0.008-91.93,41.183-91.938,91.945c0,34.852,19.354,65.158,47.975,80.738
					c13.03,7.12,28.059,11.195,43.962,11.195c2.701,0,5.34-0.281,7.987-0.5C187.03,274.36,174.804,270.723,163.991,264.805z"/>
			</g>
		</g>
	</g>
	<g>
		<g>
			<g>
				<path class="lighter-primary" d="M219.945,103.316c28.622,15.583,47.975,45.891,47.975,80.742c-0.008,48.069-36.943,87.476-83.958,91.535
					c2.647,0.234,5.309,0.406,8.01,0.406c50.754,0,91.93-41.179,91.938-91.941c0-34.852-19.354-65.159-47.976-80.742
					c-13.03-7.12-28.059-11.195-43.962-11.195c-2.701,0-5.34,0.281-7.987,0.508C196.906,93.761,209.132,97.407,219.945,103.316z"/>
			</g>
		</g>
	</g>
	<g>
		<g>
			<path class="primary" d="M100.026,200.048c0.008,34.867,19.354,65.163,47.975,80.745c13.03,7.121,28.059,11.196,43.962,11.196
				c15.911,0,30.94-4.075,43.978-11.196c28.613-15.582,47.968-45.886,47.968-80.745v-15.981c0-50.771-41.175-91.945-91.945-91.945
				c-50.755,0.008-91.93,41.183-91.938,91.945V200.048z M313.482,70.542c67.158,67.079,67.15,175.958,0,243.026
				c-67.071,67.157-175.95,67.157-243.029,0c-67.158-67.068-67.15-175.947,0-243.026C137.532,3.393,246.411,3.385,313.482,70.542z"
				/>
		</g>
	</g>
	<g>
		<g>
			<g>
				<path class="lighter-primary" d="M102.431,313.568c-67.158-67.068-67.15-175.947,0-243.026c29.472-29.503,67.017-46.023,105.538-49.599
					c-49.154-4.575-99.901,11.945-137.516,49.599c-67.15,67.079-67.158,175.958,0,243.026
					c37.607,37.662,88.354,54.182,137.508,49.606C169.44,359.6,131.903,343.079,102.431,313.568z"/>
			</g>
		</g>
	</g>
	<g>
		<g>
			<path class="lighter-primary" d="M372.888,389.922l16.949-16.941l5.676-5.684l106.404,106.412c7.831,7.838,7.831,20.471-0.008,28.293
				c-7.823,7.761-20.455,7.761-28.294,0L367.212,395.59L372.888,389.922z"/>
		</g>
	</g>
	<g>
		<g>
			<path class="very-light-primary" d="M484.921,490.697L378.517,384.285l-5.629,5.637l-5.676,5.668l106.403,106.412
				c7.839,7.761,20.471,7.761,28.294,0c2.03-2.029,3.505-4.388,4.489-6.886C499.216,497.927,490.745,496.475,484.921,490.697z"/>
		</g>
	</g>
	<g>
		<g>
			<polygon class="very-light-primary" points="333.312,316.457 316.363,333.398 372.888,389.922 389.837,372.98 			"/>
		</g>
	</g>
	<g>
		<g>
			<polygon fill="#FFFFFF" points="322.008,327.762 316.363,333.398 372.888,389.922 378.524,384.285 			"/>
		</g>
	</g>
	<g>
		<g>
			<g>
				<path class="double-dark-primary" d="M191.972,383.91c-51.254,0-99.448-19.939-135.705-56.148c-74.738-74.836-74.738-196.581,0.008-271.397
					C92.523,20.146,140.718,0.207,191.972,0.207s99.448,19.939,135.696,56.149c74.824,74.824,74.824,196.569,0,271.405
					C291.42,363.971,243.233,383.91,191.972,383.91z M191.972,8.202c-49.123,0-95.31,19.112-130.044,53.815
					C-9.704,133.71-9.704,250.389,61.92,322.109c34.742,34.695,80.929,53.807,130.052,53.807s95.31-19.111,130.044-53.807
					c71.701-71.713,71.701-188.399,0-260.101C287.273,27.313,241.095,8.202,191.972,8.202z"/>
			</g>
		</g>
		<g>
			<g>
				<path class="double-dark-primary" d="M191.972,367.938c-46.991,0-91.149-18.301-124.345-51.543c-33.228-33.181-51.536-77.334-51.536-124.318
					c0-46.992,18.3-91.157,51.536-124.361c33.196-33.235,77.361-51.535,124.345-51.535c46.991,0,91.149,18.3,124.337,51.535
					c33.235,33.196,51.535,77.354,51.535,124.337c0,46.992-18.3,91.145-51.535,124.341
					C283.121,349.637,238.955,367.938,191.972,367.938z M191.972,24.175c-44.853,0-87.003,17.472-118.692,49.193
					c-31.729,31.697-49.193,73.849-49.193,118.708c0,44.844,17.473,86.984,49.193,118.666c31.689,31.729,73.84,49.2,118.692,49.2
					s86.995-17.472,118.685-49.2c31.721-31.682,49.193-73.837,49.193-118.689c0-44.844-17.473-86.996-49.193-118.685
					C278.975,41.647,236.824,24.175,191.972,24.175z"/>
			</g>
		</g>
		<g>
			<g>
				<path class="double-dark-primary" d="M372.888,393.92c-1.022,0-2.046-0.391-2.826-1.172l-48.592-48.592c-1.562-1.561-1.562-4.091,0-5.652
					s4.091-1.562,5.652,0l48.592,48.592c1.562,1.562,1.562,4.092,0,5.652C374.934,393.529,373.91,393.92,372.888,393.92z"/>
			</g>
		</g>
		<g>
			<g>
				<path class="double-dark-primary" d="M389.837,376.979c-1.022,0-2.046-0.391-2.826-1.172l-48.592-48.592c-1.562-1.562-1.562-4.091,0-5.652
					s4.091-1.562,5.652,0l48.592,48.592c1.562,1.562,1.562,4.091,0,5.652C391.883,376.588,390.859,376.979,389.837,376.979z"/>
			</g>
		</g>
		<g>
			<g>
				<path class="double-dark-primary" d="M367.212,399.588c-1.022,0-2.046-0.391-2.826-1.172c-1.562-1.561-1.562-4.091,0-5.652l28.301-28.293
					c1.562-1.562,4.091-1.562,5.652,0s1.562,4.091,0,5.652l-28.301,28.293C369.257,399.197,368.234,399.588,367.212,399.588z"/>
			</g>
		</g>
		<g>
			<g>
				<path class="double-dark-primary" d="M501.917,477.706c-1.022,0-2.046-0.39-2.826-1.171L392.687,370.123c-1.562-1.562-1.562-4.091,0-5.652
					s4.091-1.562,5.652,0l106.404,106.412c1.562,1.562,1.562,4.091,0,5.652C503.963,477.316,502.939,477.706,501.917,477.706z"/>
			</g>
		</g>
		<g>
			<g>
				<path class="double-dark-primary" d="M473.615,506c-1.022,0-2.045-0.391-2.826-1.172L364.386,398.416c-1.562-1.561-1.562-4.091,0-5.652
					c1.562-1.561,4.091-1.561,5.652,0l106.403,106.412c1.562,1.562,1.562,4.092,0,5.652C475.661,505.609,474.639,506,473.615,506z"
					/>
			</g>
		</g>
		<g>
			<g>
				<path class="double-dark-primary" d="M487.763,511.793c-6.145,0-12.281-2.312-16.958-6.949c-1.568-1.545-1.584-4.075-0.031-5.652
					c1.547-1.562,4.076-1.577,5.652-0.031c6.27,6.184,16.442,6.184,22.665,0c3.029-3.014,4.7-7.042,4.7-11.305
					s-1.671-8.291-4.7-11.32c-1.562-1.562-1.562-4.091,0-5.652s4.091-1.562,5.652,0c4.544,4.544,7.042,10.57,7.042,16.973
					s-2.506,12.43-7.05,16.973C500.059,509.466,493.906,511.793,487.763,511.793z"/>
			</g>
		</g>
		<g>
			<g>
				<path class="double-dark-primary" d="M191.964,295.986c-16.028,0-31.893-4.044-45.883-11.68c-30.862-16.816-50.044-49.104-50.052-84.259
					c0-2.21,1.788-3.998,3.997-3.998s3.997,1.788,3.997,3.998c0.008,32.228,17.59,61.825,45.891,77.232
					c25.647,14.037,58.468,14.021,84.115,0.016c28.301-15.431,45.883-45.028,45.883-77.248c0-2.21,1.787-3.998,3.997-3.998
					c2.209,0,3.997,1.788,3.997,3.998c0,35.147-19.182,67.442-50.052,84.259C223.864,291.942,207.992,295.986,191.964,295.986z"/>
			</g>
		</g>
		<g>
			<g>
				<path class="double-dark-primary" d="M191.964,279.997c-16.028,0-31.893-4.044-45.883-11.68c-30.87-16.812-50.052-49.095-50.052-84.251
					c0.008-52.894,43.041-95.935,95.935-95.942c52.901,0,95.942,43.041,95.942,95.942c0,35.156-19.182,67.438-50.052,84.251
					C223.856,275.953,207.992,279.997,191.964,279.997z M191.964,96.118c-48.482,0.008-87.933,39.458-87.94,87.948
					c0,32.228,17.582,61.817,45.891,77.229c25.647,14.033,58.476,14.002,84.107,0c28.309-15.411,45.891-45,45.891-77.229
					C279.912,135.568,240.462,96.118,191.964,96.118z"/>
			</g>
		</g>
		<g>
			<g>
				<path class="double-dark-primary" d="M283.909,204.045c-2.21,0-3.997-1.788-3.997-3.997v-15.981c0-2.209,1.787-3.997,3.997-3.997
					c2.209,0,3.997,1.788,3.997,3.997v15.981C287.906,202.257,286.118,204.045,283.909,204.045z"/>
			</g>
		</g>
		<g>
			<g>
				<path class="double-dark-primary" d="M100.026,204.045c-2.209,0-3.997-1.788-3.997-3.997v-15.981c0-2.209,1.788-3.997,3.997-3.997
					s3.997,1.788,3.997,3.997v15.981C104.023,202.257,102.236,204.045,100.026,204.045z"/>
			</g>
		</g>
		<g>
			<g>
				<path class="double-dark-primary" d="M191.964,295.986c-2.209,0-3.997-1.78-3.997-3.997V276c0-2.201,1.788-3.997,3.997-3.997
					s3.997,1.796,3.997,3.997v15.989C195.961,294.206,194.173,295.986,191.964,295.986z"/>
			</g>
		</g>
		<g>
			<g>
				<path class="double-dark-primary" d="M148.001,284.791c-2.209,0-3.997-1.78-3.997-3.998v-15.988c0-2.206,1.788-3.994,3.997-3.994
					s3.998,1.788,3.998,3.994v15.988C151.999,283.011,150.211,284.791,148.001,284.791z"/>
			</g>
		</g>
		<g>
			<g>
				<path class="double-dark-primary" d="M235.941,284.791c-2.209,0-3.997-1.78-3.997-3.998v-15.988c0-2.214,1.788-4.002,3.997-4.002
					c2.21,0,3.998,1.788,3.998,4.002v15.988C239.939,283.011,238.151,284.791,235.941,284.791z"/>
			</g>
		</g>
		<g>
			<g>
				<path class="double-dark-primary" d="M203.963,224.039c-2.209,0-3.997-1.788-3.997-3.997v-79.953c0-2.21,1.788-3.998,3.997-3.998
					s3.998,1.788,3.998,3.998v79.953C207.961,222.251,206.173,224.039,203.963,224.039z"/>
			</g>
		</g>
		<g>
			<g>
				<path class="double-dark-primary" d="M187.967,224.031c-2.21,0-3.998-1.788-3.998-3.997v-67.946c0-2.209,1.788-3.997,3.998-3.997
					c2.209,0,3.997,1.788,3.997,3.997v67.946C191.964,222.243,190.176,224.031,187.967,224.031z"/>
			</g>
		</g>
		<g>
			<g>
				<path class="double-dark-primary" d="M171.985,168.077c-1.21,0-2.413-0.554-3.201-1.601c-1.319-1.764-0.96-4.271,0.804-5.598l31.978-23.991
					c1.757-1.319,4.263-0.96,5.598,0.804c1.32,1.765,0.961,4.271-0.804,5.598l-31.979,23.992
					C173.664,167.819,172.82,168.077,171.985,168.077z"/>
			</g>
		</g>
		<g>
			<g>
				<path class="double-dark-primary" d="M219.953,224.039l-47.967-0.008c-2.209,0-3.997-1.788-3.997-3.997c0-2.209,1.788-3.997,3.997-3.997
					l47.967,0.008c2.209,0,3.998,1.788,3.998,3.997C223.95,222.251,222.162,224.039,219.953,224.039z"/>
			</g>
		</g>
	</g>
</g>
</svg>
