<?xml version="1.0" encoding="utf-8"?>
<!-- Generator: Adobe Illustrator 16.0.0, SVG Export Plug-In . SVG Version: 6.00 Build 0)  -->
<!DOCTYPE svg PUBLIC "-//W3C//DTD SVG 1.1//EN" "http://www.w3.org/Graphics/SVG/1.1/DTD/svg11.dtd">
<svg version="1.1" id="Layer_1" xmlns="http://www.w3.org/2000/svg" xmlns:xlink="http://www.w3.org/1999/xlink" x="0px" y="0px"
	 width="512px" height="512px" viewBox="0 0 512 512" enable-background="new 0 0 512 512" xml:space="preserve">

	 <style>
	.primary {
		fill: #3333DB;
	}

	.darker-primary{
		fill: #2525B4;
	}

	.lighter-primary {
		fill: #6666E0;
	}

	.very-light-primary {
		fill: #B3B3F5;
	}

	.double-dark-primary {
		fill: #1A1A7A;
	}

	.white {
		fill: #fff;
	}
</style>

<g id="_x32_5_check_x2C__list_x2C__tablet_x2C__document_x2C__pen_x2C__work_x2C__office_1_">
	<g>
		<g>
			<polygon class="very-light-primary" points="479.846,395.904 479.846,403.899 487.841,427.883 471.852,451.866 455.862,427.883 
				463.857,403.899 463.857,395.904 			"/>
		</g>
	</g>
	<g>
		<g>
			<polygon fill="#FFFFFF" points="471.852,435.877 459.414,417.227 455.862,427.883 471.852,451.866 487.841,427.883 
				484.288,417.227 			"/>
		</g>
	</g>
	<g>
		<g>
			<polygon class="lighter-primary" points="487.841,347.938 487.841,395.904 479.846,395.904 463.857,395.904 455.862,395.904 
				455.862,347.938 			"/>
		</g>
	</g>
	<g>
		<g>
			<rect x="455.862" y="331.948" class="very-light-primary" width="31.979" height="15.989"/>
		</g>
	</g>
	<g>
		<g>
			<path class="lighter-primary" d="M495.835,132.084l-7.994,199.864h-31.979l-7.995-199.864c0-17.667,6.316-31.978,23.984-31.978h0.796
				C489.684,100.582,495.835,114.658,495.835,132.084z"/>
		</g>
	</g>
	<g>
		<g>
			<path class="very-light-primary" d="M463.857,331.948l-7.995-199.864c0-16.208,5.434-29.448,19.955-31.549
				c-1.046-0.156-2.022-0.398-3.17-0.429h-0.796c-17.668,0-23.984,14.311-23.984,31.978l7.995,199.864v15.989v47.967h7.995v-47.967
				V331.948z"/>
		</g>
	</g>
	<g>
		<g>
			<path class="primary" d="M479.846,331.948l7.995-199.864c0-16.208-5.435-29.448-19.956-31.549c1.047-0.156,2.022-0.398,3.17-0.429
				h0.797c17.668,0,23.983,14.311,23.983,31.978l-7.994,199.864v15.989v47.967h-7.995v-47.967V331.948z"/>
		</g>
	</g>
	<g>
		<g>
			<rect x="463.857" y="395.904" class="lighter-primary" width="15.988" height="7.995"/>
		</g>
	</g>
	<g>
		<g>
			<rect x="16.162" y="4.171" class="lighter-primary" width="391.732" height="503.657"/>
		</g>
	</g>
	<g>
		<g>
			<polygon fill="#FFFFFF" points="343.938,483.845 40.146,483.845 40.146,28.155 383.911,28.155 383.911,443.872 			"/>
		</g>
	</g>
	<g>
		<g>
			<polygon class="very-light-primary" points="289.147,4.171 134.582,4.171 156.067,36.149 267.998,36.149 			"/>
		</g>
	</g>
	<g>
		<g>
			<polygon fill="#FFFFFF" points="134.582,4.171 156.067,36.149 164.062,36.149 142.576,4.171 			"/>
		</g>
	</g>
	<g>
		<g>
			<polygon class="lighter-primary" points="293.395,4.171 271.909,36.149 263.915,36.149 285.4,4.171 			"/>
		</g>
	</g>
	<g>
		<g>
			<rect x="16.162" y="4.171" class="very-light-primary" width="7.995" height="503.657"/>
		</g>
	</g>
	<g>
		<g>
			<rect x="399.9" y="4.171" class="primary" width="7.994" height="503.657"/>
		</g>
	</g>
	<g>
		<g>
			<polygon class="lighter-primary" points="339.941,487.842 387.908,487.842 387.908,439.875 			"/>
		</g>
	</g>
	<g>
		<g>
			<polygon class="lighter-primary" points="267.998,36.149 156.067,36.149 139.953,12.166 134.582,12.166 156.067,44.144 267.998,44.144 
				289.147,12.166 283.854,12.166 			"/>
		</g>
	</g>
	<g>
		<g>
			<path class="very-light-primary" d="M132.083,256c0,13.248-10.735,23.983-23.984,23.983S84.116,269.248,84.116,256
				c0-13.249,10.735-23.984,23.984-23.984S132.083,242.751,132.083,256z"/>
		</g>
	</g>
	<g>
		<g>
			<path class="very-light-primary" d="M132.083,148.073c0,13.249-10.735,23.983-23.984,23.983s-23.984-10.734-23.984-23.983
				S94.851,124.09,108.1,124.09S132.083,134.824,132.083,148.073z"/>
		</g>
	</g>
	<g>
		<g>
			<path class="very-light-primary" d="M132.083,371.921c0,13.249-10.735,23.983-23.984,23.983s-23.984-10.734-23.984-23.983
				s10.735-23.983,23.984-23.983S132.083,358.672,132.083,371.921z"/>
		</g>
	</g>
	<g>
		<g>
			<rect x="455.862" y="331.948" fill="#FFFFFF" width="7.995" height="15.989"/>
		</g>
	</g>
	<g>
		<g>
			<rect x="479.846" y="331.948" class="lighter-primary" width="7.995" height="15.989"/>
		</g>
	</g>
	<g id="_x32_5_check_x2C__list_x2C__tablet_x2C__document_x2C__pen_x2C__work_x2C__office">
		<g>
			<g>
				<path class="double-dark-primary" d="M272.003,40.146H152.07c-1.335,0-2.584-0.671-3.326-1.78l-15.989-23.984
					c-1.226-1.834-0.726-4.317,1.109-5.543c1.819-1.218,4.31-0.733,5.543,1.108l14.802,22.204h115.656L284.65,9.948
					c1.227-1.842,3.725-2.326,5.543-1.108c1.835,1.226,2.335,3.701,1.109,5.543l-15.974,23.984
					C274.587,39.476,273.338,40.146,272.003,40.146z"/>
			</g>
		</g>
		<g>
			<g>
				<path class="double-dark-primary" d="M128.086,32.152h-87.94c-2.21,0-3.998-1.788-3.998-3.997c0-2.21,1.788-3.998,3.998-3.998h87.94
					c2.209,0,3.998,1.788,3.998,3.998C132.083,30.364,130.295,32.152,128.086,32.152z"/>
			</g>
		</g>
		<g>
			<g>
				<path class="double-dark-primary" d="M383.911,32.152h-87.94c-2.209,0-3.997-1.788-3.997-3.997c0-2.21,1.788-3.998,3.997-3.998h87.94
					c2.21,0,3.997,1.788,3.997,3.998C387.908,30.364,386.121,32.152,383.911,32.152z"/>
			</g>
		</g>
		<g>
			<g>
				<path class="double-dark-primary" d="M240.01,24.158h-63.957c-2.209,0-3.997-1.788-3.997-3.998c0-2.209,1.788-3.997,3.997-3.997h63.957
					c2.209,0,3.998,1.788,3.998,3.997C244.007,22.37,242.219,24.158,240.01,24.158z"/>
			</g>
		</g>
		<g>
			<g>
				<g>
					<path class="double-dark-primary" d="M367.922,439.875h-31.979c-2.209,0-3.997-1.788-3.997-3.998c0-2.209,1.788-3.997,3.997-3.997h31.979
						c2.21,0,3.998,1.788,3.998,3.997C371.92,438.087,370.132,439.875,367.922,439.875z"/>
				</g>
			</g>
			<g>
				<g>
					<path class="double-dark-primary" d="M335.943,471.853c-2.209,0-3.997-1.788-3.997-3.997v-31.979c0-2.209,1.788-3.997,3.997-3.997
						c2.21,0,3.998,1.788,3.998,3.997v31.979C339.941,470.064,338.153,471.853,335.943,471.853z"/>
				</g>
			</g>
		</g>
		<g>
			<g>
				<path class="double-dark-primary" d="M40.146,487.842c-2.21,0-3.998-1.787-3.998-3.997V28.155c0-2.21,1.788-3.998,3.998-3.998
					c2.209,0,3.997,1.788,3.997,3.998v455.689C44.143,486.055,42.355,487.842,40.146,487.842z"/>
			</g>
		</g>
		<g>
			<g>
				<path class="double-dark-primary" d="M383.911,447.869c-2.209,0-3.997-1.788-3.997-3.997V28.155c0-2.21,1.788-3.998,3.997-3.998
					c2.21,0,3.997,1.788,3.997,3.998v415.717C387.908,446.081,386.121,447.869,383.911,447.869z"/>
			</g>
		</g>
		<g>
			<g>
				<path class="double-dark-primary" d="M343.938,487.842c-1.022,0-2.046-0.391-2.826-1.171c-1.562-1.562-1.562-4.091,0-5.652l39.973-39.973
					c1.562-1.562,4.091-1.562,5.652,0s1.562,4.091,0,5.652l-39.973,39.973C345.984,487.451,344.961,487.842,343.938,487.842z"/>
			</g>
		</g>
		<g>
			<g>
				<path class="double-dark-primary" d="M343.938,487.842H40.146c-2.21,0-3.998-1.787-3.998-3.997s1.788-3.997,3.998-3.997h303.792
					c2.21,0,3.997,1.787,3.997,3.997S346.148,487.842,343.938,487.842z"/>
			</g>
		</g>
		<g>
			<g>
				<path class="double-dark-primary" d="M407.895,511.826c-2.209,0-3.997-1.788-3.997-3.998V4.171c0-2.209,1.788-3.998,3.997-3.998
					c2.21,0,3.998,1.788,3.998,3.998v503.657C411.893,510.038,410.104,511.826,407.895,511.826z"/>
			</g>
		</g>
		<g>
			<g>
				<path class="double-dark-primary" d="M407.895,511.826H16.162c-2.209,0-3.998-1.788-3.998-3.998c0-2.209,1.788-3.997,3.998-3.997h391.732
					c2.21,0,3.998,1.788,3.998,3.997C411.893,510.038,410.104,511.826,407.895,511.826z"/>
			</g>
		</g>
		<g>
			<g>
				<path class="double-dark-primary" d="M16.162,511.826c-2.209,0-3.998-1.788-3.998-3.998V4.171c0-2.209,1.788-3.998,3.998-3.998
					s3.998,1.788,3.998,3.998v503.657C20.16,510.038,18.372,511.826,16.162,511.826z"/>
			</g>
		</g>
		<g>
			<g>
				<path class="double-dark-primary" d="M407.895,8.168H16.162c-2.209,0-3.998-1.788-3.998-3.997s1.788-3.998,3.998-3.998h391.732
					c2.21,0,3.998,1.788,3.998,3.998S410.104,8.168,407.895,8.168z"/>
			</g>
		</g>
		<g>
			<g>
				<g>
					<path class="double-dark-primary" d="M471.852,455.871c-1.288,0-2.553-0.624-3.326-1.779l-15.989-23.984
						c-0.687-1.022-0.858-2.311-0.468-3.481l7.791-23.367v-7.347c0-2.209,1.788-3.997,3.998-3.997c2.209,0,3.996,1.788,3.996,3.997
						v7.995c0,0.429-0.069,0.858-0.202,1.265l-7.378,22.125l14.904,22.36c1.226,1.835,0.726,4.317-1.109,5.543
						C473.39,455.652,472.616,455.871,471.852,455.871z"/>
				</g>
			</g>
			<g>
				<g>
					<path class="double-dark-primary" d="M471.852,455.871c-0.766,0-1.538-0.219-2.218-0.671c-1.834-1.226-2.334-3.708-1.108-5.543l14.904-22.36
						l-7.378-22.125c-0.133-0.406-0.203-0.836-0.203-1.265v-7.995c0-2.209,1.788-3.997,3.997-3.997c2.21,0,3.998,1.788,3.998,3.997
						v7.347l7.791,23.367c0.391,1.171,0.219,2.459-0.469,3.481l-15.988,23.984C474.404,455.247,473.14,455.871,471.852,455.871z"/>
				</g>
			</g>
			<g>
				<g>
					<path class="double-dark-primary" d="M487.841,335.953h-31.979c-2.21,0-3.997-1.788-3.997-3.997c0-2.21,1.787-3.997,3.997-3.997h31.979
						c2.209,0,3.997,1.787,3.997,3.997C491.838,334.165,490.05,335.953,487.841,335.953z"/>
				</g>
			</g>
			<g>
				<g>
					<path class="double-dark-primary" d="M455.862,335.953c-2.14,0-3.911-1.687-3.997-3.841L443.87,132.24c-0.085-2.201,1.632-4.06,3.842-4.153
						c2.318,0.156,4.067,1.632,4.153,3.841l7.994,199.872c0.086,2.202-1.632,4.06-3.841,4.153
						C455.972,335.953,455.917,335.953,455.862,335.953z"/>
				</g>
			</g>
			<g>
				<g>
					<path class="double-dark-primary" d="M487.841,335.953c-0.055,0-0.102,0-0.156,0c-2.21-0.094-3.927-1.951-3.841-4.153l7.994-199.872
						c0.094-2.209,2.084-3.661,4.153-3.841c2.21,0.094,3.927,1.952,3.841,4.153l-7.994,199.872
						C491.752,334.267,489.979,335.953,487.841,335.953z"/>
				</g>
			</g>
			<g>
				<g>
					<path class="double-dark-primary" d="M495.835,136.082c-2.209,0-3.997-1.788-3.997-3.998c0-18.565-6.723-27.98-19.986-27.98
						c-13.265,0-19.986,9.415-19.986,27.98c0,2.21-1.788,3.998-3.998,3.998c-2.209,0-3.997-1.788-3.997-3.998
						c0-22.859,10.196-35.976,27.981-35.976s27.98,13.116,27.98,35.976C499.832,134.294,498.045,136.082,495.835,136.082z"/>
				</g>
			</g>
			<g>
				<g>
					<path class="double-dark-primary" d="M479.846,104.104h-15.988c-2.21,0-3.998-1.788-3.998-3.998s1.788-3.998,3.998-3.998h15.988
						c2.21,0,3.998,1.788,3.998,3.998S482.056,104.104,479.846,104.104z"/>
				</g>
			</g>
			<g>
				<g>
					<path class="double-dark-primary" d="M471.852,240.011c-2.21,0-3.998-1.788-3.998-3.997V116.095c0-2.209,1.788-3.997,3.998-3.997
						c2.209,0,3.997,1.788,3.997,3.997v119.919C475.849,238.223,474.061,240.011,471.852,240.011z"/>
				</g>
			</g>
			<g>
				<g>
					<path class="double-dark-primary" d="M487.841,351.942h-31.979c-2.21,0-3.997-1.788-3.997-3.997c0-2.21,1.787-3.998,3.997-3.998h31.979
						c2.209,0,3.997,1.788,3.997,3.998C491.838,350.154,490.05,351.942,487.841,351.942z"/>
				</g>
			</g>
			<g>
				<g>
					<path class="double-dark-primary" d="M487.841,351.942c-2.21,0-3.997-1.788-3.997-3.997v-15.989c0-2.21,1.787-3.997,3.997-3.997
						c2.209,0,3.997,1.787,3.997,3.997v15.989C491.838,350.154,490.05,351.942,487.841,351.942z"/>
				</g>
			</g>
			<g>
				<g>
					<path class="double-dark-primary" d="M455.862,351.942c-2.21,0-3.997-1.788-3.997-3.997v-15.989c0-2.21,1.787-3.997,3.997-3.997
						s3.997,1.787,3.997,3.997v15.989C459.859,350.154,458.072,351.942,455.862,351.942z"/>
				</g>
			</g>
			<g>
				<g>
					<path class="double-dark-primary" d="M487.841,399.91h-31.979c-2.21,0-3.997-1.788-3.997-3.998c0-2.209,1.787-3.997,3.997-3.997h31.979
						c2.209,0,3.997,1.788,3.997,3.997C491.838,398.122,490.05,399.91,487.841,399.91z"/>
				</g>
			</g>
			<g>
				<g>
					<path class="double-dark-primary" d="M487.841,399.91c-2.21,0-3.997-1.788-3.997-3.998v-47.967c0-2.21,1.787-3.998,3.997-3.998
						c2.209,0,3.997,1.788,3.997,3.998v47.967C491.838,398.122,490.05,399.91,487.841,399.91z"/>
				</g>
			</g>
			<g>
				<g>
					<path class="double-dark-primary" d="M455.862,399.91c-2.21,0-3.997-1.788-3.997-3.998v-47.967c0-2.21,1.787-3.998,3.997-3.998
						s3.997,1.788,3.997,3.998v47.967C459.859,398.122,458.072,399.91,455.862,399.91z"/>
				</g>
			</g>
		</g>
		<g>
			<g>
				<path class="double-dark-primary" d="M104.102,160.065c-1.022,0-2.045-0.391-2.826-1.171l-15.989-15.989c-1.561-1.562-1.561-4.091,0-5.653
					c1.562-1.561,4.091-1.561,5.653,0l15.989,15.989c1.562,1.561,1.562,4.091,0,5.652
					C106.148,159.675,105.125,160.065,104.102,160.065z"/>
			</g>
		</g>
		<g>
			<g>
				<path class="double-dark-primary" d="M104.102,160.065c-1.022,0-2.045-0.391-2.826-1.171c-1.562-1.562-1.562-4.091,0-5.652l31.979-31.978
					c1.562-1.562,4.091-1.562,5.652,0s1.562,4.091,0,5.652l-31.979,31.978C106.148,159.675,105.125,160.065,104.102,160.065z"/>
			</g>
		</g>
		<g>
			<g>
				<path class="double-dark-primary" d="M335.943,120.092h-159.89c-2.209,0-3.997-1.788-3.997-3.998c0-2.209,1.788-3.997,3.997-3.997h159.89
					c2.21,0,3.998,1.788,3.998,3.997C339.941,118.305,338.153,120.092,335.943,120.092z"/>
			</g>
		</g>
		<g>
			<g>
				<path class="double-dark-primary" d="M335.943,144.076h-159.89c-2.209,0-3.997-1.788-3.997-3.997c0-2.21,1.788-3.998,3.997-3.998h159.89
					c2.21,0,3.998,1.788,3.998,3.998C339.941,142.288,338.153,144.076,335.943,144.076z"/>
			</g>
		</g>
		<g>
			<g>
				<path class="double-dark-primary" d="M255.999,168.06h-79.945c-2.209,0-3.997-1.788-3.997-3.997s1.788-3.997,3.997-3.997h79.945
					c2.209,0,3.998,1.788,3.998,3.997S258.208,168.06,255.999,168.06z"/>
			</g>
		</g>
		<g>
			<g>
				<path class="double-dark-primary" d="M88.113,279.983c-1.022,0-2.045-0.391-2.826-1.171c-1.561-1.562-1.561-4.091,0-5.652l39.973-39.973
					c1.562-1.562,4.091-1.562,5.652,0s1.562,4.091,0,5.652l-39.973,39.973C90.159,279.593,89.136,279.983,88.113,279.983z"/>
			</g>
		</g>
		<g>
			<g>
				<path class="double-dark-primary" d="M128.086,279.983c-1.023,0-2.045-0.391-2.826-1.171L85.287,238.84c-1.561-1.562-1.561-4.091,0-5.652
					c1.562-1.562,4.091-1.562,5.653,0l39.973,39.973c1.562,1.562,1.562,4.091,0,5.652
					C130.131,279.593,129.109,279.983,128.086,279.983z"/>
			</g>
		</g>
		<g>
			<g>
				<path class="double-dark-primary" d="M335.943,232.016h-159.89c-2.209,0-3.997-1.788-3.997-3.998c0-2.209,1.788-3.997,3.997-3.997h159.89
					c2.21,0,3.998,1.788,3.998,3.997C339.941,230.229,338.153,232.016,335.943,232.016z"/>
			</g>
		</g>
		<g>
			<g>
				<path class="double-dark-primary" d="M335.943,256h-159.89c-2.209,0-3.997-1.788-3.997-3.998s1.788-3.997,3.997-3.997h159.89
					c2.21,0,3.998,1.788,3.998,3.997S338.153,256,335.943,256z"/>
			</g>
		</g>
		<g>
			<g>
				<path class="double-dark-primary" d="M255.999,279.983h-79.945c-2.209,0-3.997-1.788-3.997-3.997s1.788-3.997,3.997-3.997h79.945
					c2.209,0,3.998,1.788,3.998,3.997S258.208,279.983,255.999,279.983z"/>
			</g>
		</g>
		<g>
			<g>
				<path class="double-dark-primary" d="M104.102,383.912c-1.022,0-2.045-0.39-2.826-1.17l-15.989-15.99c-1.561-1.561-1.561-4.09,0-5.652
					c1.562-1.561,4.091-1.561,5.653,0l15.989,15.99c1.562,1.561,1.562,4.09,0,5.652
					C106.148,383.522,105.125,383.912,104.102,383.912z"/>
			</g>
		</g>
		<g>
			<g>
				<path class="double-dark-primary" d="M104.102,383.912c-1.022,0-2.045-0.39-2.826-1.17c-1.562-1.562-1.562-4.092,0-5.652l31.979-31.979
					c1.562-1.562,4.091-1.562,5.652,0c1.562,1.561,1.562,4.091,0,5.652l-31.979,31.979
					C106.148,383.522,105.125,383.912,104.102,383.912z"/>
			</g>
		</g>
		<g>
			<g>
				<path class="double-dark-primary" d="M335.943,343.939h-159.89c-2.209,0-3.997-1.787-3.997-3.997c0-2.209,1.788-3.997,3.997-3.997h159.89
					c2.21,0,3.998,1.788,3.998,3.997C339.941,342.152,338.153,343.939,335.943,343.939z"/>
			</g>
		</g>
		<g>
			<g>
				<path class="double-dark-primary" d="M335.943,367.924h-159.89c-2.209,0-3.997-1.788-3.997-3.998c0-2.209,1.788-3.997,3.997-3.997h159.89
					c2.21,0,3.998,1.788,3.998,3.997C339.941,366.136,338.153,367.924,335.943,367.924z"/>
			</g>
		</g>
		<g>
			<g>
				<path class="double-dark-primary" d="M255.999,391.907h-79.945c-2.209,0-3.997-1.788-3.997-3.997s1.788-3.998,3.997-3.998h79.945
					c2.209,0,3.998,1.789,3.998,3.998S258.208,391.907,255.999,391.907z"/>
			</g>
		</g>
	</g>
</g>
</svg>
