<?xml version="1.0" encoding="utf-8"?>
<!-- Generator: Adobe Illustrator 16.0.0, SVG Export Plug-In . SVG Version: 6.00 Build 0)  -->
<!DOCTYPE svg PUBLIC "-//W3C//DTD SVG 1.1//EN" "http://www.w3.org/Graphics/SVG/1.1/DTD/svg11.dtd">
<svg version="1.1" id="Layer_1" xmlns="http://www.w3.org/2000/svg" xmlns:xlink="http://www.w3.org/1999/xlink" x="0px" y="0px"
	 width="512px" height="512px" viewBox="0 0 512 512" enable-background="new 0 0 512 512" xml:space="preserve">
<style>
	.clarity-0 {
	fill: #fcb3b1;
	}

	.clarity-1 {
	fill: #f7827e;
	}

	.clarity-2 {
	fill: #fa4943;
	}

	.clarity-3 {
	fill: #f71811;
	}

	.clarity-4 {
	fill: #d10c06;
	}
</style>
<g id="_x37__document_x2C__folder_x2C__data_x2C__business_x2C__job_x2C__work_x2C__office">
	<g>
		<g>
			<polygon class="clarity-0" points="132.084,64.131 132.084,447.869 124.089,447.869 4.171,447.869 4.171,105.623 36.149,64.131 
				124.089,64.131 			"/>
		</g>
	</g>
	<g>
		<g>
			<rect x="180.051" y="248.006" class="clarity-0" width="239.837" height="31.979"/>
		</g>
	</g>
	<g>
		<g>
			<path class="clarity-2" d="M467.855,192.044l-15.988-23.984V24.158h31.979v31.978h23.982V168.06l-23.982,23.984v295.798H148.073
				c-8.873,0-15.989-7.197-15.989-15.988s7.116-15.99,15.989-15.99h319.782V192.044z"/>
		</g>
	</g>
	<g>
		<g>
			<g>
				<path class="clarity-3" d="M140.079,471.854c0-8.791,7.116-15.99,15.989-15.99h-7.995c-8.873,0-15.989,7.199-15.989,15.99
					s7.116,15.988,15.989,15.988h7.995C147.195,487.842,140.079,480.645,140.079,471.854z"/>
			</g>
		</g>
	</g>
	<g>
		<g>
			<path class="clarity-1" d="M148.073,455.863c-8.873,0-15.989,7.199-15.989,15.99v-23.984V64.131V40.147
				c0-8.794,7.116-15.989,15.989-15.989h303.794V168.06l15.988,23.984v263.819H148.073z M419.889,279.984v-31.979H180.051v31.979
				H419.889z"/>
		</g>
	</g>
	<g>
		<g>
			<g>
				<path class="clarity-0" d="M156.068,447.869V64.131V40.147c0-8.794,7.116-15.989,15.989-15.989h-23.984
					c-8.873,0-15.989,7.194-15.989,15.989v23.984v383.738v23.984c0-8.791,7.116-15.99,15.989-15.99h7.995V447.869z"/>
			</g>
		</g>
	</g>
	<g>
		<g>
			<rect x="164.062" y="455.863" class="clarity-0" width="287.805" height="15.99"/>
		</g>
	</g>
	<g>
		<g>
			<rect x="116.162" y="64.131" class="clarity-1" width="15.923" height="383.738"/>
		</g>
	</g>
	<g>
		<g>
			<g>
				<path class="clarity-4" d="M132.084,475.85c-2.21,0-3.998-1.787-3.998-3.996V40.147c0-2.209,1.788-3.997,3.998-3.997
					c2.209,0,3.997,1.788,3.997,3.997v431.707C136.082,474.062,134.293,475.85,132.084,475.85z"/>
			</g>
		</g>
		<g>
			<g>
				<path class="clarity-4" d="M451.867,28.156H148.073c-2.209,0-3.998-1.788-3.998-3.998s1.788-3.998,3.998-3.998h303.794
					c2.209,0,3.996,1.788,3.996,3.998S454.076,28.156,451.867,28.156z"/>
			</g>
		</g>
		<g>
			<g>
				<path class="clarity-4" d="M483.846,491.84c-2.211,0-3.998-1.789-3.998-3.998V192.044c0-1.062,0.422-2.077,1.172-2.826
					l22.812-22.813V60.134h-19.986c-2.211,0-3.998-1.788-3.998-3.998V24.158c0-2.209,1.787-3.998,3.998-3.998
					c2.209,0,3.996,1.788,3.996,3.998v27.981h19.986c2.209,0,3.998,1.788,3.998,3.997V168.06c0,1.062-0.422,2.077-1.172,2.826
					l-22.812,22.812v294.143C487.842,490.051,486.055,491.84,483.846,491.84z"/>
			</g>
		</g>
		<g>
			<g>
				<path class="clarity-4" d="M483.846,491.84H148.073c-2.209,0-3.998-1.789-3.998-3.998s1.788-3.996,3.998-3.996h335.772
					c2.209,0,3.996,1.787,3.996,3.996S486.055,491.84,483.846,491.84z"/>
			</g>
		</g>
		<g>
			<g>
				<path class="clarity-4" d="M467.855,459.861H148.073c-2.209,0-3.998-1.787-3.998-3.998c0-2.209,1.788-3.996,3.998-3.996h319.782
					c2.209,0,3.998,1.787,3.998,3.996C471.854,458.074,470.064,459.861,467.855,459.861z"/>
			</g>
		</g>
		<g>
			<g>
				<path class="clarity-4" d="M451.867,475.85H164.062c-2.209,0-3.998-1.787-3.998-3.996s1.788-3.998,3.998-3.998h287.805
					c2.209,0,3.996,1.789,3.996,3.998S454.076,475.85,451.867,475.85z"/>
			</g>
		</g>
		<g>
			<g>
				<path class="clarity-4" d="M148.073,491.84c-11.02,0-19.986-8.963-19.986-19.986s8.966-19.986,19.986-19.986
					c2.209,0,3.998,1.787,3.998,3.996c0,2.211-1.788,3.998-3.998,3.998c-6.613,0-11.992,5.379-11.992,11.992
					s5.379,11.992,11.992,11.992c2.209,0,3.998,1.787,3.998,3.996S150.283,491.84,148.073,491.84z"/>
			</g>
		</g>
		<g>
			<g>
				<path class="clarity-4" d="M132.084,44.145c-2.21,0-3.998-1.788-3.998-3.998c0-11.02,8.966-19.986,19.986-19.986
					c2.209,0,3.998,1.788,3.998,3.998s-1.788,3.998-3.998,3.998c-6.613,0-11.992,5.379-11.992,11.991
					C136.082,42.357,134.293,44.145,132.084,44.145z"/>
			</g>
		</g>
		<g>
			<g>
				<path class="clarity-4" d="M491.84,156.068c-2.209,0-3.998-1.788-3.998-3.998V80.12c0-2.209,1.789-3.998,3.998-3.998
					s3.996,1.788,3.996,3.998v71.951C495.836,154.281,494.049,156.068,491.84,156.068z"/>
			</g>
		</g>
		<g>
			<g>
				<path class="clarity-4" d="M467.855,459.861c-2.209,0-3.996-1.787-3.996-3.998V193.254l-15.318-22.977
					c-0.438-0.656-0.672-1.429-0.672-2.217V24.158c0-2.209,1.787-3.998,3.998-3.998c2.209,0,3.996,1.788,3.996,3.998V166.85
					l15.318,22.977c0.438,0.656,0.672,1.429,0.672,2.217v263.819C471.854,458.074,470.064,459.861,467.855,459.861z"/>
			</g>
		</g>
		<g>
			<g>
				<path class="clarity-4" d="M483.846,28.156h-31.979c-2.211,0-3.998-1.788-3.998-3.998s1.787-3.998,3.998-3.998h31.979
					c2.209,0,3.996,1.788,3.996,3.998S486.055,28.156,483.846,28.156z"/>
			</g>
		</g>
		<g>
			<g>
				<path class="clarity-4" d="M124.089,451.867H4.171c-2.209,0-3.997-1.789-3.997-3.998V96.109c0-1.062,0.421-2.076,1.171-2.826
					l31.978-31.978c0.75-0.75,1.764-1.171,2.826-1.171h87.94c2.21,0,3.998,1.788,3.998,3.997s-1.788,3.998-3.998,3.998H37.805
					L8.168,97.764v346.109h115.921c2.21,0,3.998,1.787,3.998,3.996S126.299,451.867,124.089,451.867z"/>
			</g>
		</g>
		<g>
			<g>
				<path class="clarity-4" d="M44.144,108.101c-2.209,0-3.997-1.788-3.997-3.997V80.12c0-2.209,1.788-3.998,3.997-3.998
					s3.997,1.788,3.997,3.998v23.984C48.141,106.313,46.354,108.101,44.144,108.101z"/>
			</g>
		</g>
		<g>
			<g>
				<path class="clarity-4" d="M44.144,108.101H20.161c-2.21,0-3.998-1.788-3.998-3.997c0-2.21,1.788-3.998,3.998-3.998h23.983
					c2.209,0,3.997,1.788,3.997,3.998C48.141,106.313,46.354,108.101,44.144,108.101z"/>
			</g>
		</g>
		<g>
			<g>
				<path class="clarity-4" d="M124.089,204.036H52.139c-2.209,0-3.998-1.788-3.998-3.997c0-2.21,1.788-3.998,3.998-3.998h71.951
					c2.21,0,3.998,1.788,3.998,3.998C128.087,202.248,126.299,204.036,124.089,204.036z"/>
			</g>
		</g>
		<g>
			<g>
				<path class="clarity-4" d="M124.089,236.014H52.139c-2.209,0-3.998-1.788-3.998-3.998s1.788-3.998,3.998-3.998h71.951
					c2.21,0,3.998,1.788,3.998,3.998S126.299,236.014,124.089,236.014z"/>
			</g>
		</g>
		<g>
			<g>
				<path class="clarity-4" d="M124.089,267.992H52.139c-2.209,0-3.998-1.787-3.998-3.998c0-2.209,1.788-3.996,3.998-3.996h71.951
					c2.21,0,3.998,1.787,3.998,3.996C128.087,266.205,126.299,267.992,124.089,267.992z"/>
			</g>
		</g>
		<g>
			<g>
				<path class="clarity-4" d="M124.089,299.971H52.139c-2.209,0-3.998-1.789-3.998-3.998s1.788-3.996,3.998-3.996h71.951
					c2.21,0,3.998,1.787,3.998,3.996S126.299,299.971,124.089,299.971z"/>
			</g>
		</g>
		<g>
			<g>
				<path class="clarity-4" d="M124.089,331.949H52.139c-2.209,0-3.998-1.789-3.998-3.998s1.788-3.998,3.998-3.998h71.951
					c2.21,0,3.998,1.789,3.998,3.998S126.299,331.949,124.089,331.949z"/>
			</g>
		</g>
		<g>
			<g>
				<path class="clarity-4" d="M419.889,283.98H180.051c-2.209,0-3.997-1.787-3.997-3.996v-31.979c0-2.209,1.788-3.998,3.997-3.998
					h239.837c2.209,0,3.996,1.788,3.996,3.998v31.979C423.885,282.193,422.098,283.98,419.889,283.98z M184.049,275.986h231.842
					v-23.983H184.049V275.986z"/>
			</g>
		</g>
		<g>
			<g>
				<path class="clarity-4" d="M403.898,267.992H196.041c-2.209,0-3.997-1.787-3.997-3.998c0-2.209,1.788-3.996,3.997-3.996h207.858
					c2.211,0,3.998,1.787,3.998,3.996C407.896,266.205,406.109,267.992,403.898,267.992z"/>
			</g>
		</g>
	</g>
</g>
</svg>
