<?xml version="1.0" encoding="utf-8"?>
<!-- Generator: Adobe Illustrator 16.0.0, SVG Export Plug-In . SVG Version: 6.00 Build 0)  -->
<!DOCTYPE svg PUBLIC "-//W3C//DTD SVG 1.1//EN" "http://www.w3.org/Graphics/SVG/1.1/DTD/svg11.dtd">
<svg version="1.1" id="Layer_1" xmlns="http://www.w3.org/2000/svg" xmlns:xlink="http://www.w3.org/1999/xlink" x="0px" y="0px"
	 width="512px" height="512px" viewBox="0 0 512 512" enable-background="new 0 0 512 512" xml:space="preserve">

	 <style>
	.primary {
		fill: #3333DB;
	}

	.darker-primary{
		fill: #2525B4;
	}

	.lighter-primary {
		fill: #6666E0;
	}

	.very-light-primary {
		fill: #B3B3F5;
	}

	.double-dark-primary {
		fill: #1A1A7A;
	}

	.white {
		fill: #fff;
	}
</style>

<g id="_x39__man_x2C__search_x2C__hunter_x2C__head_x2C__job_x2C__work_x2C__office">
	<g>
		<g>
			<polygon class="very-light-primary" points="391.062,352.319 379.758,363.624 404.521,388.404 415.842,377.092 			"/>
		</g>
	</g>
	<g>
		<g>
			<path class="lighter-primary" d="M251.989,81.25c0,0,45.964-5.594,50.212,55.321l-0.5,16.071c-6.309-0.16-12.695,0.242-18.939,1.116
				l-2.795-17.184l-3.998-7.994c0,0-47.401,15.267-88.334,15.271c-40.855,0-87.542-15.274-87.542-15.274L76.109,176.38
				C59.877,3.225,267.975,33.841,267.975,33.841C237.522,46.395,251.989,81.25,251.989,81.25z"/>
		</g>
	</g>
	<g>
		<g>
			<g>
				<path class="primary" d="M251.989,81.25c0,0,44.654,11.983,37.283,71.732l12.68-0.34l0.25-16.071
					C297.953,75.656,251.989,81.25,251.989,81.25z"/>
			</g>
		</g>
	</g>
	<g>
		<g>
			<g>
				<path class="very-light-primary" d="M241.34,31.877C185.768,30.374,63.523,42.112,76.109,176.38l15.567-31.033
					C98.718,50.31,186.861,33.247,241.34,31.877z"/>
			</g>
		</g>
	</g>
	<g>
		<g>
			<path class="lighter-primary" d="M503.096,475.626c-6.23,6.308-16.301,6.315-22.547,0l-81.617-81.624l5.59-5.598l11.352-11.359
				l5.605-5.599l81.617,81.624C509.42,459.309,509.42,469.388,503.096,475.626z"/>
		</g>
	</g>
	<g>
		<g>
			<path class="primary" d="M486.201,469.966l-81.617-81.616l-0.062,0.055l-5.59,5.598l81.617,81.624
				c6.246,6.315,16.316,6.308,22.547,0c0.982-0.984,1.764-2.077,2.451-3.209C499.426,476.07,491.463,475.298,486.201,469.966z"/>
		</g>
	</g>
	<g>
		<g>
			<path class="very-light-primary" d="M113.926,309.574l-5.839-5.121v-7.994l11.273-7.511c16.629,18.151,35.656,31.338,52.683,36.771
				l21.665,2.562c5.52,10.391,12.632,20.22,21.423,29.019c36.615,36.538,90.974,44.532,135.349,23.983l21.58-12.912
				c0,25.826,0,71.989,0,71.989H4.158c0,0,0-17.823,0-43.642c0-25.826,12.874-35.5,38.692-45.173
				c16.793-6.237,45.57-19.346,61.56-31.104L113.926,309.574z"/>
		</g>
	</g>
	<g>
		<g>
			<g>
				<path fill="#FFFFFF" d="M58.839,351.546c16.793-6.237,45.57-19.346,61.56-31.104l9.517-10.876l-5.84-5.105l-0.008-8.002
					l1.554-1.031c-2.115-2.084-4.208-4.239-6.261-6.479l-11.273,7.511v7.994l5.839,5.121l-9.517,10.868
					C88.42,332.2,59.643,345.309,42.85,351.546c-25.818,9.673-38.692,19.347-38.692,45.173c0,25.818,0,43.642,0,43.642h15.989
					c0,0,0-17.823-0.008-43.642C20.147,370.893,33.021,361.219,58.839,351.546z"/>
			</g>
		</g>
	</g>
	<g>
		<g>
			<polygon fill="#FFFFFF" points="172.043,360.423 108.087,304.453 108.087,296.459 119.36,288.948 204.021,328.757 			"/>
		</g>
	</g>
	<g>
		<g>
			<path class="very-light-primary" d="M279.967,136.575l2.795,17.184c-24.777,3.595-48.604,14.869-67.63,33.899
				c-37.975,38.052-45.095,95.373-21.423,140.624l-21.665-2.562c-17.027-5.434-36.054-18.62-52.683-36.771
				c-24.226-26.467-43.251-63.477-43.251-102.091V176.38l23.983-47.803c0,0,46.687,15.274,87.542,15.274
				c40.933-0.004,88.334-15.271,88.334-15.271L279.967,136.575z"/>
		</g>
	</g>
	<g>
		<g>
			<g>
				<path fill="#FFFFFF" d="M188.033,325.72c-17.028-5.434-36.054-18.628-52.683-36.771
					c-24.226-26.463-43.252-63.477-43.252-102.087v-10.478l21.954-43.763c-8.58-2.299-13.959-4.044-13.959-4.044L76.109,176.38
					v10.478c0,38.614,19.026,75.624,43.251,102.091c16.629,18.151,35.656,31.338,52.683,36.771l21.665,2.562
					c-0.344-0.664-0.617-1.344-0.945-1.999L188.033,325.72z"/>
			</g>
		</g>
	</g>
	<g>
		<g>
			<path class="primary" d="M226.483,345.948c-40.605-40.535-40.613-106.408,0-146.939c40.617-40.613,106.416-40.609,146.951,0
				c40.598,40.531,40.598,106.404,0,146.939C332.898,386.562,267.084,386.562,226.483,345.948z"/>
		</g>
	</g>
	<g>
		<g>
			<path class="lighter-primary" d="M250.466,345.948c-40.605-40.535-40.605-106.408,0-146.939c17.243-17.246,39.04-27.091,61.508-29.691
				c-30.432-3.521-62.125,6.324-85.492,29.691c-40.613,40.531-40.605,106.404,0,146.939c23.359,23.367,55.06,33.212,85.492,29.69
				C289.506,373.039,267.709,363.194,250.466,345.948z"/>
		</g>
	</g>
	<g>
		<g>
			<path fill="#FFFFFF" d="M373.434,345.948c40.598-40.535,40.598-106.408,0-146.939c-40.535-40.609-106.334-40.613-146.951,0
				c-40.613,40.531-40.605,106.404,0,146.939C267.084,386.562,332.898,386.562,373.434,345.948z M384.785,187.662
				c46.766,46.843,46.766,122.795,0,169.638c-10.242,10.235-21.922,18.229-34.305,23.983
				c-44.375,20.549-98.734,12.555-135.349-23.983c-8.791-8.799-15.903-18.628-21.423-29.019
				c-23.672-45.251-16.552-102.571,21.423-140.624c19.026-19.03,42.853-30.304,67.63-33.899c6.244-0.874,12.631-1.276,18.939-1.116
				C331.854,153.044,361.832,164.716,384.785,187.662z"/>
		</g>
	</g>
	<g>
		<g>
			<g>
				<path class="lighter-primary" d="M356.07,440.36h15.99c0,0,0-45.781,0-71.989c-5.076,3.466-10.432,6.534-15.99,9.259
					C356.07,402.309,356.07,440.36,356.07,440.36z"/>
			</g>
		</g>
	</g>
	<g>
		<g>
			<g>
				<path class="double-dark-primary" d="M4.158,444.357c-1.062,0-2.077-0.421-2.826-1.171c-0.75-0.749-1.171-1.765-1.171-2.826v-43.642
					c0-28.122,14.513-38.888,41.284-48.92c15.45-5.738,44.313-18.604,60.6-30.573c1.764-1.304,4.271-0.937,5.59,0.851
					c1.304,1.78,0.921,4.279-0.859,5.591c-16.941,12.452-46.679,25.732-62.535,31.626c-24.444,9.158-36.085,17.691-36.085,41.426
					v39.645h359.908v-55.642c0-2.21,1.795-3.997,3.998-3.997c2.217,0,3.996,1.787,3.996,3.997v59.639
					c0,2.21-1.779,3.997-3.996,3.997H4.158z"/>
			</g>
		</g>
		<g>
			<g>
				<path class="double-dark-primary" d="M172.043,329.717c-0.398,0-0.812-0.055-1.218-0.188c-17.699-5.652-37.537-19.463-54.416-37.88
					c-28.153-30.761-44.298-68.953-44.298-104.792c0-2.209,1.788-3.997,3.998-3.997c2.209,0,3.997,1.788,3.997,3.997
					c0,33.864,15.38,70.089,42.206,99.39c15.958,17.425,34.531,30.425,50.95,35.671c2.1,0.672,3.264,2.92,2.592,5.02
					C175.307,328.64,173.738,329.717,172.043,329.717z"/>
			</g>
		</g>
		<g>
			<g>
				<path class="double-dark-primary" d="M76.109,180.377c-0.242,0-0.492-0.023-0.742-0.07c-1.749-0.328-3.068-1.78-3.24-3.552
					c-4.38-46.78,6.972-83.381,33.743-108.781c55.954-53.093,158.357-38.728,162.699-38.087c1.779,0.261,3.152,1.678,3.371,3.466
					c0.219,1.784-0.779,3.498-2.436,4.185c-7.264,2.99-12.244,7.651-14.822,13.85c-4.005,9.673-1.437,20.787,0.094,25.729
					c5.558-0.031,19.007,1.132,30.656,10.739c12.24,10.106,19.221,26.404,20.75,48.439c0.156,2.202-1.498,4.111-3.699,4.267
					c-2.404,0.047-4.123-1.511-4.279-3.712c-1.373-19.764-7.385-34.172-17.863-42.83c-12.725-10.505-27.71-8.811-27.867-8.803
					c-1.866,0.277-3.49-0.781-4.177-2.432c-0.312-0.753-7.573-18.608-1-34.457c1.897-4.555,4.708-8.467,8.424-11.695
					c-28.403-2.101-101.954-3.104-144.371,37.158c-22.04,20.923-32.806,50.29-32.111,87.433l17.277-34.438
					c0.89-1.772,2.967-2.631,4.817-2.007c0.461,0.148,46.578,15.076,86.301,15.076c39.809-0.004,86.633-14.928,87.1-15.08
					c1.875-0.601,3.92,0.25,4.811,2.019l3.996,7.994c0.984,1.976,0.188,4.376-1.795,5.364c-1.982,0.984-4.371,0.191-5.355-1.788
					l-2.482-4.966c-11.551,3.467-50.916,14.447-86.274,14.451c-35.242,0-74.043-10.957-85.497-14.443l-22.454,44.767
					C78.998,179.542,77.6,180.377,76.109,180.377z"/>
			</g>
		</g>
		<g>
			<g>
				<path class="double-dark-primary" d="M108.087,308.45c-2.209,0-3.998-1.788-3.998-3.997v-7.994c0-2.21,1.788-3.998,3.998-3.998
					s3.998,1.788,3.998,3.998v7.994C112.084,306.662,110.296,308.45,108.087,308.45z"/>
			</g>
		</g>
		<g>
			<g>
				<path class="double-dark-primary" d="M172.043,364.42c-0.937,0-1.874-0.328-2.631-0.991l-63.957-55.97c-1.663-1.452-1.827-3.981-0.375-5.637
					c1.452-1.671,3.99-1.827,5.637-0.375l63.957,55.962c1.663,1.46,1.835,3.981,0.375,5.645
					C174.26,363.959,173.152,364.42,172.043,364.42z"/>
			</g>
		</g>
		<g>
			<g>
				<path class="double-dark-primary" d="M172.043,364.42c-1.039,0-2.069-0.406-2.857-1.202c-1.546-1.577-1.515-4.106,0.062-5.652l15.989-15.669
					c1.577-1.554,4.099-1.515,5.652,0.055c1.546,1.577,1.515,4.106-0.062,5.652l-15.989,15.669
					C174.065,364.037,173.05,364.42,172.043,364.42z"/>
			</g>
		</g>
		<g>
			<g>
				<path class="double-dark-primary" d="M299.969,396.375c-33.104,0-64.242-12.874-87.664-36.241c-8.799-8.807-16.239-18.894-22.126-29.979
					c-25.287-48.334-16.395-106.724,22.126-145.319c19.042-19.049,43.205-31.163,69.878-35.031
					c5.652-0.792,11.305-1.194,16.785-1.194l2.842,0.035c32.4,0.433,62.879,13.284,85.801,36.19
					c48.248,48.331,48.248,126.957,0,175.283c-10.32,10.321-22.234,18.659-35.445,24.788
					C335.959,392.409,317.924,396.375,299.969,396.375z M298.969,156.604c-5.121,0-10.383,0.375-15.646,1.112
					c-24.947,3.619-47.549,14.951-65.365,32.767c-36.03,36.108-44.353,90.735-20.705,135.939
					c5.504,10.368,12.476,19.814,20.705,28.051c21.907,21.868,51.031,33.907,82.011,33.907c16.801,0,33.68-3.709,48.842-10.728
					c12.334-5.73,23.498-13.53,33.148-23.18c45.125-45.211,45.125-118.774,0-163.99c-21.438-21.419-49.951-33.438-80.305-33.844
					L298.969,156.604z"/>
			</g>
		</g>
		<g>
			<g>
				<path class="double-dark-primary" d="M299.984,380.401c-28.824,0-55.935-11.227-76.328-31.627c-20.393-20.361-31.627-47.46-31.627-76.308
					c0-28.839,11.234-55.931,31.627-76.288c20.393-20.392,47.503-31.627,76.328-31.627s55.914,11.235,76.275,31.635
					c20.393,20.349,31.619,47.44,31.619,76.28c0,28.848-11.227,55.946-31.619,76.308
					C355.898,369.167,328.809,380.401,299.984,380.401z M299.984,172.547c-26.686,0-51.79,10.403-70.675,29.289
					c-18.886,18.847-29.285,43.931-29.285,70.631c0,26.709,10.399,51.801,29.285,70.647c18.886,18.894,43.974,29.293,70.675,29.293
					c26.684,0,51.762-10.399,70.623-29.285c18.877-18.854,29.277-43.946,29.277-70.655c0-26.7-10.4-51.785-29.277-70.627
					C351.746,182.95,326.668,172.547,299.984,172.547z"/>
			</g>
		</g>
		<g>
			<g>
				<path class="double-dark-primary" d="M404.521,392.401c-1.014,0-2.045-0.398-2.826-1.179l-17.348-17.434c-1.561-1.569-1.561-4.1,0.016-5.652
					c1.562-1.554,4.092-1.554,5.652,0.016l17.348,17.434c1.547,1.561,1.547,4.09-0.016,5.652
					C406.566,392.011,405.553,392.401,404.521,392.401z"/>
			</g>
		</g>
		<g>
			<g>
				<path class="double-dark-primary" d="M415.873,381.042c-1.014,0-2.029-0.383-2.811-1.163l-17.426-17.34c-1.576-1.562-1.576-4.092-0.016-5.652
					c1.562-1.57,4.092-1.57,5.652-0.016l17.426,17.34c1.562,1.561,1.562,4.09,0.016,5.652
					C417.936,380.651,416.904,381.042,415.873,381.042z"/>
			</g>
		</g>
		<g>
			<g>
				<path class="double-dark-primary" d="M398.932,397.999c-1.031,0-2.045-0.391-2.826-1.171c-1.561-1.562-1.561-4.092,0-5.652l22.547-22.556
					c1.562-1.562,4.092-1.562,5.652,0c1.562,1.562,1.562,4.091,0,5.652l-22.547,22.556
					C400.977,397.608,399.947,397.999,398.932,397.999z"/>
			</g>
		</g>
		<g>
			<g>
				<path class="double-dark-primary" d="M480.549,479.623c-1.016,0-2.047-0.391-2.826-1.171l-81.617-81.624c-1.561-1.562-1.561-4.092,0-5.652
					c1.562-1.562,4.092-1.562,5.652,0l81.617,81.624c1.561,1.562,1.561,4.091,0,5.652
					C482.594,479.232,481.578,479.623,480.549,479.623z"/>
			</g>
		</g>
		<g>
			<g>
				<path class="double-dark-primary" d="M503.096,457.068c-1.016,0-2.045-0.391-2.826-1.172l-81.617-81.624c-1.561-1.562-1.561-4.091,0-5.652
					c1.562-1.562,4.092-1.562,5.652,0l81.617,81.624c1.561,1.562,1.561,4.092,0,5.652
					C505.141,456.678,504.125,457.068,503.096,457.068z"/>
			</g>
		</g>
		<g>
			<g>
				<path class="double-dark-primary" d="M491.822,484.354L491.822,484.354c-5.324,0-10.338-2.1-14.115-5.917
					c-1.547-1.577-1.531-4.106,0.031-5.66c1.576-1.546,4.105-1.53,5.652,0.039c2.264,2.287,5.262,3.544,8.432,3.544l0,0
					c3.186,0,6.168-1.257,8.432-3.544c1.561-1.569,4.09-1.593,5.652-0.031c1.576,1.546,1.592,4.083,0.031,5.652
					C502.174,482.254,497.146,484.354,491.822,484.354z"/>
			</g>
		</g>
		<g>
			<g>
				<path class="double-dark-primary" d="M503.096,479.623c-1.031,0-2.061-0.398-2.842-1.187c-1.547-1.577-1.531-4.106,0.031-5.66
					c2.295-2.257,3.561-5.255,3.561-8.433c0-3.169-1.266-6.167-3.561-8.424c-1.562-1.553-1.578-4.083-0.031-5.66
					c1.561-1.561,4.09-1.584,5.652-0.031c3.826,3.771,5.934,8.791,5.934,14.115c0,5.333-2.107,10.353-5.934,14.124
					C505.125,479.24,504.109,479.623,503.096,479.623z"/>
			</g>
		</g>
	</g>
</g>
</svg>
