<svg width="191" height="47" viewBox="0 0 191 47" fill="none" xmlns="http://www.w3.org/2000/svg">
                    <path
                        d="M81.7994 0.938377V12.0975C81.7994 13.653 81.4972 15.0056 80.8929 16.1553C80.2885 17.2966 79.382 18.18 78.1732 18.8056C76.9645 19.4227 75.4492 19.7313 73.6275 19.7313C71.0201 19.7313 69.03 19.0761 67.6572 17.7658C66.2844 16.4554 65.5981 14.604 65.5981 12.2116V0.938377H70.7395V11.8185C70.7395 13.1288 70.9899 14.0799 71.4906 14.6716C71.9914 15.2634 72.7296 15.5593 73.7052 15.5593C74.4045 15.5593 74.9744 15.4325 75.4147 15.1789C75.855 14.9168 76.1745 14.5068 76.3731 13.9488C76.5803 13.3909 76.6839 12.6723 76.6839 11.7931V0.938377H81.7994Z"
                        fill="#1d1d1f" />
                    <path
                        d="M92.3284 0.938377C94.7286 0.938377 96.5244 1.44983 97.7159 2.47275C98.916 3.49567 99.516 4.94973 99.516 6.83493C99.516 7.68032 99.3908 8.49189 99.1404 9.26964C98.8987 10.0474 98.4972 10.7406 97.936 11.3493C97.3835 11.958 96.6453 12.4398 95.7215 12.7949C94.8063 13.15 93.6752 13.3275 92.3284 13.3275H90.8908V19.4777H85.7753V0.938377H92.3284ZM92.2118 4.98354H90.8908V9.24428H91.901C92.3413 9.24428 92.7514 9.17242 93.1313 9.02871C93.5112 8.87654 93.8134 8.6356 94.0379 8.3059C94.271 7.96775 94.3875 7.5197 94.3875 6.96174C94.3875 6.37843 94.2105 5.90501 93.8566 5.5415C93.5026 5.16953 92.9543 4.98354 92.2118 4.98354Z"
                        fill="#1d1d1f" />
                    <path
                        d="M107.571 19.4777H102.534V0.938377H113.723V4.95818H107.571V8.49611H113.244V12.5159H107.571V19.4777Z"
                        fill="#1d1d1f" />
                    <path
                        d="M123.035 0.938377C124.753 0.938377 126.182 1.1455 127.321 1.55973C128.461 1.96552 129.316 2.5742 129.885 3.38577C130.464 4.19733 130.753 5.20757 130.753 6.41647C130.753 7.16886 130.624 7.85362 130.365 8.47075C130.106 9.08788 129.734 9.64161 129.251 10.1319C128.776 10.6138 128.206 11.0365 127.541 11.4L133.058 19.4777H127.256L123.242 12.7315H121.947V19.4777H116.831V0.938377H123.035ZM122.957 4.72993H121.947V8.9653H122.905C123.691 8.9653 124.334 8.79623 124.835 8.45807C125.335 8.11992 125.586 7.51547 125.586 6.64472C125.586 6.0445 125.379 5.57531 124.964 5.23716C124.55 4.899 123.881 4.72993 122.957 4.72993Z"
                        fill="#1d1d1f" />
                    <path
                        d="M152.497 10.1827C152.497 11.6114 152.32 12.9132 151.966 14.0883C151.621 15.255 151.077 16.261 150.335 17.1064C149.592 17.9517 148.638 18.6027 147.473 19.0592C146.307 19.5072 144.913 19.7313 143.29 19.7313C141.701 19.7313 140.324 19.5072 139.158 19.0592C138.001 18.6027 137.047 17.956 136.296 17.119C135.545 16.2737 134.988 15.2634 134.625 14.0883C134.263 12.9132 134.082 11.6029 134.082 10.1573C134.082 8.22982 134.405 6.55596 135.053 5.13571C135.709 3.70701 136.719 2.60378 138.083 1.82603C139.447 1.03982 141.191 0.646719 143.315 0.646719C145.474 0.646719 147.227 1.03982 148.573 1.82603C149.929 2.61224 150.922 3.71969 151.552 5.14839C152.182 6.57709 152.497 8.25518 152.497 10.1827ZM139.469 10.1827C139.469 11.2986 139.599 12.2581 139.858 13.0612C140.117 13.8643 140.527 14.4814 141.088 14.9126C141.649 15.3437 142.383 15.5593 143.29 15.5593C144.231 15.5593 144.977 15.3437 145.53 14.9126C146.091 14.4814 146.493 13.8643 146.734 13.0612C146.985 12.2581 147.11 11.2986 147.11 10.1827C147.11 8.5088 146.825 7.18577 146.255 6.21358C145.685 5.24138 144.705 4.75529 143.315 4.75529C142.392 4.75529 141.645 4.97509 141.075 5.41469C140.514 5.85429 140.104 6.47987 139.845 7.29144C139.594 8.10301 139.469 9.06675 139.469 10.1827Z"
                        fill="#1d1d1f" />
                    <path
                        d="M173.944 19.4777H167.235L160.32 6.41647H160.203C160.246 6.8138 160.285 7.29144 160.32 7.8494C160.354 8.40735 160.384 8.97798 160.41 9.5613C160.436 10.1362 160.449 10.6561 160.449 11.121V19.4777H155.916V0.938377H162.599L169.489 13.822H169.567C169.541 13.4163 169.515 12.9471 169.489 12.4145C169.463 11.8734 169.437 11.3282 169.411 10.7787C169.394 10.2292 169.385 9.74306 169.385 9.32036V0.938377H173.944V19.4777Z"
                        fill="#1d1d1f" />
                    <path d="M186.39 19.4777H181.274V5.03427H176.651V0.938377H191V5.03427H186.39V19.4777Z"
                        fill="#1d1d1f" />
                    <path
                        d="M72.2547 28.2071C74.6549 28.2071 76.4508 28.7186 77.6422 29.7415C78.8423 30.7644 79.4424 32.2185 79.4424 34.1037C79.4424 34.949 79.3172 35.7606 79.0668 36.5384C78.8251 37.3161 78.4236 38.0093 77.8624 38.618C77.3098 39.2267 76.5716 39.7086 75.6478 40.0636C74.7326 40.4187 73.6016 40.5962 72.2547 40.5962H70.8172V46.7464H65.7017V28.2071H72.2547ZM72.1382 32.2523H70.8172V36.513H71.8274C72.2677 36.513 72.6778 36.4411 73.0577 36.2974C73.4376 36.1453 73.7397 35.9043 73.9642 35.5746C74.1973 35.2365 74.3139 34.7884 74.3139 34.2305C74.3139 33.6472 74.1369 33.1737 73.7829 32.8102C73.4289 32.4383 72.8807 32.2523 72.1382 32.2523Z"
                        fill="#1d1d1f" />
                    <path
                        d="M91.3156 28.2071C93.0338 28.2071 94.4626 28.4142 95.6023 28.8285C96.742 29.2342 97.5967 29.8429 98.1666 30.6545C98.745 31.4661 99.0343 32.4763 99.0343 33.6852C99.0343 34.4376 98.9047 35.1223 98.6457 35.7395C98.3867 36.3566 98.0155 36.9103 97.532 37.4007C97.0571 37.8825 96.4873 38.3052 95.8225 38.6687L101.339 46.7464H95.5376L91.5228 40.0002H90.2278V46.7464H85.1122V28.2071H91.3156ZM91.2379 31.9987H90.2278V36.234H91.1861C91.9718 36.234 92.615 36.0649 93.1158 35.7268C93.6165 35.3886 93.8669 34.7842 93.8669 33.9134C93.8669 33.3132 93.6597 32.844 93.2453 32.5059C92.8309 32.1677 92.1617 31.9987 91.2379 31.9987Z"
                        fill="#1d1d1f" />
                    <path d="M105.714 46.7464V28.2071H110.856V46.7464H105.714Z" fill="#1d1d1f" />
                    <path
                        d="M126.044 32.0494C125.44 32.0494 124.9 32.1762 124.425 32.4298C123.951 32.675 123.545 33.0342 123.208 33.5077C122.871 33.9811 122.612 34.5602 122.431 35.2449C122.258 35.9212 122.172 36.6905 122.172 37.5528C122.172 38.7195 122.323 39.7001 122.625 40.4948C122.927 41.2894 123.385 41.8896 123.998 42.2954C124.62 42.7012 125.397 42.9041 126.329 42.9041C127.175 42.9041 127.987 42.79 128.764 42.5617C129.55 42.3335 130.34 42.0587 131.134 41.7375V45.9729C130.296 46.3364 129.437 46.5984 128.557 46.7591C127.685 46.9197 126.757 47 125.772 47C123.717 47 122.034 46.6027 120.722 45.808C119.418 45.0049 118.455 43.8932 117.834 42.473C117.221 41.0527 116.914 39.4042 116.914 37.5275C116.914 36.1241 117.113 34.8391 117.51 33.6725C117.916 32.5059 118.507 31.4956 119.284 30.6418C120.061 29.7795 121.019 29.1159 122.159 28.6509C123.307 28.1775 124.62 27.9408 126.096 27.9408C127.011 27.9408 127.974 28.0465 128.984 28.2578C130.003 28.4607 130.996 28.7904 131.963 29.2469L130.396 33.1906C129.705 32.8694 129.006 32.5989 128.298 32.3791C127.59 32.1593 126.839 32.0494 126.044 32.0494Z"
                        fill="#1d1d1f" />
                    <path d="M137.49 46.7464V28.2071H142.632V46.7464H137.49Z" fill="#1d1d1f" />
                    <path
                        d="M167.417 46.7464H160.708L153.793 33.6852H153.676C153.719 34.0825 153.758 34.5602 153.793 35.1181C153.827 35.6761 153.857 36.2467 153.883 36.83C153.909 37.4049 153.922 37.9248 153.922 38.3898V46.7464H149.389V28.2071H156.072L162.962 41.0908H163.039C163.013 40.685 162.988 40.2158 162.962 39.6832C162.936 39.1422 162.91 38.5969 162.884 38.0474C162.867 37.4979 162.858 37.0118 162.858 36.5891V28.2071H167.417V46.7464Z"
                        fill="#1d1d1f" />
                    <path
                        d="M181.764 35.8916H189.935V45.8841C188.96 46.2138 187.842 46.4843 186.581 46.6957C185.321 46.8986 184 47 182.618 47C180.797 47 179.199 46.6534 177.827 45.9602C176.454 45.267 175.383 44.2145 174.615 42.8027C173.846 41.3824 173.462 39.5902 173.462 37.426C173.462 35.4816 173.842 33.8035 174.602 32.3918C175.362 30.9715 176.48 29.8767 177.956 29.1074C179.441 28.3297 181.258 27.9408 183.408 27.9408C184.591 27.9408 185.714 28.0507 186.775 28.2705C187.837 28.4903 188.761 28.7693 189.547 29.1074L187.928 33.0385C187.246 32.7088 186.538 32.4636 185.804 32.303C185.07 32.1339 184.28 32.0494 183.434 32.0494C182.303 32.0494 181.392 32.2988 180.702 32.7975C180.02 33.2963 179.523 33.9642 179.212 34.8011C178.901 35.6296 178.746 36.5468 178.746 37.5528C178.746 38.7025 178.91 39.6747 179.238 40.4694C179.575 41.2556 180.063 41.8558 180.702 42.2701C181.349 42.6759 182.13 42.8787 183.046 42.8787C183.348 42.8787 183.715 42.8576 184.146 42.8153C184.587 42.7731 184.919 42.7224 185.144 42.6632V39.7593H181.764V35.8916Z"
                        fill="#1d1d1f" />
                    <path
                        d="M30.1501 10.0839C29.2764 10.4981 28.4108 11.0721 27.6078 11.8592C23.5828 15.8011 19.9239 19.3837 19.9239 19.3837L19.9254 19.386C19.9036 19.4076 19.8816 19.4251 19.8597 19.4473C18.8179 20.4682 18.7765 22.0957 19.7387 23.1636C19.7768 23.2065 19.8175 23.2487 19.8597 23.2891C20.9413 24.3497 22.6975 24.3522 23.7833 23.2891L28.0097 19.1508C28.7389 19.4124 29.4558 19.565 30.1436 19.6413C31.0807 19.743 31.9609 19.7049 32.7437 19.5968C34.6519 19.3321 34.4521 19.4092 35.5589 19.053C36.6631 18.6983 37.9039 17.9716 37.9039 17.9716L38.655 18.7063C38.7378 18.785 40.6526 20.6629 41.6294 21.6178C41.8023 21.7879 41.9492 21.9279 42.0476 22.0281C42.1604 22.1433 42.2863 22.2268 42.3642 22.3381L47.2378 27.1102C48.6425 25.5669 50.247 23.2684 50.0489 20.6296L37.8713 8.70747C37.8713 8.70747 33.6562 8.41256 30.1501 10.0839Z"
                        fill="#24CE7B" />
                    <path
                        d="M30.8289 39.3685C29.7505 38.3111 27.9999 38.3111 26.9208 39.3685L26.1186 40.154C27.1953 39.0982 27.1945 37.388 26.1162 36.3313C25.037 35.2763 23.2888 35.2763 22.2097 36.3322C23.2888 35.2763 23.2888 33.5646 22.2097 32.5071C21.1314 31.4496 19.3824 31.4513 18.3032 32.5071C19.3824 31.4513 19.3824 29.7387 18.3032 28.6812C17.2248 27.6255 15.4759 27.6255 14.3966 28.6828L11.981 31.0473C10.9019 32.1047 10.9019 33.8157 11.981 34.8731C13.0593 35.929 14.8076 35.929 15.8866 34.8731C14.8075 35.929 14.8075 37.6415 15.8866 38.6981C16.9666 39.754 18.7148 39.754 19.7939 38.6981C18.7148 39.754 18.7148 41.4658 19.7939 42.5233C20.8731 43.5791 22.6213 43.5791 23.7005 42.5233L24.5036 41.7361C23.427 42.7936 23.4277 44.5037 24.506 45.5605C25.5851 46.6162 27.3333 46.6162 28.4125 45.5605L30.829 43.1943C31.9072 42.1361 31.9072 40.4244 30.8289 39.3685Z"
                        fill="#24CE7B" />
                    <path
                        d="M59.9762 14.3883L45.7558 0.462739C45.124 -0.154246 44.1026 -0.154246 43.4725 0.462739L38.9115 4.92857C38.2814 5.54556 38.2814 6.54577 38.9115 7.16357L53.1335 21.0883C53.7628 21.7068 54.786 21.7068 55.4153 21.0883L59.9762 16.6216C60.608 16.0063 60.608 15.0061 59.9762 14.3883ZM55.9227 17.4764C55.2438 18.1395 54.1461 18.1395 53.4697 17.4764C52.7925 16.8125 52.7925 15.7376 53.4697 15.0744C54.1461 14.4113 55.2438 14.4113 55.9227 15.0744C56.6 15.7376 56.5991 16.8125 55.9227 17.4764Z"
                        fill="#24CE7B" />
                    <path
                        d="M21.5373 5.323L16.9771 0.857169C16.3471 0.240184 15.3248 0.240184 14.6946 0.857169L0.47259 14.7826C-0.15753 15.398 -0.15753 16.3998 0.47259 17.016L5.03362 21.4835C5.66291 22.0998 6.68678 22.0998 7.31525 21.4835L21.5373 7.55788C22.1682 6.9409 22.1682 5.94068 21.5373 5.323ZM6.97982 17.8707C6.30259 18.533 5.2041 18.533 4.52676 17.8707C3.84964 17.2069 3.84964 16.1319 4.52676 15.4688C5.20398 14.8058 6.30259 14.8058 6.97982 15.4688C7.65705 16.1319 7.65705 17.2068 6.97982 17.8707Z"
                        fill="#24CE7B" />
                    <path
                        d="M37.4921 20.6932L36.9156 20.9436L36.2879 21.1654L36.2426 21.179C36.1321 21.2132 35.0992 21.5224 33.0628 21.8046C31.9861 21.9518 30.9192 21.9701 29.8864 21.8548C29.478 21.8103 29.0719 21.745 28.6708 21.6592L25.3936 24.8666C23.4245 26.7946 20.218 26.7946 18.2489 24.8666C18.1798 24.7982 18.1133 24.729 18.0516 24.6607L18.0305 24.6375C16.7874 23.2573 16.4715 21.3682 17.0562 19.7288L18.3163 17.8087L18.314 17.8064L25.9979 10.2835C26.3104 9.97821 26.6385 9.69359 26.9795 9.42481C24.585 8.96447 22.576 9.10042 22.576 9.10042L10.4008 21.0239C10.2368 23.2191 11.7764 25.6249 12.8717 27.0299C14.8425 25.1845 17.9768 25.2084 19.9133 27.1055C20.6343 27.8107 21.0883 28.6797 21.2798 29.5908C22.2119 29.78 23.0987 30.2237 23.8198 30.9297C24.5408 31.6365 24.9948 32.5055 25.1864 33.4174C26.1177 33.605 27.006 34.0486 27.7263 34.7547C28.2078 35.2262 28.5708 35.7701 28.8152 36.3521C30.1257 36.3362 31.4412 36.8163 32.4384 37.7919C34.4042 39.7151 34.4034 42.8477 32.4384 44.7702L31.6345 45.5589L32.0372 45.9533C33.1173 47.0107 34.8653 47.0107 35.9446 45.9533C37.0237 44.8974 37.0237 43.1849 35.9446 42.1282L36.7484 42.9177C37.8283 43.9736 39.5757 43.9736 40.6549 42.9177C41.734 41.8603 41.7348 40.1485 40.6549 39.0911C41.7348 40.1485 43.4822 40.1485 44.5613 39.0911C45.6397 38.0361 45.6421 36.3235 44.5613 35.2659C45.6421 36.3235 47.3895 36.3235 48.4679 35.2659C49.5479 34.2102 49.5479 32.4975 48.4679 31.4417L37.4921 20.6932Z"
                        fill="#24CE7B" />
                </svg>