<svg width="185" height="47" viewBox="0 0 185 47" fill="none" xmlns="http://www.w3.org/2000/svg">
                    <path
                        d="M58.2155 16.9722H54.9832V4.85631H62.1624V7.48336H58.2155V9.79549H61.855V12.4225H58.2155V16.9722Z"
                        fill="#1d1d1f" />
                    <path
                        d="M71.0996 16.9722L70.5013 14.7015H66.5544L65.9395 16.9722H62.3333L66.2968 4.80659H70.6758L74.6892 16.9722H71.0996ZM69.8199 12.0165L69.2965 10.0275C69.2411 9.81207 69.1607 9.50544 69.0555 9.10765C68.9502 8.70434 68.845 8.28998 68.7397 7.86457C68.64 7.43363 68.5625 7.08005 68.5071 6.80381C68.4572 7.08005 68.3852 7.42259 68.291 7.83142C68.2024 8.23473 68.1082 8.63528 68.0085 9.03307C67.9144 9.43085 67.8313 9.76234 67.7592 10.0275L67.2358 12.0165H69.8199Z"
                        fill="#1d1d1f" />
                    <path
                        d="M80.7929 16.9722L78.3084 8.24578H78.2336C78.2558 8.4723 78.2779 8.77893 78.3001 9.16566C78.3278 9.5524 78.3527 9.96952 78.3749 10.417C78.397 10.8645 78.4081 11.2955 78.4081 11.7098V16.9722H75.4998V4.85631H79.8705L82.4049 13.4584H82.4713L84.9558 4.85631H89.3348V16.9722H86.3185V11.6601C86.3185 11.2789 86.3241 10.8701 86.3352 10.4336C86.3518 9.99162 86.3684 9.57726 86.385 9.19053C86.4072 8.79826 86.4266 8.48887 86.4432 8.26236H86.3684L83.9172 16.9722H80.7929Z"
                        fill="#1d1d1f" />
                    <path d="M91.4417 16.9722V4.85631H94.7405V16.9722H91.4417Z" fill="#1d1d1f" />
                    <path d="M96.864 16.9722V4.85631H100.146V14.3286H104.824V16.9722H96.864Z" fill="#1d1d1f" />
                    <path
                        d="M110.596 9.34798L112.69 4.85631H116.246L112.249 12.2402V16.9722H108.942V12.3397L104.945 4.85631H108.518L110.596 9.34798Z"
                        fill="#1d1d1f" />
                    <path d="M116.093 13.7153V11.1297H120.787V13.7153H116.093Z" fill="#1d1d1f" />
                    <path
                        d="M133.323 10.8977C133.323 11.8314 133.209 12.6822 132.982 13.4502C132.76 14.2126 132.411 14.87 131.935 15.4225C131.458 15.975 130.846 16.4004 130.099 16.6987C129.351 16.9916 128.456 17.138 127.415 17.138C126.395 17.138 125.512 16.9916 124.764 16.6987C124.022 16.4004 123.41 15.9778 122.928 15.4308C122.446 14.8783 122.088 14.2181 121.856 13.4502C121.623 12.6822 121.507 11.8259 121.507 10.8811C121.507 9.62146 121.714 8.52755 122.13 7.59938C122.551 6.66569 123.199 5.9447 124.074 5.43642C124.95 4.92261 126.069 4.6657 127.431 4.6657C128.816 4.6657 129.941 4.92261 130.805 5.43642C131.675 5.95022 132.312 6.67397 132.716 7.60767C133.12 8.54136 133.323 9.63803 133.323 10.8977ZM124.963 10.8977C124.963 11.627 125.046 12.254 125.213 12.7789C125.379 13.3037 125.642 13.7071 126.002 13.9888C126.362 14.2706 126.833 14.4115 127.415 14.4115C128.018 14.4115 128.498 14.2706 128.852 13.9888C129.212 13.7071 129.47 13.3037 129.625 12.7789C129.786 12.254 129.866 11.627 129.866 10.8977C129.866 9.80378 129.683 8.93915 129.317 8.30379C128.952 7.66844 128.323 7.35076 127.431 7.35076C126.839 7.35076 126.359 7.49441 125.994 7.7817C125.634 8.06899 125.371 8.47782 125.204 9.00821C125.044 9.53859 124.963 10.1684 124.963 10.8977Z"
                        fill="#1d1d1f" />
                    <path
                        d="M151.117 4.85631L148.126 16.9722H144.246L143.082 11.6933C143.06 11.5938 143.024 11.4253 142.974 11.1877C142.93 10.9502 142.877 10.6795 142.816 10.3756C142.761 10.0717 142.708 9.77339 142.659 9.48058C142.614 9.18224 142.581 8.93086 142.559 8.72644C142.537 8.93086 142.501 9.18224 142.451 9.48058C142.401 9.77339 142.346 10.0717 142.285 10.3756C142.229 10.6795 142.174 10.9502 142.118 11.1877C142.069 11.4253 142.033 11.5938 142.01 11.6933L140.839 16.9722H136.958L133.95 4.85631H137.116L138.437 10.9308C138.471 11.08 138.515 11.2927 138.57 11.569C138.631 11.8397 138.692 12.138 138.753 12.464C138.82 12.7844 138.881 13.0938 138.936 13.3921C138.991 13.6905 139.03 13.9391 139.052 14.138C139.097 13.7955 139.155 13.406 139.227 12.9695C139.304 12.533 139.387 12.0911 139.476 11.6435C139.57 11.1905 139.659 10.7706 139.742 10.3839C139.825 9.99715 139.897 9.68223 139.958 9.43914L141.03 4.85631H144.071L145.11 9.43914C145.165 9.67671 145.234 9.99162 145.318 10.3839C145.406 10.7706 145.495 11.1905 145.583 11.6435C145.678 12.0966 145.763 12.5441 145.841 12.9861C145.919 13.4225 145.977 13.8065 146.015 14.138C146.049 13.8618 146.104 13.5137 146.182 13.0938C146.259 12.6684 146.337 12.2568 146.414 11.859C146.497 11.4557 146.561 11.1518 146.605 10.9474L147.952 4.85631H151.117Z"
                        fill="#1d1d1f" />
                    <path
                        d="M163.744 16.9722H159.44L155.002 8.43639H154.928C154.955 8.69605 154.98 9.00821 155.002 9.37284C155.025 9.73748 155.044 10.1104 155.061 10.4916C155.077 10.8673 155.086 11.2071 155.086 11.5109V16.9722H152.177V4.85631H156.465L160.885 13.2761H160.935C160.919 13.0109 160.902 12.7043 160.885 12.3562C160.869 12.0027 160.852 11.6463 160.836 11.2872C160.825 10.9281 160.819 10.6104 160.819 10.3342V4.85631H163.744V16.9722Z"
                        fill="#1d1d1f" />
                    <path
                        d="M173.072 16.9722H165.859V4.85631H173.072V7.48336H169.141V9.38942H172.781V12.0165H169.141V14.3037H173.072V16.9722Z"
                        fill="#1d1d1f" />
                    <path
                        d="M185 10.6574C185 12.0662 184.737 13.2374 184.211 14.1711C183.684 15.1048 182.942 15.8065 181.984 16.2761C181.031 16.7402 179.909 16.9722 178.618 16.9722H174.688V4.85631H178.893C180.2 4.85631 181.308 5.08006 182.216 5.52757C183.125 5.97508 183.815 6.62977 184.285 7.49165C184.762 8.35352 185 9.40876 185 10.6574ZM181.593 10.7734C181.593 10.0386 181.493 9.43085 181.294 8.9502C181.1 8.46401 180.807 8.10214 180.413 7.86457C180.02 7.62148 179.524 7.49993 178.926 7.49993H177.97V14.2872H178.702C179.699 14.2872 180.43 13.9999 180.895 13.4253C181.361 12.8452 181.593 11.9612 181.593 10.7734Z"
                        fill="#1d1d1f" />
                    <path
                        d="M72.2026 36.8163C72.2026 38.1809 72.0366 39.4244 71.7047 40.5468C71.3809 41.6611 70.8708 42.622 70.1745 43.4295C69.4782 44.237 68.5836 44.8587 67.4906 45.2947C66.3976 45.7227 65.0901 45.9367 63.568 45.9367C62.0783 45.9367 60.7869 45.7227 59.6939 45.2947C58.609 44.8587 57.7144 44.241 57.01 43.4416C56.3057 42.6341 55.7835 41.6692 55.4434 40.5468C55.1034 39.4244 54.9334 38.1728 54.9334 36.7921C54.9334 34.951 55.237 33.3522 55.8442 31.9957C56.4595 30.631 57.4068 29.5773 58.686 28.8344C59.9652 28.0835 61.6006 27.708 63.5923 27.708C65.6163 27.708 67.2599 28.0835 68.5229 28.8344C69.794 29.5854 70.7251 30.6432 71.3161 32.0078C71.9071 33.3724 72.2026 34.9752 72.2026 36.8163ZM59.9854 36.8163C59.9854 37.8821 60.1068 38.7986 60.3497 39.5657C60.5926 40.3328 60.9772 40.9223 61.5034 41.3341C62.0297 41.7459 62.7179 41.9518 63.568 41.9518C64.4505 41.9518 65.1508 41.7459 65.669 41.3341C66.1952 40.9223 66.5717 40.3328 66.7984 39.5657C67.0332 38.7986 67.1506 37.8821 67.1506 36.8163C67.1506 35.2175 66.8834 33.9538 66.349 33.0252C65.8147 32.0966 64.8958 31.6323 63.5923 31.6323C62.726 31.6323 62.0257 31.8423 61.4913 32.2621C60.965 32.682 60.5805 33.2796 60.3376 34.0547C60.1028 34.8299 59.9854 35.7504 59.9854 36.8163Z"
                        fill="#1d1d1f" />
                    <path
                        d="M81.8025 27.9866C84.0532 27.9866 85.7373 28.4751 86.8545 29.4521C87.9799 30.4292 88.5426 31.818 88.5426 33.6187C88.5426 34.4262 88.4252 35.2013 88.1904 35.9442C87.9637 36.6871 87.5872 37.3492 87.061 37.9306C86.5428 38.512 85.8506 38.9722 84.9843 39.3114C84.1261 39.6505 83.0655 39.8201 81.8025 39.8201H80.4545V45.6944H75.6574V27.9866H81.8025ZM81.6932 31.8503H80.4545V35.92H81.4017C81.8146 35.92 82.1992 35.8514 82.5554 35.7141C82.9117 35.5687 83.195 35.3386 83.4055 35.0237C83.6241 34.7007 83.7334 34.2727 83.7334 33.7398C83.7334 33.1827 83.5675 32.7305 83.2355 32.3833C82.9036 32.028 82.3895 31.8503 81.6932 31.8503Z"
                        fill="#1d1d1f" />
                    <path
                        d="M102.162 45.6944H91.6209V27.9866H102.162V31.8261H96.418V34.6119H101.737V38.4514H96.418V41.7944H102.162V45.6944Z"
                        fill="#1d1d1f" />
                    <path
                        d="M111.337 27.9866C112.948 27.9866 114.288 28.1844 115.357 28.5801C116.426 28.9677 117.227 29.549 117.761 30.3242C118.304 31.0994 118.575 32.0643 118.575 33.219C118.575 33.9376 118.454 34.5917 118.211 35.1812C117.968 35.7706 117.62 36.2995 117.166 36.7678C116.721 37.2281 116.187 37.6318 115.563 37.979L120.737 45.6944H115.296L111.531 39.2508H110.317V45.6944H105.52V27.9866H111.337ZM111.264 31.6081H110.317V35.6535H111.216C111.952 35.6535 112.556 35.492 113.025 35.169C113.495 34.8461 113.729 34.2687 113.729 33.437C113.729 32.8637 113.535 32.4156 113.147 32.0926C112.758 31.7696 112.13 31.6081 111.264 31.6081Z"
                        fill="#1d1d1f" />
                    <path
                        d="M133.494 45.6944L132.62 42.3757H126.851L125.953 45.6944H120.682L126.475 27.9139H132.875L138.741 45.6944H133.494ZM131.624 38.4514L130.859 35.5445C130.778 35.2296 130.66 34.7815 130.507 34.2001C130.353 33.6106 130.199 33.005 130.045 32.3833C129.899 31.7534 129.786 31.2367 129.705 30.8329C129.632 31.2367 129.527 31.7373 129.389 32.3348C129.26 32.9243 129.122 33.5097 128.976 34.0911C128.839 34.6724 128.717 35.1569 128.612 35.5445L127.847 38.4514H131.624Z"
                        fill="#1d1d1f" />
                    <path d="M148.753 45.6944H143.956V31.8988H139.621V27.9866H153.077V31.8988H148.753V45.6944Z"
                        fill="#1d1d1f" />
                    <path
                        d="M166.405 45.6944H155.864V27.9866H166.405V31.8261H160.661V34.6119H165.98V38.4514H160.661V41.7944H166.405V45.6944Z"
                        fill="#1d1d1f" />
                    <path
                        d="M184.834 36.465C184.834 38.5241 184.449 40.2359 183.68 41.6006C182.911 42.9652 181.826 43.9907 180.425 44.677C179.033 45.3553 177.393 45.6944 175.507 45.6944H169.763V27.9866H175.908C177.818 27.9866 179.438 28.3136 180.765 28.9677C182.093 29.6217 183.101 30.5786 183.789 31.8382C184.486 33.0979 184.834 34.6401 184.834 36.465ZM179.854 36.6346C179.854 35.5607 179.709 34.6724 179.417 33.9699C179.134 33.2594 178.705 32.7305 178.13 32.3833C177.555 32.028 176.831 31.8503 175.956 31.8503H174.56V41.7701H175.628C177.086 41.7701 178.154 41.3502 178.834 40.5105C179.514 39.6626 179.854 38.3707 179.854 36.6346Z"
                        fill="#1d1d1f" />
                    <path fill-rule="evenodd" clip-rule="evenodd"
                        d="M18.0609 8.2273C23.4209 8.2273 27.7861 12.5754 27.7861 17.9205V20.69C27.7861 23.6754 26.3968 26.3148 24.26 28.0955C26.5718 28.4362 28.8614 28.9513 31.0954 29.6769C34.1019 30.6518 36.1219 33.4877 36.1219 36.7308V41.6355L35.4634 42.0426C31.8178 44.3025 25.8355 47 18.0609 47C13.768 47 7.2605 46.1387 0.655748 42.0426L0 41.6355V36.9994C0 33.5569 2.19231 30.5604 5.45162 29.5384C7.54947 28.8848 9.689 28.4002 11.8452 28.0817C9.71956 26.3009 8.33583 23.6671 8.33583 20.69V17.9205C8.33583 12.5754 12.6982 8.2273 18.0609 8.2273ZM29.0642 0C34.4242 0 38.7893 4.34809 38.7893 9.69318V12.4627C38.7893 15.4481 37.4 18.0902 35.2633 19.8682C37.5751 20.2089 39.8619 20.7268 42.0987 21.4496C45.1051 22.43 47.1252 25.2632 47.1252 28.5062V33.411L46.4694 33.8181C44.5633 35.0007 42.0042 36.2912 38.9005 37.2633V36.7316C38.9005 32.2838 36.1108 28.3899 31.9568 27.044C31.0527 26.7502 30.1389 26.4869 29.2171 26.2547C30.0951 24.5459 30.5647 22.646 30.5647 20.6908V17.9213C30.5647 11.7897 26.0939 6.71045 20.2394 5.67743C21.7787 2.33744 25.1409 0 29.0642 0Z"
                        fill="#24CE7B" />
                </svg>