<svg width="31" height="40" viewBox="0 0 31 40" fill="none" xmlns="http://www.w3.org/2000/svg">
<path d="M25.0364 0H16.0286L12.95 18.6739C12.8819 18.6765 12.8141 18.6836 12.7471 18.6952C5.94357 19.5691 0.663773 25.1403 0.71373 31.367C0.697178 32.532 0.916975 33.6888 1.36056 34.7713C1.80415 35.8537 2.46284 36.8406 3.29899 37.6756C4.01127 38.4069 4.86892 38.9899 5.81996 39.3895C6.771 39.789 7.79561 39.9967 8.8317 40C9.63482 39.9999 10.4324 39.8707 11.1922 39.6177C14.8671 38.4039 16.091 35.3998 16.6562 32.6597C16.8185 29.601 15.1419 26.5908 11.929 24.8005L10.9205 31.0211C10.6083 32.7871 10.1743 33.8492 9.26569 34.1526C8.97023 34.232 8.65788 34.2301 8.36348 34.147C8.06908 34.064 7.80421 33.9031 7.59839 33.6823C7.28217 33.3723 7.03563 33.0018 6.87439 32.5944C6.71316 32.187 6.64073 31.7515 6.6617 31.3154C6.63048 28.2051 9.14392 25.7624 11.9196 24.8005C12.8221 24.4918 13.7731 24.3388 14.7297 24.3484C15.7852 24.3603 16.832 24.5365 17.8301 24.8703C21.5769 25.7321 23.8687 29.601 24.4244 33.7885L24.7554 36.1432H31L25.0364 0ZM18.6232 19.0684L20.4217 5.71689H20.6433L22.6416 20.6251C21.3715 19.9509 20.0223 19.4282 18.6232 19.0684Z" fill="#FF6153"/>
</svg>
