<svg width="289" height="47" viewBox="0 0 289 47" fill="none" xmlns="http://www.w3.org/2000/svg">
<path d="M129.695 12.3472C129.695 13.2882 129.458 14.1817 128.983 15.0278C128.509 15.8659 127.77 16.546 126.765 17.0678C125.769 17.5897 124.48 17.8507 122.899 17.8507C122.108 17.8507 121.412 17.8151 120.812 17.7439C120.219 17.6727 119.665 17.5581 119.151 17.3999C118.637 17.2339 118.103 17.0204 117.55 16.7595V12.5844C118.491 13.0589 119.44 13.4226 120.396 13.6756C121.353 13.9207 122.219 14.0433 122.994 14.0433C123.46 14.0433 123.84 13.988 124.132 13.8773C124.433 13.7666 124.654 13.6163 124.797 13.4265C124.939 13.2289 125.01 13.0035 125.01 12.7505C125.01 12.45 124.903 12.197 124.69 11.9914C124.484 11.7779 124.152 11.5565 123.694 11.3272C123.235 11.0978 122.63 10.8132 121.879 10.4732C121.239 10.1727 120.657 9.86432 120.136 9.54802C119.622 9.23173 119.179 8.87195 118.807 8.46868C118.443 8.0575 118.163 7.57911 117.965 7.03351C117.767 6.48791 117.669 5.84347 117.669 5.10019C117.669 3.98526 117.941 3.0522 118.487 2.30101C119.04 1.54192 119.807 0.972594 120.788 0.593045C121.776 0.213496 122.915 0.0237218 124.204 0.0237218C125.334 0.0237218 126.35 0.150238 127.252 0.403271C128.161 0.656303 128.975 0.944918 129.695 1.26912L128.26 4.88669C127.516 4.54668 126.785 4.27783 126.066 4.08015C125.346 3.87456 124.678 3.77177 124.061 3.77177C123.658 3.77177 123.326 3.82316 123.065 3.92596C122.812 4.02084 122.622 4.15131 122.496 4.31737C122.377 4.48342 122.318 4.67319 122.318 4.88669C122.318 5.15554 122.421 5.39671 122.626 5.61021C122.84 5.8237 123.191 6.05697 123.682 6.31C124.18 6.55512 124.856 6.87537 125.71 7.27073C126.556 7.65028 127.275 8.06146 127.868 8.50426C128.461 8.93916 128.912 9.465 129.22 10.0818C129.537 10.6906 129.695 11.4458 129.695 12.3472Z" fill="black"/>
<path d="M142.285 17.6134L141.431 14.3635H135.798L134.92 17.6134H129.773L135.43 0.201635H141.68L147.409 17.6134H142.285ZM140.459 10.5206L139.711 7.674C139.632 7.36562 139.518 6.92677 139.367 6.35744C139.217 5.78021 139.067 5.18717 138.917 4.57831C138.774 3.96154 138.664 3.45548 138.585 3.06011C138.514 3.45548 138.411 3.94573 138.276 4.53086C138.15 5.10809 138.015 5.68137 137.873 6.25069C137.739 6.82002 137.62 7.29445 137.517 7.674L136.77 10.5206H140.459Z" fill="black"/>
<path d="M156.216 17.6134H151.531V4.10387H147.297V0.272801H160.438V4.10387H156.216V17.6134Z" fill="black"/>
<path d="M162.188 17.6134V0.272801H166.896V17.6134H162.188Z" fill="black"/>
<path d="M181.266 12.3472C181.266 13.2882 181.028 14.1817 180.554 15.0278C180.08 15.8659 179.34 16.546 178.336 17.0678C177.34 17.5897 176.051 17.8507 174.47 17.8507C173.679 17.8507 172.983 17.8151 172.382 17.7439C171.789 17.6727 171.236 17.5581 170.722 17.3999C170.208 17.2339 169.674 17.0204 169.121 16.7595V12.5844C170.062 13.0589 171.011 13.4226 171.967 13.6756C172.924 13.9207 173.79 14.0433 174.565 14.0433C175.031 14.0433 175.411 13.988 175.703 13.8773C176.004 13.7666 176.225 13.6163 176.367 13.4265C176.51 13.2289 176.581 13.0035 176.581 12.7505C176.581 12.45 176.474 12.197 176.261 11.9914C176.055 11.7779 175.723 11.5565 175.264 11.3272C174.806 11.0978 174.201 10.8132 173.45 10.4732C172.809 10.1727 172.228 9.86432 171.706 9.54802C171.192 9.23173 170.75 8.87195 170.378 8.46868C170.014 8.0575 169.734 7.57911 169.536 7.03351C169.338 6.48791 169.239 5.84347 169.239 5.10019C169.239 3.98526 169.512 3.0522 170.058 2.30101C170.611 1.54192 171.378 0.972594 172.359 0.593045C173.347 0.213496 174.486 0.0237218 175.774 0.0237218C176.905 0.0237218 177.921 0.150238 178.822 0.403271C179.732 0.656303 180.546 0.944918 181.266 1.26912L179.831 4.88669C179.087 4.54668 178.356 4.27783 177.636 4.08015C176.917 3.87456 176.249 3.77177 175.632 3.77177C175.229 3.77177 174.897 3.82316 174.636 3.92596C174.383 4.02084 174.193 4.15131 174.066 4.31737C173.948 4.48342 173.889 4.67319 173.889 4.88669C173.889 5.15554 173.991 5.39671 174.197 5.61021C174.41 5.8237 174.762 6.05697 175.253 6.31C175.751 6.55512 176.427 6.87537 177.281 7.27073C178.127 7.65028 178.846 8.06146 179.439 8.50426C180.032 8.93916 180.483 9.465 180.791 10.0818C181.107 10.6906 181.266 11.4458 181.266 12.3472Z" fill="black"/>
<path d="M187.831 17.6134H183.217V0.272801H193.465V4.03271H187.831V7.3419H193.026V11.1018H187.831V17.6134Z" fill="black"/>
<path d="M206.221 17.6134L205.367 14.3635H199.733L198.856 17.6134H193.708L199.366 0.201635H205.616L211.344 17.6134H206.221ZM204.394 10.5206L203.647 7.674C203.568 7.36562 203.453 6.92677 203.303 6.35744C203.153 5.78021 203.003 5.18717 202.853 4.57831C202.71 3.96154 202.6 3.45548 202.52 3.06011C202.449 3.45548 202.347 3.94573 202.212 4.53086C202.086 5.10809 201.951 5.68137 201.809 6.25069C201.674 6.82002 201.556 7.29445 201.453 7.674L200.706 10.5206H204.394Z" fill="black"/>
<path d="M220.222 3.86665C219.669 3.86665 219.175 3.98526 218.74 4.22248C218.305 4.45179 217.933 4.78785 217.625 5.23066C217.317 5.67346 217.08 6.21511 216.913 6.8556C216.755 7.48818 216.676 8.20774 216.676 9.01428C216.676 10.1055 216.815 11.0227 217.091 11.766C217.368 12.5093 217.787 13.0707 218.349 13.4503C218.918 13.8298 219.629 14.0196 220.483 14.0196C221.258 14.0196 222.001 13.9128 222.713 13.6993C223.433 13.4858 224.156 13.2289 224.883 12.9284V16.8899C224.117 17.2299 223.33 17.4751 222.523 17.6253C221.725 17.7755 220.875 17.8507 219.973 17.8507C218.092 17.8507 216.55 17.479 215.348 16.7357C214.154 15.9845 213.272 14.9447 212.703 13.6163C212.142 12.2879 211.861 10.746 211.861 8.99056C211.861 7.67796 212.043 6.47605 212.407 5.38485C212.778 4.29365 213.32 3.34873 214.031 2.55009C214.743 1.74355 215.621 1.12283 216.664 0.687932C217.716 0.245125 218.918 0.0237218 220.27 0.0237218C221.108 0.0237218 221.99 0.122563 222.915 0.320244C223.848 0.510019 224.757 0.818402 225.643 1.24539L224.207 4.93413C223.575 4.63366 222.934 4.38063 222.286 4.17504C221.638 3.96945 220.95 3.86665 220.222 3.86665Z" fill="black"/>
<path d="M235.197 17.6134H230.512V4.10387H226.278V0.272801H239.419V4.10387H235.197V17.6134Z" fill="black"/>
<path d="M241.169 17.6134V0.272801H245.877V17.6134H241.169Z" fill="black"/>
<path d="M265.133 8.9194C265.133 10.2557 264.971 11.4734 264.647 12.5726C264.331 13.6638 263.832 14.6047 263.152 15.3954C262.472 16.1862 261.599 16.795 260.531 17.222C259.464 17.6411 258.187 17.8507 256.701 17.8507C255.246 17.8507 253.985 17.6411 252.917 17.222C251.858 16.795 250.984 16.1901 250.296 15.4073C249.608 14.6166 249.098 13.6717 248.766 12.5726C248.434 11.4734 248.268 10.2478 248.268 8.89567C248.268 7.09282 248.564 5.52718 249.157 4.19876C249.758 2.86243 250.683 1.83053 251.933 1.10306C253.182 0.367688 254.779 0 256.724 0C258.701 0 260.306 0.367688 261.539 1.10306C262.781 1.83844 263.69 2.87429 264.267 4.21062C264.844 5.54695 265.133 7.11654 265.133 8.9194ZM253.202 8.9194C253.202 9.96316 253.32 10.8606 253.558 11.6118C253.795 12.363 254.17 12.9402 254.684 13.3435C255.198 13.7468 255.87 13.9484 256.701 13.9484C257.562 13.9484 258.246 13.7468 258.752 13.3435C259.266 12.9402 259.634 12.363 259.855 11.6118C260.085 10.8606 260.199 9.96316 260.199 8.9194C260.199 7.35376 259.938 6.11627 259.416 5.20693C258.895 4.2976 257.997 3.84293 256.724 3.84293C255.878 3.84293 255.194 4.04852 254.672 4.4597C254.158 4.87088 253.783 5.45601 253.546 6.21511C253.316 6.97421 253.202 7.87564 253.202 8.9194Z" fill="black"/>
<path d="M284.045 17.6134H277.901L271.568 5.39671H271.461C271.501 5.76835 271.536 6.21511 271.568 6.73699C271.6 7.25887 271.627 7.79261 271.651 8.33821C271.675 8.87591 271.687 9.3622 271.687 9.7971V17.6134H267.535V0.272801H273.655L279.965 12.3235H280.036C280.012 11.9439 279.989 11.5051 279.965 11.0069C279.941 10.5008 279.917 9.99083 279.894 9.47686C279.878 8.96289 279.87 8.50822 279.87 8.11285V0.272801H284.045V17.6134Z" fill="black"/>
<path d="M125.318 36.6099H132.802V45.9562C131.909 46.2646 130.885 46.5177 129.73 46.7153C128.576 46.9051 127.366 47 126.101 47C124.433 47 122.97 46.6758 121.713 46.0274C120.456 45.379 119.475 44.3946 118.772 43.074C118.068 41.7456 117.716 40.0693 117.716 38.045C117.716 36.2263 118.064 34.6568 118.76 33.3362C119.456 32.0078 120.479 30.9838 121.832 30.2643C123.191 29.5368 124.856 29.1731 126.825 29.1731C127.908 29.1731 128.936 29.2759 129.908 29.4815C130.881 29.687 131.727 29.948 132.446 30.2643L130.964 33.9412C130.339 33.6328 129.691 33.4035 129.019 33.2532C128.347 33.0951 127.623 33.016 126.848 33.016C125.813 33.016 124.978 33.2493 124.346 33.7158C123.721 34.1823 123.267 34.807 122.982 35.5898C122.697 36.3647 122.555 37.2227 122.555 38.1636C122.555 39.239 122.705 40.1484 123.006 40.8916C123.314 41.627 123.761 42.1884 124.346 42.5759C124.939 42.9554 125.654 43.1452 126.493 43.1452C126.769 43.1452 127.105 43.1254 127.501 43.0859C127.904 43.0464 128.208 42.9989 128.414 42.9436V40.2274H125.318V36.6099Z" fill="black"/>
<path d="M151.807 29.4221V39.8597C151.807 41.3147 151.531 42.5798 150.977 43.6552C150.424 44.7227 149.593 45.549 148.487 46.1342C147.38 46.7114 145.992 47 144.324 47C141.936 47 140.113 46.3872 138.856 45.1616C137.599 43.9359 136.97 42.2042 136.97 39.9665V29.4221H141.679V39.5988C141.679 40.8244 141.908 41.714 142.367 42.2675C142.825 42.821 143.501 43.0978 144.395 43.0978C145.035 43.0978 145.557 42.9792 145.96 42.7419C146.364 42.4968 146.656 42.1133 146.838 41.5914C147.028 41.0695 147.123 40.3974 147.123 39.5751V29.4221H151.807Z" fill="black"/>
<path d="M166.816 46.7628L165.962 43.5129H160.328L159.451 46.7628H154.303L159.961 29.351H166.211L171.939 46.7628H166.816ZM164.989 39.67L164.242 36.8233C164.163 36.515 164.048 36.0761 163.898 35.5068C163.748 34.9296 163.598 34.3365 163.447 33.7277C163.305 33.1109 163.194 32.6048 163.115 32.2095C163.044 32.6048 162.941 33.0951 162.807 33.6802C162.68 34.2574 162.546 34.8307 162.404 35.4C162.269 35.9694 162.151 36.4438 162.048 36.8233L161.301 39.67H164.989Z" fill="black"/>
<path d="M180.235 29.4221C181.808 29.4221 183.117 29.6159 184.16 30.0033C185.204 30.3829 185.987 30.9522 186.509 31.7113C187.039 32.4704 187.303 33.4153 187.303 34.5461C187.303 35.2498 187.185 35.8903 186.948 36.4675C186.71 37.0448 186.37 37.5627 185.928 38.0213C185.493 38.472 184.971 38.8674 184.362 39.2074L189.415 46.7628H184.101L180.424 40.4528H179.238V46.7628H174.554V29.4221H180.235ZM180.164 32.9686H179.238V36.9301H180.116C180.836 36.9301 181.425 36.7719 181.883 36.4557C182.342 36.1394 182.571 35.574 182.571 34.7596C182.571 34.1981 182.381 33.7593 182.002 33.443C181.622 33.1267 181.01 32.9686 180.164 32.9686Z" fill="black"/>
<path d="M202.359 46.7628L201.505 43.5129H195.872L194.994 46.7628H189.847L195.504 29.351H201.754L207.483 46.7628H202.359ZM200.533 39.67L199.786 36.8233C199.706 36.515 199.592 36.0761 199.442 35.5068C199.291 34.9296 199.141 34.3365 198.991 33.7277C198.849 33.1109 198.738 32.6048 198.659 32.2095C198.588 32.6048 198.485 33.0951 198.35 33.6802C198.224 34.2574 198.09 34.8307 197.947 35.4C197.813 35.9694 197.694 36.4438 197.591 36.8233L196.844 39.67H200.533Z" fill="black"/>
<path d="M226.607 46.7628H220.463L214.13 34.5461H214.023C214.062 34.9177 214.098 35.3645 214.13 35.8863C214.161 36.4082 214.189 36.942 214.213 37.4876C214.236 38.0253 214.248 38.5116 214.248 38.9464V46.7628H210.097V29.4221H216.217L222.527 41.4728H222.598C222.574 41.0933 222.55 40.6544 222.527 40.1563C222.503 39.6502 222.479 39.1402 222.455 38.6262C222.44 38.1122 222.432 37.6576 222.432 37.2622V29.4221H226.607V46.7628Z" fill="black"/>
<path d="M238.733 46.7628H234.048V33.2532H229.814V29.4221H242.955V33.2532H238.733V46.7628Z" fill="black"/>
<path d="M256.457 46.7628H246.163V29.4221H256.457V33.1821H250.847V35.9101H256.042V39.67H250.847V42.9436H256.457V46.7628Z" fill="black"/>
<path d="M270.517 46.7628H260.222V29.4221H270.517V33.1821H264.907V35.9101H270.102V39.67H264.907V42.9436H270.517V46.7628Z" fill="black"/>
<path d="M289 37.7248C289 39.7411 288.624 41.4175 287.873 42.7538C287.122 44.0901 286.063 45.0943 284.695 45.7665C283.335 46.4307 281.734 46.7628 279.891 46.7628H274.282V29.4221H280.283C282.149 29.4221 283.73 29.7424 285.027 30.3829C286.324 31.0234 287.308 31.9604 287.98 33.1939C288.66 34.4274 289 35.9377 289 37.7248ZM284.137 37.8908C284.137 36.8392 283.995 35.9694 283.71 35.2814C283.434 34.5856 283.015 34.0677 282.453 33.7277C281.892 33.3797 281.184 33.2058 280.33 33.2058H278.966V42.9198H280.01C281.433 42.9198 282.477 42.5087 283.141 41.6863C283.805 40.8561 284.137 39.5909 284.137 37.8908Z" fill="black"/>
<path d="M17.6384 38.6657H9.39483V23.8017C9.39483 23.5275 9.39483 23.0273 9.39483 22.3009C9.39483 21.5607 9.40168 20.7452 9.41539 19.8544C9.4428 18.9635 9.47706 18.1617 9.51817 17.449C9.16184 17.8738 8.82607 18.2371 8.51085 18.5386C8.20934 18.8401 7.91468 19.1211 7.62687 19.3815L4.21431 22.1981L0 17.0172L10.3199 8.60864H17.6384V38.6657Z" fill="black"/>
<path d="M46.1313 23.6783C46.1313 26.0906 45.9394 28.2492 45.5557 30.1544C45.1719 32.0458 44.5552 33.6562 43.7055 34.9857C42.8695 36.3152 41.7594 37.3294 40.3751 38.0284C38.9909 38.7274 37.2915 39.0769 35.2769 39.0769C32.7688 39.0769 30.7131 38.467 29.1096 37.2472C27.5061 36.0136 26.3206 34.2524 25.5531 31.9635C24.7993 29.6609 24.4224 26.8992 24.4224 23.6783C24.4224 20.43 24.7651 17.6546 25.4503 15.352C26.1493 13.0357 27.2937 11.2607 28.8834 10.0272C30.4732 8.79367 32.6044 8.1769 35.2769 8.1769C37.7849 8.1769 39.8338 8.79367 41.4236 10.0272C43.0271 11.247 44.2126 13.0151 44.9801 15.3314C45.7475 17.634 46.1313 20.4163 46.1313 23.6783ZM32.5016 23.6783C32.5016 25.6383 32.5701 27.283 32.7072 28.6124C32.8579 29.9419 33.132 30.9425 33.5295 31.614C33.9406 32.2719 34.5231 32.6009 35.2769 32.6009C36.0306 32.6009 36.6063 32.2719 37.0037 31.614C37.4011 30.9425 37.6752 29.9488 37.826 28.633C37.9768 27.3035 38.0521 25.652 38.0521 23.6783C38.0521 21.6909 37.9768 20.0325 37.826 18.7031C37.6752 17.3736 37.4011 16.373 37.0037 15.7015C36.6063 15.0162 36.0306 14.6735 35.2769 14.6735C34.5231 14.6735 33.9406 15.0162 33.5295 15.7015C33.132 16.373 32.8579 17.3736 32.7072 18.7031C32.5701 20.0325 32.5016 21.6909 32.5016 23.6783Z" fill="black"/>
<path d="M70.8004 23.6783C70.8004 26.0906 70.6085 28.2492 70.2248 30.1544C69.8411 32.0458 69.2243 33.6562 68.3746 34.9857C67.5386 36.3152 66.4285 37.3294 65.0443 38.0284C63.6601 38.7274 61.9606 39.0769 59.946 39.0769C57.438 39.0769 55.3822 38.467 53.7787 37.2472C52.1752 36.0136 50.9897 34.2524 50.2222 31.9635C49.4685 29.6609 49.0916 26.8992 49.0916 23.6783C49.0916 20.43 49.4342 17.6546 50.1195 15.352C50.8184 13.0357 51.9628 11.2607 53.5526 10.0272C55.1424 8.79367 57.2735 8.1769 59.946 8.1769C62.454 8.1769 64.5029 8.79367 66.0927 10.0272C67.6962 11.247 68.8817 13.0151 69.6492 15.3314C70.4167 17.634 70.8004 20.4163 70.8004 23.6783ZM57.1707 23.6783C57.1707 25.6383 57.2392 27.283 57.3763 28.6124C57.527 29.9419 57.8011 30.9425 58.1986 31.614C58.6097 32.2719 59.1922 32.6009 59.946 32.6009C60.6998 32.6009 61.2754 32.2719 61.6728 31.614C62.0703 30.9425 62.3444 29.9488 62.4951 28.633C62.6459 27.3035 62.7213 25.652 62.7213 23.6783C62.7213 21.6909 62.6459 20.0325 62.4951 18.7031C62.3444 17.3736 62.0703 16.373 61.6728 15.7015C61.2754 15.0162 60.6998 14.6735 59.946 14.6735C59.1922 14.6735 58.6097 15.0162 58.1986 15.7015C57.8011 16.373 57.527 17.3736 57.3763 18.7031C57.2392 20.0325 57.1707 21.6909 57.1707 23.6783Z" fill="black"/>
<path d="M80.7092 8.1769C83.0665 8.1769 84.9577 8.99926 86.3831 10.644C87.8221 12.2887 88.5416 14.5981 88.5416 17.5723C88.5416 20.5465 87.8701 22.8697 86.527 24.5418C85.1839 26.2139 83.2446 27.05 80.7092 27.05C78.4067 27.05 76.5497 26.2139 75.1381 24.5418C73.7402 22.8697 73.0412 20.5465 73.0412 17.5723C73.0412 14.5981 73.699 12.2887 75.0147 10.644C76.3441 8.99926 78.2423 8.1769 80.7092 8.1769ZM80.7914 13.1933C80.2021 13.1933 79.7909 13.5976 79.558 14.4062C79.3387 15.2012 79.229 16.284 79.229 17.6546C79.229 18.9977 79.3387 20.0805 79.558 20.9029C79.7909 21.7115 80.2021 22.1158 80.7914 22.1158C81.3807 22.1158 81.785 21.7184 82.0043 20.9234C82.2236 20.1148 82.3332 19.0251 82.3332 17.6546C82.3332 16.284 82.2236 15.2012 82.0043 14.4062C81.785 13.5976 81.3807 13.1933 80.7914 13.1933ZM103.528 8.60864L86.8559 38.6657H80.7503L97.4225 8.60864H103.528ZM103.569 20.1422C105.927 20.1422 107.818 20.9645 109.243 22.6092C110.682 24.254 111.402 26.5634 111.402 29.5376C111.402 32.4981 110.73 34.8144 109.387 36.4865C108.044 38.1586 106.105 38.9947 103.569 38.9947C101.267 38.9947 99.4098 38.1586 97.9981 36.4865C96.6002 34.8144 95.9013 32.4981 95.9013 29.5376C95.9013 26.5634 96.5591 24.254 97.8748 22.6092C99.2042 20.9645 101.102 20.1422 103.569 20.1422ZM103.651 25.1585C103.062 25.1585 102.651 25.5629 102.418 26.3715C102.199 27.1665 102.089 28.2492 102.089 29.6198C102.089 30.963 102.199 32.0458 102.418 32.8681C102.651 33.6768 103.062 34.0811 103.651 34.0811C104.241 34.0811 104.645 33.6836 104.864 32.8887C105.097 32.08 105.214 30.9904 105.214 29.6198C105.214 28.1944 105.097 27.0979 104.864 26.3304C104.645 25.5492 104.241 25.1585 103.651 25.1585Z" fill="black"/>
</svg>
