<svg width="40" height="40" viewBox="0 0 40 40" fill="none" xmlns="http://www.w3.org/2000/svg">
<path fill-rule="evenodd" clip-rule="evenodd" d="M8.37209 20C8.37209 18.7009 8.59256 17.4555 8.98605 16.2873L2.0986 11.14C0.756279 13.8073 0 16.8127 0 20C0 23.1845 0.755349 26.1882 2.09581 28.8536L8.97953 23.6964C8.58977 22.5336 8.37209 21.2927 8.37209 20Z" fill="#FBBC05"/>
<path fill-rule="evenodd" clip-rule="evenodd" d="M20.4651 8.18182C23.3488 8.18182 25.9535 9.18182 28 10.8182L33.9535 5C30.3256 1.90909 25.6744 0 20.4651 0C12.3777 0 5.42698 4.52636 2.0986 11.14L8.98605 16.2873C10.573 11.5727 15.0967 8.18182 20.4651 8.18182Z" fill="#EB4335"/>
<path fill-rule="evenodd" clip-rule="evenodd" d="M20.4651 31.8182C15.0967 31.8182 10.573 28.4273 8.98604 23.7127L2.0986 28.8591C5.42697 35.4736 12.3777 40 20.4651 40C25.4567 40 30.2223 38.2655 33.7991 35.0155L27.2614 30.0691C25.4167 31.2064 23.094 31.8182 20.4651 31.8182Z" fill="#34A853"/>
<path fill-rule="evenodd" clip-rule="evenodd" d="M40 20C40 18.8182 39.814 17.5455 39.5349 16.3636H20.4651V24.0909H31.4419C30.893 26.7255 29.3991 28.7509 27.2614 30.0691L33.7991 35.0155C37.5563 31.6027 40 26.5191 40 20Z" fill="#4285F4"/>
</svg>
