<svg width="41" height="40" viewBox="0 0 41 40" fill="none" xmlns="http://www.w3.org/2000/svg">
<path d="M40.3564 20C40.3564 8.95403 31.4024 0 20.3564 0C9.31047 0 0.356445 8.95403 0.356445 20C0.356445 29.38 6.81381 37.2495 15.525 39.4114V26.1116H11.4008V20H15.525V17.3666C15.525 10.5587 18.6056 7.40354 25.2885 7.40354C26.5561 7.40354 28.7423 7.65265 29.6366 7.90098V13.4413C29.1643 13.3917 28.3447 13.3666 27.3262 13.3666C24.0468 13.3666 22.7792 14.609 22.7792 17.8389V20H29.312L28.1898 26.1116H22.7792V39.8538C32.6826 38.6578 40.3564 30.2255 40.3564 20Z" fill="#0866FF"/>
<path d="M28.1898 26.1116L29.312 20H22.7792V17.8389C22.7792 14.609 24.0468 13.3666 27.3262 13.3666C28.3447 13.3666 29.1643 13.3917 29.6366 13.4413V7.90098C28.7423 7.65265 26.5561 7.40354 25.2885 7.40354C18.6056 7.40354 15.525 10.5587 15.525 17.3666V20H11.4008V26.1116H15.525V39.4114C17.0724 39.7949 18.6904 40 20.3564 40C21.1769 40 21.9847 39.9497 22.7792 39.8538V26.1116H28.1898Z" fill="white"/>
</svg>
