<svg width="225" height="44" viewBox="0 0 225 44" fill="none" xmlns="http://www.w3.org/2000/svg">
<path d="M60.3418 16.9231H56.543V2.42608H64.9805V5.56941H60.3418V8.33594H64.6191V11.4793H60.3418V16.9231Z" fill="black"/>
<path d="M79.4629 2.42608V11.152C79.4629 12.3684 79.235 13.4261 78.7793 14.3251C78.3236 15.2175 77.64 15.9084 76.7285 16.3975C75.8171 16.8801 74.6745 17.1214 73.3008 17.1214C71.3346 17.1214 69.834 16.6091 68.7988 15.5844C67.7637 14.5598 67.2461 13.1121 67.2461 11.2413V2.42608H71.123V10.9339C71.123 11.9585 71.3118 12.7022 71.6895 13.165C72.0671 13.6277 72.6237 13.8591 73.3594 13.8591C73.8867 13.8591 74.3164 13.7599 74.6484 13.5616C74.9805 13.3567 75.2214 13.0361 75.3711 12.5998C75.5273 12.1635 75.6055 11.6016 75.6055 10.9141V2.42608H79.4629Z" fill="black"/>
<path d="M82.4609 16.9231V2.42608H86.3184V13.7599H91.8164V16.9231H82.4609Z" fill="black"/>
<path d="M94.1016 16.9231V2.42608H97.959V13.7599H103.457V16.9231H94.1016Z" fill="black"/>
<path d="M110.84 7.80048L113.301 2.42608H117.48L112.783 11.2611V16.9231H108.896V11.3801L104.199 2.42608H108.398L110.84 7.80048Z" fill="black"/>
<path d="M129.414 16.9231V2.42608H133.271V13.7599H138.77V16.9231H129.414Z" fill="black"/>
<path d="M141.055 16.9231V2.42608H144.932V16.9231H141.055Z" fill="black"/>
<path d="M154.385 5.43059C153.929 5.43059 153.522 5.52975 153.164 5.72807C152.806 5.91977 152.5 6.20072 152.246 6.57091C151.992 6.94111 151.797 7.39393 151.66 7.92939C151.53 8.45823 151.465 9.0598 151.465 9.73407C151.465 10.6463 151.579 11.4132 151.807 12.0346C152.035 12.6559 152.38 13.1253 152.842 13.4426C153.311 13.7599 153.896 13.9186 154.6 13.9186C155.238 13.9186 155.85 13.8293 156.436 13.6508C157.028 13.4724 157.624 13.2575 158.223 13.0063V16.3182C157.591 16.6025 156.943 16.8074 156.279 16.933C155.622 17.0586 154.922 17.1214 154.18 17.1214C152.63 17.1214 151.361 16.8107 150.371 16.1893C149.388 15.5613 148.662 14.692 148.193 13.5814C147.731 12.4709 147.5 11.1818 147.5 9.71424C147.5 8.61689 147.65 7.61208 147.949 6.69982C148.255 5.78756 148.701 4.9976 149.287 4.32993C149.873 3.65565 150.596 3.13672 151.455 2.77314C152.321 2.40294 153.311 2.21785 154.424 2.21785C155.114 2.21785 155.84 2.30048 156.602 2.46575C157.37 2.6244 158.118 2.88221 158.848 3.23918L157.666 6.32302C157.145 6.07182 156.618 5.86028 156.084 5.6884C155.55 5.51653 154.984 5.43059 154.385 5.43059Z" fill="black"/>
<path d="M169.492 16.9231H161.016V2.42608H169.492V5.56941H164.873V7.85006H169.15V10.9934H164.873V13.7302H169.492V16.9231Z" fill="black"/>
<path d="M185.586 16.9231H180.527L175.312 6.70974H175.225C175.257 7.02043 175.286 7.39393 175.312 7.83023C175.339 8.26653 175.361 8.71274 175.381 9.16887C175.4 9.61839 175.41 10.0249 175.41 10.3885V16.9231H171.992V2.42608H177.031L182.227 12.5006H182.285C182.266 12.1833 182.246 11.8164 182.227 11.3999C182.207 10.9769 182.188 10.5505 182.168 10.1208C182.155 9.69111 182.148 9.311 182.148 8.98047V2.42608H185.586V16.9231Z" fill="black"/>
<path d="M198.008 12.5204C198.008 13.3071 197.812 14.0541 197.422 14.7614C197.031 15.4621 196.423 16.0306 195.596 16.4669C194.775 16.9032 193.714 17.1214 192.412 17.1214C191.761 17.1214 191.188 17.0916 190.693 17.0322C190.205 16.9727 189.749 16.8768 189.326 16.7446C188.903 16.6058 188.464 16.4273 188.008 16.2091V12.7188C188.783 13.1154 189.564 13.4195 190.352 13.631C191.139 13.8359 191.852 13.9384 192.49 13.9384C192.874 13.9384 193.187 13.8921 193.428 13.7996C193.675 13.707 193.857 13.5814 193.975 13.4228C194.092 13.2575 194.15 13.0691 194.15 12.8576C194.15 12.6064 194.062 12.3948 193.887 12.223C193.717 12.0445 193.444 11.8594 193.066 11.6677C192.689 11.476 192.191 11.238 191.572 10.9537C191.045 10.7025 190.566 10.4447 190.137 10.1803C189.714 9.91587 189.349 9.61508 189.043 9.27794C188.743 8.93419 188.512 8.53426 188.35 8.07812C188.187 7.622 188.105 7.08323 188.105 6.46184C188.105 5.52975 188.33 4.7497 188.779 4.12169C189.235 3.48708 189.867 3.01112 190.674 2.69381C191.488 2.3765 192.425 2.21785 193.486 2.21785C194.417 2.21785 195.254 2.32362 195.996 2.53516C196.745 2.74669 197.415 2.98798 198.008 3.25901L196.826 6.28335C196.214 5.9991 195.612 5.77434 195.02 5.60907C194.427 5.4372 193.877 5.35126 193.369 5.35126C193.037 5.35126 192.764 5.39423 192.549 5.48017C192.34 5.5595 192.184 5.66857 192.08 5.80739C191.982 5.94621 191.934 6.10487 191.934 6.28335C191.934 6.50811 192.018 6.70974 192.188 6.88822C192.363 7.06671 192.653 7.26172 193.057 7.47326C193.467 7.67818 194.023 7.94591 194.727 8.27644C195.423 8.59375 196.016 8.9375 196.504 9.30769C196.992 9.67127 197.363 10.1109 197.617 10.6265C197.878 11.1355 198.008 11.7668 198.008 12.5204Z" fill="black"/>
<path d="M208.691 16.9231H200.215V2.42608H208.691V5.56941H204.072V7.85006H208.35V10.9934H204.072V13.7302H208.691V16.9231Z" fill="black"/>
<path d="M223.311 9.36719C223.311 11.0529 223.001 12.4543 222.383 13.5715C221.764 14.6887 220.892 15.5282 219.766 16.0901C218.646 16.6454 217.327 16.9231 215.811 16.9231H211.191V2.42608H216.133C217.669 2.42608 218.971 2.69381 220.039 3.22927C221.107 3.76472 221.917 4.54808 222.471 5.57933C223.031 6.61058 223.311 7.8732 223.311 9.36719ZM219.307 9.50601C219.307 8.6268 219.189 7.89964 218.955 7.32452C218.727 6.74279 218.382 6.3098 217.92 6.02554C217.458 5.73468 216.875 5.58924 216.172 5.58924H215.049V13.7103H215.908C217.08 13.7103 217.939 13.3666 218.486 12.6791C219.033 11.985 219.307 10.9273 219.307 9.50601Z" fill="black"/>
<path d="M65.778 22.0293C67.1658 22.0293 68.3626 22.2342 69.3682 22.644C70.3739 23.0441 71.1482 23.6248 71.6913 24.3859C72.2344 25.1373 72.5059 26.0497 72.5059 27.1231C72.5059 28.3624 72.1338 29.4358 71.3896 30.3433C70.6555 31.2411 69.7001 32.0364 68.5235 32.7292L71.5254 35.4957C71.8774 34.9687 72.1891 34.3832 72.4606 33.7392C72.7322 33.0854 72.9434 32.4023 73.0942 31.69H79.2187C78.8969 33.1342 78.3991 34.5296 77.7253 35.8762C77.0616 37.2131 76.3526 38.3256 75.5983 39.2136L80.4255 43.7073H72.7925L71.2991 42.2142C70.746 42.546 70.1929 42.8485 69.6397 43.1218C69.0967 43.395 68.438 43.6097 67.6636 43.7658C66.8893 43.9219 65.8886 44 64.6617 44C62.942 44 61.4838 43.7219 60.2871 43.1657C59.1004 42.5997 58.2003 41.8483 57.5868 40.9115C56.9734 39.965 56.6667 38.9159 56.6667 37.7645C56.6667 36.9155 56.8225 36.13 57.1343 35.4079C57.4561 34.676 57.9187 34.0173 58.5221 33.4318C59.1356 32.8463 59.8848 32.334 60.7698 31.8949C60.3575 31.4362 60.0004 30.963 59.6987 30.475C59.4071 29.9871 59.1808 29.4699 59.0199 28.9235C58.8691 28.3673 58.7936 27.7671 58.7936 27.1231C58.7936 26.1375 59.0551 25.2641 59.5781 24.503C60.1111 23.7321 60.8955 23.1271 61.9313 22.688C62.9772 22.2488 64.2594 22.0293 65.778 22.0293ZM63.9829 35.0419C63.7013 35.2468 63.465 35.4713 63.2739 35.7152C63.0929 35.9592 62.9571 36.2178 62.8666 36.491C62.7861 36.7642 62.7459 37.0521 62.7459 37.3546C62.7459 37.9694 62.9722 38.4719 63.4247 38.8623C63.8873 39.2526 64.4857 39.4478 65.2198 39.4478C65.7931 39.4478 66.2959 39.3746 66.7283 39.2282C67.1608 39.0818 67.4927 38.9159 67.724 38.7305L63.9829 35.0419ZM65.6875 25.7764C65.2651 25.7764 64.893 25.8984 64.5712 26.1424C64.2594 26.3766 64.1036 26.7669 64.1036 27.3134C64.1036 27.7427 64.2343 28.1526 64.4958 28.5429C64.7673 28.9235 65.0791 29.2699 65.431 29.5822C66.0043 29.2699 66.4417 28.8942 66.7434 28.4551C67.0451 28.016 67.196 27.572 67.196 27.1231C67.196 26.6449 67.0502 26.3034 66.7585 26.0985C66.4769 25.8838 66.1199 25.7764 65.6875 25.7764Z" fill="black"/>
<path d="M90.6682 43.7073V22.3074H96.657V43.7073H90.6682Z" fill="black"/>
<path d="M122.437 43.7073H114.623L106.568 28.6307H106.432C106.482 29.0894 106.528 29.6407 106.568 30.2848C106.608 30.9288 106.643 31.5875 106.673 32.2608C106.704 32.9244 106.719 33.5245 106.719 34.0612V43.7073H101.439V22.3074H109.223L117.248 37.179H117.338C117.308 36.7106 117.278 36.169 117.248 35.5542C117.218 34.9297 117.188 34.3003 117.157 33.666C117.137 33.0317 117.127 32.4706 117.127 31.9827V22.3074H122.437V43.7073Z" fill="black"/>
<path d="M141.625 37.2082C141.625 38.3695 141.324 39.4722 140.72 40.5163C140.117 41.5507 139.176 42.3899 137.899 43.0339C136.632 43.678 134.993 44 132.982 44C131.976 44 131.091 43.9561 130.327 43.8683C129.572 43.7804 128.868 43.6389 128.215 43.4438C127.561 43.2389 126.882 42.9754 126.178 42.6534V37.501C127.375 38.0865 128.582 38.5354 129.799 38.8476C131.016 39.1501 132.117 39.3014 133.102 39.3014C133.696 39.3014 134.178 39.2331 134.55 39.0965C134.933 38.9599 135.214 38.7744 135.395 38.5403C135.576 38.2963 135.667 38.0182 135.667 37.7059C135.667 37.3351 135.531 37.0228 135.259 36.7691C134.998 36.5057 134.576 36.2324 133.992 35.9494C133.409 35.6664 132.64 35.3151 131.684 34.8955C130.87 34.5247 130.131 34.1442 129.467 33.7538C128.813 33.3635 128.25 32.9195 127.777 32.4218C127.315 31.9144 126.958 31.324 126.706 30.6507C126.455 29.9774 126.329 29.1821 126.329 28.2648C126.329 26.8889 126.676 25.7374 127.37 24.8104C128.074 23.8736 129.049 23.171 130.296 22.7026C131.554 22.2342 133.002 22 134.641 22C136.079 22 137.371 22.1561 138.518 22.4684C139.674 22.7807 140.71 23.1368 141.625 23.5369L139.8 28.0013C138.855 27.5817 137.924 27.2499 137.009 27.006C136.094 26.7523 135.244 26.6254 134.46 26.6254C133.947 26.6254 133.525 26.6888 133.193 26.8157C132.871 26.9328 132.63 27.0938 132.469 27.2987C132.318 27.5037 132.242 27.7379 132.242 28.0013C132.242 28.3331 132.373 28.6307 132.635 28.8942C132.906 29.1577 133.354 29.4456 133.977 29.7578C134.611 30.0603 135.471 30.4555 136.557 30.9434C137.633 31.4118 138.548 31.9193 139.302 32.4657C140.056 33.0024 140.63 33.6514 141.022 34.4125C141.424 35.1639 141.625 36.0958 141.625 37.2082Z" fill="black"/>
<path d="M163.785 22.3074V35.1883C163.785 36.9838 163.433 38.5451 162.729 39.8723C162.025 41.1896 160.969 42.2094 159.561 42.9315C158.153 43.6438 156.388 44 154.267 44C151.229 44 148.911 43.2437 147.312 41.7312C145.713 40.2187 144.914 38.0816 144.914 35.32V22.3074H150.903V34.8663C150.903 36.3788 151.194 37.4766 151.777 38.1597C152.361 38.8428 153.221 39.1843 154.357 39.1843C155.172 39.1843 155.835 39.0379 156.348 38.7452C156.861 38.4427 157.233 37.9694 157.465 37.3253C157.706 36.6813 157.827 35.8519 157.827 34.837V22.3074H163.785Z" fill="black"/>
<path d="M175.642 22.3074C177.643 22.3074 179.308 22.5465 180.635 23.0246C181.963 23.493 182.958 24.1956 183.622 25.1324C184.296 26.0692 184.633 27.2353 184.633 28.6307C184.633 29.4992 184.482 30.2896 184.18 31.002C183.878 31.7143 183.446 32.3535 182.883 32.9195C182.33 33.4757 181.666 33.9636 180.892 34.3832L187.318 43.7073H180.56L175.883 35.9202H174.375V43.7073H168.416V22.3074H175.642ZM175.551 26.684H174.375V31.5729H175.491C176.406 31.5729 177.155 31.3777 177.739 30.9874C178.322 30.597 178.614 29.8993 178.614 28.8942C178.614 28.2014 178.372 27.6598 177.89 27.2695C177.407 26.8791 176.627 26.684 175.551 26.684Z" fill="black"/>
<path d="M202.418 43.7073H189.324V22.3074H202.418V26.9474H195.283V30.314H201.89V34.9541H195.283V38.994H202.418V43.7073Z" fill="black"/>
<path d="M225 32.5536C225 35.0419 224.522 37.1107 223.567 38.7598C222.612 40.409 221.264 41.6483 219.524 42.4777C217.794 43.2974 215.758 43.7073 213.415 43.7073H206.28V22.3074H213.913C216.286 22.3074 218.297 22.7026 219.947 23.493C221.596 24.2834 222.848 25.4398 223.703 26.9621C224.568 28.4844 225 30.3482 225 32.5536ZM218.815 32.7585C218.815 31.4606 218.634 30.3872 218.272 29.5383C217.92 28.6795 217.387 28.0404 216.673 27.6208C215.959 27.1914 215.059 26.9767 213.973 26.9767H212.238V38.9647H213.566C215.376 38.9647 216.703 38.4573 217.548 37.4424C218.393 36.4178 218.815 34.8565 218.815 32.7585Z" fill="black"/>
<path d="M45.3125 0H3.02083C2.21966 0 1.4513 0.328656 0.884781 0.913669C0.318265 1.49868 0 2.29213 0 3.11946V34.3141C0 35.1414 0.318265 35.9348 0.884781 36.5199C1.4513 37.1049 2.21966 37.4335 3.02083 37.4335H25.6771L27.9427 34.5636L27.8068 34.3141H3.02083V3.11946H45.3125V16.4708C46.46 17.2378 47.48 18.1911 48.3333 19.2939V3.11946C48.3333 2.29213 48.0151 1.49868 47.4486 0.913669C46.882 0.328656 46.1137 0 45.3125 0Z" fill="black"/>
<path d="M33.2292 9.35838H7.55212V11.854H33.2292V9.35838Z" fill="black"/>
<path d="M24.1667 15.5973H7.55212V18.0929H24.1667V15.5973Z" fill="black"/>
<path d="M22.6563 26.5154H7.55212V29.011H22.6563V26.5154Z" fill="black"/>
<path d="M38.4552 17.5158C36.5224 17.4999 34.6299 18.0866 33.0251 19.199C31.4202 20.3114 30.1777 21.898 29.4598 23.7512C28.7419 25.6044 28.5822 27.6382 29.0014 29.5867C29.4205 31.5352 30.3992 33.3078 31.8094 34.6728L28.8792 38.3694L30.2386 44L35.7667 37.0436C37.5166 37.5779 39.3788 37.5779 41.1287 37.0436L46.6568 44L48.0162 38.3694L45.086 34.6728C46.4962 33.3078 47.4748 31.5352 47.894 29.5867C48.3132 27.6382 48.1535 25.6044 47.4356 23.7512C46.7177 21.898 45.4752 20.3114 43.8703 19.199C42.2655 18.0866 40.373 17.4999 38.4401 17.5158H38.4552ZM38.4552 34.1737C37.1717 34.1552 35.9221 33.7453 34.8636 32.9956C33.805 32.2458 32.9847 31.1895 32.5059 29.9596C32.027 28.7298 31.911 27.3812 32.1723 26.0834C32.4336 24.7856 33.0607 23.5965 33.9746 22.6657C34.8885 21.7349 36.0486 21.1039 37.3088 20.852C38.5691 20.6001 39.8733 20.7386 41.0576 21.25C42.2418 21.7614 43.2532 22.623 43.9646 23.7264C44.676 24.8298 45.0556 26.1257 45.0558 27.4513C45.0398 29.2453 44.3364 30.9598 43.0994 32.2196C41.8624 33.4794 40.1926 34.182 38.4552 34.1737Z" fill="black"/>
</svg>
