<svg width="45" height="45" viewBox="0 0 45 45" fill="none" xmlns="http://www.w3.org/2000/svg">
<rect width="45" height="45" rx="10" fill="#01446A"/>
<path d="M34 28.9545C34 29.2614 33.9432 29.6619 33.8295 30.1562C33.7159 30.6506 33.5966 31.0398 33.4716 31.3239C33.233 31.892 32.5398 32.4943 31.392 33.1307C30.3239 33.7102 29.267 34 28.2216 34C27.9148 34 27.6165 33.9801 27.3267 33.9403C27.0369 33.9006 26.7102 33.8295 26.3466 33.7273C25.983 33.625 25.7131 33.5426 25.5369 33.4801C25.3608 33.4176 25.0455 33.3011 24.5909 33.1307C24.1364 32.9602 23.858 32.858 23.7557 32.8239C22.642 32.4261 21.6477 31.9545 20.7727 31.4091C19.3182 30.5114 17.8153 29.2869 16.2642 27.7358C14.7131 26.1847 13.4886 24.6818 12.5909 23.2273C12.0455 22.3523 11.5739 21.358 11.1761 20.2443C11.142 20.142 11.0398 19.8636 10.8693 19.4091C10.6989 18.9545 10.5824 18.6392 10.5199 18.4631C10.4574 18.2869 10.375 18.017 10.2727 17.6534C10.1705 17.2898 10.0994 16.9631 10.0597 16.6733C10.0199 16.3835 10 16.0852 10 15.7784C10 14.733 10.2898 13.6761 10.8693 12.608C11.5057 11.4602 12.108 10.767 12.6761 10.5284C12.9602 10.4034 13.3494 10.2841 13.8438 10.1705C14.3381 10.0568 14.7386 10 15.0455 10C15.2045 10 15.3239 10.017 15.4034 10.0511C15.608 10.1193 15.9091 10.5511 16.3068 11.3466C16.4318 11.5625 16.6023 11.8693 16.8182 12.267C17.0341 12.6648 17.233 13.0256 17.4148 13.3494C17.5966 13.6733 17.7727 13.9773 17.9432 14.2614C17.9773 14.3068 18.0767 14.4489 18.2415 14.6875C18.4062 14.9261 18.5284 15.1278 18.608 15.2926C18.6875 15.4574 18.7273 15.6193 18.7273 15.7784C18.7273 16.0057 18.5653 16.2898 18.2415 16.6307C17.9176 16.9716 17.5653 17.2841 17.1847 17.5682C16.804 17.8523 16.4517 18.1534 16.1278 18.4716C15.804 18.7898 15.642 19.0511 15.642 19.2557C15.642 19.358 15.6705 19.4858 15.7273 19.6392C15.7841 19.7926 15.8324 19.9091 15.8722 19.9886C15.9119 20.0682 15.9915 20.2045 16.1108 20.3977C16.2301 20.5909 16.2955 20.6989 16.3068 20.7216C17.1705 22.2784 18.1591 23.6136 19.2727 24.7273C20.3864 25.8409 21.7216 26.8295 23.2784 27.6932C23.3011 27.7045 23.4091 27.7699 23.6023 27.8892C23.7955 28.0085 23.9318 28.0881 24.0114 28.1278C24.0909 28.1676 24.2074 28.2159 24.3608 28.2727C24.5142 28.3295 24.642 28.358 24.7443 28.358C24.9489 28.358 25.2102 28.196 25.5284 27.8722C25.8466 27.5483 26.1477 27.196 26.4318 26.8153C26.7159 26.4347 27.0284 26.0824 27.3693 25.7585C27.7102 25.4347 27.9943 25.2727 28.2216 25.2727C28.3807 25.2727 28.5426 25.3125 28.7074 25.392C28.8722 25.4716 29.0739 25.5938 29.3125 25.7585C29.5511 25.9233 29.6932 26.0227 29.7386 26.0568C30.0227 26.2273 30.3267 26.4034 30.6506 26.5852C30.9744 26.767 31.3352 26.9659 31.733 27.1818C32.1307 27.3977 32.4375 27.5682 32.6534 27.6932C33.4489 28.0909 33.8807 28.392 33.9489 28.5966C33.983 28.6761 34 28.7955 34 28.9545Z" fill="white"/>
</svg>
