<svg width="23" height="23" viewBox="0 0 23 23" fill="none" xmlns="http://www.w3.org/2000/svg">
<path fill-rule="evenodd" clip-rule="evenodd" d="M22.1046 19.5605C21.4255 21.624 18.765 22.6531 16.8642 22.4815C14.2681 22.2469 11.4433 20.87 9.29904 19.3535C6.14715 17.1242 3.19472 13.6759 1.47431 10.0166C0.258431 7.43098 -0.0143674 4.25193 1.79405 1.89506C2.46285 1.02388 3.18592 0.558603 4.27273 0.504337C5.78048 0.431006 5.99168 1.29353 6.50942 2.63696C6.89515 3.6416 7.40996 4.66641 7.69742 5.70771C8.2357 7.65099 6.35395 7.73221 6.11635 9.32057C5.96821 10.3223 7.18262 11.6656 7.73116 12.3799C8.80624 13.779 10.0984 14.9858 11.5563 15.9039C12.3908 16.4304 13.7387 17.3792 14.6949 16.8557C16.1675 16.049 16.0282 13.5661 18.0874 14.4065C19.1536 14.8406 20.1862 15.4671 21.2041 16.0156C22.7778 16.8619 22.7045 17.7389 22.1046 19.5605C22.5534 18.1994 21.6558 20.9215 22.1046 19.5605Z" fill="#fff"/>
</svg>
