<svg width="20" height="26" viewBox="0 0 20 26" fill="none" xmlns="http://www.w3.org/2000/svg">
<path fill-rule="evenodd" clip-rule="evenodd" d="M10.2045 7.59375C8.79543 7.59375 7.65338 8.7269 7.65338 10.125C7.65338 11.5231 8.79543 12.6562 10.2045 12.6562C11.6136 12.6562 12.7556 11.5231 12.7556 10.125C12.7556 8.7269 11.6136 7.59375 10.2045 7.59375ZM10.2045 14.3437C7.85662 14.3437 5.95263 12.4554 5.95263 10.125C5.95263 7.79456 7.85662 5.90625 10.2045 5.90625C12.5524 5.90625 14.4564 7.79456 14.4564 10.125C14.4564 12.4554 12.5524 14.3437 10.2045 14.3437ZM10.2045 0C4.56907 0 0 4.53347 0 10.125C0 14.3589 8.50801 27.0093 10.2045 27C11.8746 27.0093 20.409 14.3016 20.409 10.125C20.409 4.53347 15.8399 0 10.2045 0Z" fill="#043371"/>
</svg>
