<svg width="150" height="150" viewBox="0 0 150 150" fill="none" xmlns="http://www.w3.org/2000/svg">
<rect x="1" y="1" width="148" height="148" fill="#30AF97" stroke="#FFC107" stroke-width="2" rx="15" ry="15"/>
<path d="M71.8887 114L71.2559 111.592H67.0811L66.4307 114H62.6162L66.8086 101.098H71.4404L75.6855 114H71.8887ZM70.5352 108.744L69.9814 106.635C69.9229 106.406 69.8379 106.081 69.7266 105.659C69.6152 105.231 69.5039 104.792 69.3926 104.341C69.2871 103.884 69.2051 103.509 69.1465 103.216C69.0938 103.509 69.0176 103.872 68.918 104.306C68.8242 104.733 68.7246 105.158 68.6191 105.58C68.5195 106.002 68.4316 106.354 68.3555 106.635L67.8018 108.744H70.5352Z" fill="white"/>
<path d="M82.8047 103.813C82.3945 103.813 82.0283 103.901 81.7061 104.077C81.3838 104.247 81.1084 104.496 80.8799 104.824C80.6514 105.152 80.4756 105.554 80.3525 106.028C80.2354 106.497 80.1768 107.03 80.1768 107.628C80.1768 108.437 80.2793 109.116 80.4844 109.667C80.6895 110.218 81 110.634 81.416 110.915C81.8379 111.196 82.3652 111.337 82.998 111.337C83.5723 111.337 84.123 111.258 84.6504 111.1C85.1836 110.941 85.7197 110.751 86.2588 110.528V113.464C85.6904 113.716 85.1074 113.897 84.5098 114.009C83.918 114.12 83.2881 114.176 82.6201 114.176C81.2256 114.176 80.083 113.9 79.1924 113.35C78.3076 112.793 77.6543 112.022 77.2324 111.038C76.8164 110.054 76.6084 108.911 76.6084 107.61C76.6084 106.638 76.7432 105.747 77.0127 104.938C77.2881 104.13 77.6895 103.43 78.2168 102.838C78.7441 102.24 79.3945 101.78 80.168 101.458C80.9473 101.13 81.8379 100.966 82.8398 100.966C83.4609 100.966 84.1143 101.039 84.7998 101.186C85.4912 101.326 86.165 101.555 86.8213 101.871L85.7578 104.604C85.2891 104.382 84.8145 104.194 84.334 104.042C83.8535 103.89 83.3438 103.813 82.8047 103.813Z" fill="white"/>
<path d="M38.2178 133V120.15H41.707V133H38.2178Z" fill="white"/>
<path d="M56.7275 133H52.1748L47.4814 123.947H47.4023C47.4316 124.223 47.458 124.554 47.4814 124.94C47.5049 125.327 47.5254 125.723 47.543 126.127C47.5605 126.525 47.5693 126.886 47.5693 127.208V133H44.4932V120.15H49.0283L53.7041 129.08H53.7568C53.7393 128.799 53.7217 128.474 53.7041 128.104C53.6865 127.729 53.6689 127.352 53.6514 126.971C53.6396 126.59 53.6338 126.253 53.6338 125.96V120.15H56.7275V133Z" fill="white"/>
<path d="M67.9072 129.098C67.9072 129.795 67.7314 130.457 67.3799 131.084C67.0283 131.705 66.4805 132.209 65.7363 132.596C64.998 132.982 64.043 133.176 62.8711 133.176C62.2852 133.176 61.7695 133.149 61.3242 133.097C60.8848 133.044 60.4746 132.959 60.0938 132.842C59.7129 132.719 59.3174 132.561 58.9072 132.367V129.273C59.6045 129.625 60.3076 129.895 61.0166 130.082C61.7256 130.264 62.3672 130.354 62.9414 130.354C63.2871 130.354 63.5684 130.313 63.7852 130.231C64.0078 130.149 64.1719 130.038 64.2773 129.897C64.3828 129.751 64.4355 129.584 64.4355 129.396C64.4355 129.174 64.3564 128.986 64.1982 128.834C64.0459 128.676 63.7998 128.512 63.46 128.342C63.1201 128.172 62.6719 127.961 62.1152 127.709C61.6406 127.486 61.21 127.258 60.8232 127.023C60.4424 126.789 60.1143 126.522 59.8389 126.224C59.5693 125.919 59.3613 125.564 59.2148 125.16C59.0684 124.756 58.9951 124.278 58.9951 123.728C58.9951 122.901 59.1973 122.21 59.6016 121.653C60.0117 121.091 60.5801 120.669 61.3066 120.388C62.0391 120.106 62.8828 119.966 63.8379 119.966C64.6758 119.966 65.4287 120.06 66.0967 120.247C66.7705 120.435 67.374 120.648 67.9072 120.889L66.8438 123.569C66.293 123.317 65.751 123.118 65.2178 122.972C64.6846 122.819 64.1895 122.743 63.7324 122.743C63.4336 122.743 63.1875 122.781 62.9941 122.857C62.8066 122.928 62.666 123.024 62.5723 123.147C62.4844 123.271 62.4404 123.411 62.4404 123.569C62.4404 123.769 62.5166 123.947 62.6689 124.105C62.8271 124.264 63.0879 124.437 63.4512 124.624C63.8203 124.806 64.3213 125.043 64.9541 125.336C65.5811 125.617 66.1143 125.922 66.5537 126.25C66.9932 126.572 67.3271 126.962 67.5557 127.419C67.79 127.87 67.9072 128.43 67.9072 129.098Z" fill="white"/>
<path d="M75.5625 133H72.0908V122.989H68.9531V120.15H78.6914V122.989H75.5625V133Z" fill="white"/>
<path d="M88.4121 133L87.7793 130.592H83.6045L82.9541 133H79.1396L83.332 120.098H87.9639L92.209 133H88.4121ZM87.0586 127.744L86.5049 125.635C86.4463 125.406 86.3613 125.081 86.25 124.659C86.1387 124.231 86.0273 123.792 85.916 123.341C85.8105 122.884 85.7285 122.509 85.6699 122.216C85.6172 122.509 85.541 122.872 85.4414 123.306C85.3477 123.733 85.248 124.158 85.1426 124.58C85.043 125.002 84.9551 125.354 84.8789 125.635L84.3252 127.744H87.0586Z" fill="white"/>
<path d="M93.6064 133V120.15H97.0781V130.196H102.026V133H93.6064Z" fill="white"/>
<path d="M104.083 133V120.15H107.555V130.196H112.503V133H104.083Z" fill="white"/>
<path d="M104 43.5988C103.934 43.714 103.851 43.821 103.802 43.9442C103.623 44.4015 103.537 44.9285 103.269 45.3112C102.299 46.6911 101.353 48.1099 100.239 49.3488C99.2193 50.4806 97.7655 50.7449 96.3478 50.899C95.0192 51.0433 93.683 51.1082 92.3543 51.2509C92.0904 51.28 91.7948 51.4519 91.6018 51.6562C90.1706 53.1659 88.753 54.6917 87.3534 56.2354C87.0051 56.6198 86.7396 56.6635 86.3837 56.2711C86.0082 55.8576 85.5769 55.5025 85.2104 55.0809C85.0852 54.9366 84.9706 54.6155 85.0355 54.4696C85.7729 52.7816 85.3341 51.1455 84.8801 49.5142C84.6886 48.8299 84.4383 48.1618 84.1849 47.4986C84.0688 47.1954 84.0688 46.9862 84.3357 46.7787C84.5287 46.6295 84.6599 46.3846 84.856 46.2419C86.0534 45.3631 86.2344 44.0626 86.2947 42.6356C86.3566 41.1682 86.521 39.6974 86.7442 38.2478C86.9282 37.0478 87.5781 36.07 88.4348 35.295C89.3713 34.4469 90.3335 33.628 91.3288 32.8643C92.564 31.9189 93.9198 31.7308 95.3374 32.3827C95.6073 32.5075 95.8743 32.6648 96.1065 32.8562C97.0174 33.6086 97.0506 34.1226 96.2483 34.9998C95.2318 36.109 94.1958 37.197 93.1853 38.3126C92.4358 39.1396 92.3815 40.0217 93.0903 40.8665C93.8851 41.8135 94.7176 42.7297 95.5968 43.5875C96.4579 44.4274 97.0808 44.4501 97.9645 43.6329C98.9342 42.7378 99.8165 41.7341 100.735 40.7757C100.908 40.5958 101.064 40.3947 101.24 40.2196C102.003 39.4639 102.471 39.4558 103.079 40.3606C103.456 40.9233 103.653 41.6238 103.931 42.2627C103.919 42.2805 103.959 42.2205 104 42.1589V43.5988Z" fill="white"/>
<path d="M64.8102 64.1647C64.5598 63.9183 64.3653 63.7399 64.1843 63.5453C62.7667 62.0211 61.3521 60.4936 59.9359 58.9661C59.8575 58.8818 59.7821 58.7926 59.7082 58.7034C58.7475 57.5586 58.7279 56.6733 59.7233 55.5641C61.0127 54.1291 62.3399 52.7329 63.6534 51.3222C65.623 49.2061 67.5881 47.0835 69.5758 44.9869C69.7915 44.7582 70.1368 44.575 70.4354 44.5507C72.2859 44.3999 74.1424 44.3366 75.9913 44.1745C78.9683 43.9118 82.2485 46.1722 83.1428 49.7785C83.3283 50.5293 83.5289 51.2784 83.6676 52.0389C83.8953 53.2924 83.2242 54.5085 82.0524 55.0533C80.9696 55.5576 79.8762 55.3079 79.2202 54.168C78.7029 53.2697 78.4224 52.214 78.0454 51.2233C77.9488 50.9719 77.881 50.7076 77.7452 50.2795C73.3868 54.9593 69.1128 59.545 64.8117 64.1631L64.8102 64.1647Z" fill="white"/>
<path d="M77.4647 63.5048C76.8404 62.2092 76.869 61.2817 77.5748 60.4336C78.3983 59.4461 79.3408 59.2904 80.8565 59.9569C80.7223 59.6893 80.5564 59.5028 80.5413 59.3034C80.4991 58.7407 80.4659 58.1651 80.5398 57.6121C80.5669 57.4127 80.8972 57.1289 81.1068 57.1095C81.9122 57.0381 82.6843 56.9181 83.3811 56.4284C83.4866 56.3538 83.7656 56.3976 83.8637 56.4981C85.9268 58.6515 88.0019 60.792 90.0107 63.0021C90.6984 63.7577 90.6728 64.9123 90.1615 65.7247C89.587 66.6376 88.5071 67.1159 87.5887 66.8306C87.2992 66.7414 87.0352 66.5581 86.6311 66.3522C87.3972 67.6511 87.3127 68.7991 86.4214 69.7801C85.4819 70.8163 84.387 70.539 83.2529 69.9115C83.9557 71.1487 84.0281 72.2319 83.4399 72.9924C82.4747 74.2377 81.3014 74.3496 79.9471 73.5129C80.1673 73.9507 80.3875 74.2556 80.481 74.6026C80.7313 75.5236 80.3648 76.4852 79.5716 77.1127C78.822 77.7062 78.0273 77.8927 77.1948 77.3203C76.869 77.0965 76.5508 76.8435 76.2748 76.5533C74.6476 74.8312 73.0279 73.1026 71.4217 71.3579C70.8879 70.7774 70.3555 70.1806 70.3404 69.2726C70.3238 68.2834 70.7099 67.544 71.4941 67.0414C72.2844 66.5371 73.0791 66.5825 73.8739 67.0316C73.9523 67.0754 74.0293 67.1257 74.1801 67.1597C73.4577 65.9841 73.4667 64.8474 74.3701 63.8664C75.2659 62.8951 76.3337 62.8643 77.4617 63.508L77.4647 63.5048Z" fill="white"/>
<path d="M77.0892 54.5328C77.5959 55.1166 78.0529 55.6257 78.4887 56.1576C78.6426 56.3441 78.8703 56.6068 78.8401 56.7933C78.7738 57.2181 78.7165 57.711 78.172 57.8424C77.2672 58.0613 76.5237 58.5899 76.0139 59.4169C75.7214 59.892 75.563 60.4579 75.3081 60.9638C75.2161 61.1454 75.0412 61.3514 74.8663 61.4017C73.3838 61.8314 72.503 62.8805 72.0431 64.4145C71.9827 64.6139 71.7988 64.875 71.6329 64.9155C69.1611 65.5139 67.7555 68.6548 69.0027 71.0368C69.52 72.0243 70.3057 72.8481 71.0206 73.8145C70.0282 74.8717 68.9575 76.0198 67.8777 77.1613C66.7798 78.3224 65.6924 79.4963 64.5674 80.6266C63.6248 81.5719 62.5269 82.1265 61.1862 81.9757C58.3916 81.6643 56.6603 78.4002 57.8955 75.6938C58.1518 75.1312 58.5138 74.5945 58.921 74.1453C60.8121 72.0584 62.7471 70.0201 64.6443 67.9397C66.7481 65.6322 68.8067 63.2761 70.9225 60.9817C72.8439 58.8996 74.815 56.8711 76.765 54.8215C76.8811 54.6999 77.0153 54.5977 77.0877 54.5345L77.0892 54.5328ZM61.9161 74.7485C60.4939 74.7485 59.6313 75.6485 59.6388 77.1208C59.6464 78.6029 60.5256 79.545 61.904 79.545C63.2281 79.545 64.2009 78.5478 64.2114 77.197C64.2205 76.0749 63.4725 74.5912 61.9176 74.7485H61.9161Z" fill="white"/>
<path d="M54 48.9742C54.2805 48.4294 54.4509 47.8537 54.8008 47.4662C56.7644 45.2917 58.7656 43.1545 60.7669 41.019C61.6205 40.1077 62.6611 40.046 63.5449 40.9184C64.2657 41.6303 64.9368 42.4102 65.5567 43.2259C66.2217 44.1015 66.2006 44.8847 65.4752 45.6874C63.5237 47.8472 61.536 49.9682 59.5619 52.1038C59.5091 52.1605 59.4503 52.2076 59.3915 52.2578C58.1549 53.3199 57.538 53.3037 56.3934 52.1476C55.8128 51.5606 55.2216 50.9784 54.6998 50.3331C54.4132 49.9779 54.2609 49.4964 54 48.9742Z" fill="white"/>
</svg>
