<svg width="150" height="150" viewBox="0 0 150 150" fill="none" xmlns="http://www.w3.org/2000/svg">
<rect x="1" y="1" width="148" height="148" fill="#30AF97" stroke="#FFC107" stroke-width="2" rx="15" ry="15"/>
<path d="M46.4004 114H42.9111V108.762H38.877V114H35.3877V101.15H38.877V105.914H42.9111V101.15H46.4004V114Z" fill="white"/>
<path d="M56.8154 114H49.1865V101.15H56.8154V103.937H52.6582V105.958H56.5078V108.744H52.6582V111.17H56.8154V114Z" fill="white"/>
<path d="M66.9492 114L66.3164 111.592H62.1416L61.4912 114H57.6768L61.8691 101.098H66.501L70.7461 114H66.9492ZM65.5957 108.744L65.042 106.635C64.9834 106.406 64.8984 106.081 64.7871 105.659C64.6758 105.231 64.5645 104.792 64.4531 104.341C64.3477 103.884 64.2656 103.509 64.207 103.216C64.1543 103.509 64.0781 103.872 63.9785 104.306C63.8848 104.733 63.7852 105.158 63.6797 105.58C63.5801 106.002 63.4922 106.354 63.416 106.635L62.8623 108.744H65.5957Z" fill="white"/>
<path d="M77.8125 114H74.3408V103.989H71.2031V101.15H80.9414V103.989H77.8125V114Z" fill="white"/>
<path d="M82.7783 114V101.15H86.2676V114H82.7783Z" fill="white"/>
<path d="M101.288 114H96.7354L92.042 104.947H91.9629C91.9922 105.223 92.0186 105.554 92.042 105.94C92.0654 106.327 92.0859 106.723 92.1035 107.127C92.1211 107.525 92.1299 107.886 92.1299 108.208V114H89.0537V101.15H93.5889L98.2646 110.08H98.3174C98.2998 109.799 98.2822 109.474 98.2646 109.104C98.2471 108.729 98.2295 108.352 98.2119 107.971C98.2002 107.59 98.1943 107.253 98.1943 106.96V101.15H101.288V114Z" fill="white"/>
<path d="M109.225 106.477H114.771V113.402C114.108 113.631 113.35 113.818 112.494 113.965C111.639 114.105 110.742 114.176 109.805 114.176C108.568 114.176 107.484 113.936 106.553 113.455C105.621 112.975 104.895 112.245 104.373 111.267C103.852 110.282 103.591 109.04 103.591 107.54C103.591 106.192 103.849 105.029 104.364 104.051C104.88 103.066 105.639 102.308 106.641 101.774C107.648 101.235 108.882 100.966 110.341 100.966C111.144 100.966 111.905 101.042 112.626 101.194C113.347 101.347 113.974 101.54 114.507 101.774L113.408 104.499C112.945 104.271 112.465 104.101 111.967 103.989C111.469 103.872 110.933 103.813 110.358 103.813C109.591 103.813 108.973 103.986 108.504 104.332C108.041 104.678 107.704 105.141 107.493 105.721C107.282 106.295 107.177 106.931 107.177 107.628C107.177 108.425 107.288 109.099 107.511 109.649C107.739 110.194 108.07 110.61 108.504 110.897C108.943 111.179 109.474 111.319 110.095 111.319C110.3 111.319 110.549 111.305 110.842 111.275C111.141 111.246 111.366 111.211 111.519 111.17V109.157H109.225V106.477Z" fill="white"/>
<path d="M48.1143 120.15C49.2803 120.15 50.25 120.294 51.0234 120.581C51.7969 120.862 52.377 121.284 52.7637 121.847C53.1562 122.409 53.3525 123.109 53.3525 123.947C53.3525 124.469 53.2646 124.943 53.0889 125.371C52.9131 125.799 52.6611 126.183 52.333 126.522C52.0107 126.856 51.624 127.149 51.1729 127.401L54.917 133H50.9795L48.2549 128.324H47.376V133H43.9043V120.15H48.1143ZM48.0615 122.778H47.376V125.714H48.0264C48.5596 125.714 48.9961 125.597 49.3359 125.362C49.6758 125.128 49.8457 124.709 49.8457 124.105C49.8457 123.689 49.7051 123.364 49.4238 123.13C49.1426 122.896 48.6885 122.778 48.0615 122.778Z" fill="white"/>
<path d="M63.7148 133H56.0859V120.15H63.7148V122.937H59.5576V124.958H63.4072V127.744H59.5576V130.17H63.7148V133Z" fill="white"/>
<path d="M70.4121 120.15C72.041 120.15 73.2598 120.505 74.0684 121.214C74.8828 121.923 75.29 122.931 75.29 124.237C75.29 124.823 75.2051 125.386 75.0352 125.925C74.8711 126.464 74.5986 126.944 74.2178 127.366C73.8428 127.788 73.3418 128.122 72.7148 128.368C72.0938 128.614 71.3262 128.737 70.4121 128.737H69.4365V133H65.9648V120.15H70.4121ZM70.333 122.954H69.4365V125.907H70.1221C70.4209 125.907 70.6992 125.857 70.957 125.758C71.2148 125.652 71.4199 125.485 71.5723 125.257C71.7305 125.022 71.8096 124.712 71.8096 124.325C71.8096 123.921 71.6895 123.593 71.4492 123.341C71.209 123.083 70.8369 122.954 70.333 122.954Z" fill="white"/>
<path d="M85.2217 133L84.5889 130.592H80.4141L79.7637 133H75.9492L80.1416 120.098H84.7734L89.0186 133H85.2217ZM83.8682 127.744L83.3145 125.635C83.2559 125.406 83.1709 125.081 83.0596 124.659C82.9482 124.231 82.8369 123.792 82.7256 123.341C82.6201 122.884 82.5381 122.509 82.4795 122.216C82.4268 122.509 82.3506 122.872 82.251 123.306C82.1572 123.733 82.0576 124.158 81.9521 124.58C81.8525 125.002 81.7646 125.354 81.6885 125.635L81.1348 127.744H83.8682Z" fill="white"/>
<path d="M90.416 133V120.15H93.9053V133H90.416Z" fill="white"/>
<path d="M100.901 120.15C102.067 120.15 103.037 120.294 103.811 120.581C104.584 120.862 105.164 121.284 105.551 121.847C105.943 122.409 106.14 123.109 106.14 123.947C106.14 124.469 106.052 124.943 105.876 125.371C105.7 125.799 105.448 126.183 105.12 126.522C104.798 126.856 104.411 127.149 103.96 127.401L107.704 133H103.767L101.042 128.324H100.163V133H96.6914V120.15H100.901ZM100.849 122.778H100.163V125.714H100.813C101.347 125.714 101.783 125.597 102.123 125.362C102.463 125.128 102.633 124.709 102.633 124.105C102.633 123.689 102.492 123.364 102.211 123.13C101.93 122.896 101.476 122.778 100.849 122.778Z" fill="white"/>
<path d="M55.0593 71.2451V43.1648H94.9186V71.2451H55.0593ZM71.2504 50.2507C70.465 49.8594 70.1438 49.9351 69.7238 50.5929C68.6405 52.2893 68.3333 54.1146 68.7057 56.0348C69.0361 57.7428 69.8495 59.2174 71.4854 60.1737C73.6753 61.4542 75.9373 61.1642 78.1341 60.1983C79.9737 59.389 81.0814 58.0222 81.2175 56.1169C81.2641 55.4697 81.1 54.8119 81.0581 54.1572C80.9755 52.8629 80.9092 51.5685 80.8394 50.2731C80.7998 49.5246 80.403 49.2581 79.6176 49.4628C78.9253 49.643 78.4424 50.0599 78.0934 50.6196C77.9805 50.8009 77.8793 50.9885 77.7361 51.2369C77.1171 49.7037 76.9693 48.2857 78.1131 46.9604C78.269 46.7802 78.4785 46.5947 78.5215 46.3879C78.5762 46.1181 78.5879 45.761 78.4343 45.5584C78.2981 45.3793 77.8583 45.2236 77.6442 45.294C76.5027 45.665 75.3264 46.0083 74.2827 46.5542C72.7479 47.3581 71.8112 48.6695 71.2527 50.2496L71.2504 50.2507ZM75.0913 63.0951C71.4482 63.0951 67.8039 63.0951 64.1608 63.0972C63.8908 63.0972 63.6162 63.1036 63.3509 63.142C62.2909 63.2913 61.6033 64.0163 61.559 65.0089C61.5171 65.9695 62.1804 66.8001 63.1915 67.0091C63.5092 67.0752 63.8443 67.0912 64.1712 67.0912C71.4191 67.0955 78.6682 67.0955 85.916 67.0912C86.2244 67.0912 86.5385 67.0773 86.8387 67.0229C87.8219 66.8449 88.4677 66.1391 88.5108 65.2296C88.5713 63.9566 87.6346 63.1015 86.1394 63.0972C82.4567 63.0898 78.7752 63.0951 75.0925 63.094L75.0913 63.0951Z" fill="white"/>
<path d="M94.9023 72.8593C94.9023 74.6643 94.9895 76.4097 94.8778 78.1433C94.765 79.9132 92.9859 81.3931 91.0508 81.5189C90.7646 81.537 90.4772 81.5466 90.1177 81.5647C90.1177 82.3836 90.1212 83.1768 90.1177 83.9701C90.113 84.7303 89.8314 84.9925 88.996 84.9957C87.4833 85.0011 85.9707 85.0021 84.4581 84.9957C83.6145 84.9925 83.3631 84.7494 83.3585 83.9615C83.355 83.1821 83.3585 82.4028 83.3585 81.5818H66.6345C66.6345 82.3718 66.6368 83.147 66.6345 83.9231C66.6322 84.7239 66.3529 84.9936 65.5024 84.9968C64.0095 85.0021 62.5155 85.0021 61.0226 84.9968C60.1767 84.9936 59.8788 84.71 59.8765 83.9242C59.873 83.148 59.8765 82.3718 59.8765 81.6042C59.2936 81.5349 58.7676 81.5168 58.2661 81.4048C56.4952 81.0092 55.1617 79.6104 55.0861 77.9397C55.0105 76.2604 55.0698 74.5759 55.0698 72.8614H94.9046L94.9023 72.8593ZM74.9855 74.4415C73.8277 74.4458 72.8328 75.3478 72.8212 76.4033C72.8096 77.4706 73.8393 78.4173 75.0064 78.4109C76.1525 78.4045 77.1567 77.4897 77.1718 76.4374C77.1881 75.368 76.1676 74.4362 74.9855 74.4415Z" fill="white"/>
<path d="M55 41.4717C55.0454 40.6667 55 39.8905 55.1478 39.1485C55.4864 37.4564 57.0002 36.2388 58.8817 36.0459C59.2272 36.0096 59.5786 36.0021 59.9265 36.0021C70.0496 36 80.1726 36 90.2957 36.0011C92.6461 36.0011 94.3903 37.159 94.8255 39.0952C94.9953 39.85 94.9453 40.6465 94.9988 41.4706H55V41.4717Z" fill="white"/>
<path d="M76.5429 31.4203L75 32.617L73.4571 31.4203V27.8471C72.225 28.4274 71.3702 29.6769 71.37 31.1292C71.37 32.5242 72.158 33.7338 73.3123 34.3414L73.3121 38.7437C74.4222 38.9966 75.5772 38.9976 76.6877 38.7474L76.6877 34.3414C77.8418 33.7336 78.6298 32.524 78.63 31.1292C78.63 29.6771 77.7751 28.4274 76.5429 27.8471V31.4203Z" fill="white"/>
</svg>
