<svg width="150" height="150" viewBox="0 0 150 150" fill="none" xmlns="http://www.w3.org/2000/svg">
<rect x="1" y="1" width="148" height="148" fill="#30AF97" stroke="#FFC107" stroke-width="2" rx="15" ry="15"/>
<path d="M46.4004 114H42.9111V108.762H38.877V114H35.3877V101.15H38.877V105.914H42.9111V101.15H46.4004V114Z" fill="white"/>
<path d="M56.8154 114H49.1865V101.15H56.8154V103.937H52.6582V105.958H56.5078V108.744H52.6582V111.17H56.8154V114Z" fill="white"/>
<path d="M66.9492 114L66.3164 111.592H62.1416L61.4912 114H57.6768L61.8691 101.098H66.501L70.7461 114H66.9492ZM65.5957 108.744L65.042 106.635C64.9834 106.406 64.8984 106.081 64.7871 105.659C64.6758 105.231 64.5645 104.792 64.4531 104.341C64.3477 103.884 64.2656 103.509 64.207 103.216C64.1543 103.509 64.0781 103.872 63.9785 104.306C63.8848 104.733 63.7852 105.158 63.6797 105.58C63.5801 106.002 63.4922 106.354 63.416 106.635L62.8623 108.744H65.5957Z" fill="white"/>
<path d="M77.8125 114H74.3408V103.989H71.2031V101.15H80.9414V103.989H77.8125V114Z" fill="white"/>
<path d="M82.7783 114V101.15H86.2676V114H82.7783Z" fill="white"/>
<path d="M101.288 114H96.7354L92.042 104.947H91.9629C91.9922 105.223 92.0186 105.554 92.042 105.94C92.0654 106.327 92.0859 106.723 92.1035 107.127C92.1211 107.525 92.1299 107.886 92.1299 108.208V114H89.0537V101.15H93.5889L98.2646 110.08H98.3174C98.2998 109.799 98.2822 109.474 98.2646 109.104C98.2471 108.729 98.2295 108.352 98.2119 107.971C98.2002 107.59 98.1943 107.253 98.1943 106.96V101.15H101.288V114Z" fill="white"/>
<path d="M109.225 106.477H114.771V113.402C114.108 113.631 113.35 113.818 112.494 113.965C111.639 114.105 110.742 114.176 109.805 114.176C108.568 114.176 107.484 113.936 106.553 113.455C105.621 112.975 104.895 112.245 104.373 111.267C103.852 110.282 103.591 109.04 103.591 107.54C103.591 106.192 103.849 105.029 104.364 104.051C104.88 103.066 105.639 102.308 106.641 101.774C107.648 101.235 108.882 100.966 110.341 100.966C111.144 100.966 111.905 101.042 112.626 101.194C113.347 101.347 113.974 101.54 114.507 101.774L113.408 104.499C112.945 104.271 112.465 104.101 111.967 103.989C111.469 103.872 110.933 103.813 110.358 103.813C109.591 103.813 108.973 103.986 108.504 104.332C108.041 104.678 107.704 105.141 107.493 105.721C107.282 106.295 107.177 106.931 107.177 107.628C107.177 108.425 107.288 109.099 107.511 109.649C107.739 110.194 108.07 110.61 108.504 110.897C108.943 111.179 109.474 111.319 110.095 111.319C110.3 111.319 110.549 111.305 110.842 111.275C111.141 111.246 111.366 111.211 111.519 111.17V109.157H109.225V106.477Z" fill="white"/>
<path d="M38.2178 133V120.15H41.707V133H38.2178Z" fill="white"/>
<path d="M56.7275 133H52.1748L47.4814 123.947H47.4023C47.4316 124.223 47.458 124.554 47.4814 124.94C47.5049 125.327 47.5254 125.723 47.543 126.127C47.5605 126.525 47.5693 126.886 47.5693 127.208V133H44.4932V120.15H49.0283L53.7041 129.08H53.7568C53.7393 128.799 53.7217 128.474 53.7041 128.104C53.6865 127.729 53.6689 127.352 53.6514 126.971C53.6396 126.59 53.6338 126.253 53.6338 125.96V120.15H56.7275V133Z" fill="white"/>
<path d="M67.9072 129.098C67.9072 129.795 67.7314 130.457 67.3799 131.084C67.0283 131.705 66.4805 132.209 65.7363 132.596C64.998 132.982 64.043 133.176 62.8711 133.176C62.2852 133.176 61.7695 133.149 61.3242 133.097C60.8848 133.044 60.4746 132.959 60.0938 132.842C59.7129 132.719 59.3174 132.561 58.9072 132.367V129.273C59.6045 129.625 60.3076 129.895 61.0166 130.082C61.7256 130.264 62.3672 130.354 62.9414 130.354C63.2871 130.354 63.5684 130.313 63.7852 130.231C64.0078 130.149 64.1719 130.038 64.2773 129.897C64.3828 129.751 64.4355 129.584 64.4355 129.396C64.4355 129.174 64.3564 128.986 64.1982 128.834C64.0459 128.676 63.7998 128.512 63.46 128.342C63.1201 128.172 62.6719 127.961 62.1152 127.709C61.6406 127.486 61.21 127.258 60.8232 127.023C60.4424 126.789 60.1143 126.522 59.8389 126.224C59.5693 125.919 59.3613 125.564 59.2148 125.16C59.0684 124.756 58.9951 124.278 58.9951 123.728C58.9951 122.901 59.1973 122.21 59.6016 121.653C60.0117 121.091 60.5801 120.669 61.3066 120.388C62.0391 120.106 62.8828 119.966 63.8379 119.966C64.6758 119.966 65.4287 120.06 66.0967 120.247C66.7705 120.435 67.374 120.648 67.9072 120.889L66.8438 123.569C66.293 123.317 65.751 123.118 65.2178 122.972C64.6846 122.819 64.1895 122.743 63.7324 122.743C63.4336 122.743 63.1875 122.781 62.9941 122.857C62.8066 122.928 62.666 123.024 62.5723 123.147C62.4844 123.271 62.4404 123.411 62.4404 123.569C62.4404 123.769 62.5166 123.947 62.6689 124.105C62.8271 124.264 63.0879 124.437 63.4512 124.624C63.8203 124.806 64.3213 125.043 64.9541 125.336C65.5811 125.617 66.1143 125.922 66.5537 126.25C66.9932 126.572 67.3271 126.962 67.5557 127.419C67.79 127.87 67.9072 128.43 67.9072 129.098Z" fill="white"/>
<path d="M75.5625 133H72.0908V122.989H68.9531V120.15H78.6914V122.989H75.5625V133Z" fill="white"/>
<path d="M88.4121 133L87.7793 130.592H83.6045L82.9541 133H79.1396L83.332 120.098H87.9639L92.209 133H88.4121ZM87.0586 127.744L86.5049 125.635C86.4463 125.406 86.3613 125.081 86.25 124.659C86.1387 124.231 86.0273 123.792 85.916 123.341C85.8105 122.884 85.7285 122.509 85.6699 122.216C85.6172 122.509 85.541 122.872 85.4414 123.306C85.3477 123.733 85.248 124.158 85.1426 124.58C85.043 125.002 84.9551 125.354 84.8789 125.635L84.3252 127.744H87.0586Z" fill="white"/>
<path d="M93.6064 133V120.15H97.0781V130.196H102.026V133H93.6064Z" fill="white"/>
<path d="M104.083 133V120.15H107.555V130.196H112.503V133H104.083Z" fill="white"/>
<path d="M89.4801 80.0532C88.5198 80.6071 87.5723 81.1528 86.5611 81.7357C86.0508 80.8544 85.5602 80.0079 85.0708 79.1615C84.448 78.0839 84.3831 78.0595 83.1955 78.4624C83.1086 78.4915 83.0135 78.4984 82.8662 78.5275C82.9659 76.7253 82.4916 75.1032 81.5383 73.639C87.4726 70.7848 90.7686 66.1588 90.5575 59.5739C90.3464 52.9796 86.7281 48.5997 80.6511 46.1323C81.5452 44.653 81.9604 43.0308 81.7911 41.1486C82.4139 41.368 82.9497 41.5492 83.4785 41.7443C84.1917 42.0078 84.4886 41.9149 84.869 41.2647C85.4234 40.3184 85.9708 39.3674 86.5529 38.363C87.555 38.9401 88.5152 39.4951 89.5219 40.0757C88.9478 41.0685 88.3981 42.016 87.853 42.9658C87.461 43.6486 87.5642 43.9272 88.1255 44.4649C89.3096 45.597 90.4647 46.7616 91.5966 47.9472C92.1162 48.4918 92.3991 48.5974 93.0463 48.227C94.0007 47.6813 94.9494 47.1274 95.9653 46.5398C96.5312 47.5199 97.0868 48.4813 97.6782 49.5066C96.7504 50.0477 95.8586 50.5714 94.9645 51.0904C94.0645 51.6129 94.0564 51.7918 94.351 52.7706C94.8125 54.301 95.1941 55.8558 95.5745 57.4095C95.7473 58.1166 95.934 58.321 96.6658 58.3244C97.7629 58.3291 98.8611 58.3256 99.9977 58.3256V61.7801C98.9319 61.7801 97.8754 61.7801 96.82 61.7801C95.8853 61.7801 95.7624 61.938 95.5455 62.8274C95.1581 64.4182 94.7221 65.9974 94.2698 67.5708C94.0796 68.2303 94.1399 68.5345 94.7279 68.8817C95.6893 69.4495 96.6565 70.0069 97.6794 70.6014C97.1042 71.6 96.5486 72.5626 95.9665 73.5728C94.9784 73.0003 94.0332 72.4488 93.0845 71.903C92.4003 71.5094 92.1231 71.6104 91.5873 72.1724C90.4566 73.358 89.2957 74.5168 88.1128 75.6501C87.5735 76.168 87.4715 76.449 87.8437 77.1016C88.3784 78.0421 88.92 78.978 89.4569 79.9174C89.465 79.9325 89.4627 79.9545 89.4778 80.0532H89.4801Z" fill="white"/>
<path d="M56.0741 73.567C55.4919 72.5568 54.9364 71.5942 54.3577 70.5898C55.3307 70.0278 56.2481 69.4994 57.1643 68.9688C57.9332 68.5229 57.9668 68.2663 57.707 67.4012C57.2594 65.9068 56.8616 64.3961 56.5032 62.8774C56.2806 61.9345 56.1646 61.7789 55.2124 61.7777C54.1722 61.7777 53.1319 61.7777 52.0012 61.7777C52.0012 61.1867 52.0012 60.6352 52.0012 60.0836C52.0012 59.5321 52.0012 58.9654 52.0012 58.3244C53.0368 58.3244 54.0342 58.3244 55.0315 58.3244C56.2098 58.3244 56.2829 58.1921 56.5357 57.0588C56.8662 55.5748 57.2826 54.1071 57.7209 52.6499C57.968 51.8289 57.9274 51.5735 57.1724 51.1346C56.2562 50.6027 55.3389 50.0721 54.36 49.5054C54.933 48.5103 55.4873 47.5477 56.0718 46.5329C57.0216 47.0821 57.9343 47.6104 58.847 48.1388C59.667 48.6125 59.8873 48.5196 60.5182 47.845C61.5852 46.7047 62.6915 45.5981 63.8327 44.5322C64.5111 43.8982 64.6039 43.6799 64.1296 42.859C63.6089 41.9556 63.0858 41.0534 62.5257 40.0838C63.501 39.5195 64.4613 38.9633 65.4981 38.363C65.8669 39.0051 66.2206 39.6147 66.5627 40.2313C66.6033 40.3044 66.5929 40.4205 66.5766 40.5099C66.0919 43.1295 66.8063 45.4019 68.5551 47.3759C68.5667 47.3886 68.5667 47.4119 68.5783 47.4479C63.8895 50.4936 61.3184 54.7899 61.4622 60.425C61.606 66.0415 64.3743 70.1915 69.2301 73.0189C69.1965 73.0851 69.1663 73.1734 69.113 73.2419C67.995 74.6829 67.4395 76.3155 67.4395 78.1396C67.4395 78.2685 67.4232 78.4148 67.3606 78.5228C66.7541 79.576 66.1371 80.6233 65.4853 81.7346C64.5019 81.1679 63.5405 80.6129 62.5199 80.0242C63.0661 79.0778 63.5938 78.1652 64.1203 77.2513C64.6051 76.4107 64.5088 76.2121 63.7898 75.5386C62.6498 74.4715 61.5562 73.3533 60.4892 72.2131C59.9047 71.5884 59.6542 71.4908 58.905 71.924C57.9854 72.4546 57.0692 72.9899 56.0741 73.567ZM59.7226 59.2429C59.943 55.5156 61.25 52.2609 63.6158 49.4346C63.3619 49.2163 63.1566 49.041 62.9513 48.8656C62.7495 48.6938 62.5477 48.5243 62.3135 48.3269C59.6786 51.4806 58.2521 55.036 58.0167 59.1384C58.6128 59.1756 59.1416 59.2081 59.7226 59.2441V59.2429ZM63.4025 46.5282C63.8559 46.9521 64.2537 47.3225 64.6631 47.7056C65.04 47.3666 65.4331 47.0136 65.8379 46.649C65.4807 46.1938 65.1525 45.777 64.786 45.3113C64.3163 45.7236 63.8895 46.0998 63.4013 46.5282H63.4025Z" fill="white"/>
<path d="M81.1312 54.0479V66.074C80.9143 66.074 80.7114 66.074 80.5084 66.074C76.5665 66.074 72.6246 66.074 68.6827 66.074C68.5667 66.074 68.4508 66.0798 68.3348 66.0705C67.7909 66.0287 67.436 65.6792 67.4406 65.1973C67.4453 64.7155 67.8071 64.3613 68.3533 64.352C69.164 64.3369 69.9746 64.3485 70.8317 64.3485V62.6196C70.0373 62.6196 69.2695 62.6231 68.5029 62.6196C67.8245 62.6149 67.429 62.2875 67.4406 61.751C67.4522 61.2308 67.8268 60.9162 68.4809 60.9069C69.251 60.8964 70.0222 60.9045 70.8352 60.9045V59.1988C70.0036 59.1988 69.1918 59.2476 68.3916 59.1744C68.0843 59.1465 67.6934 58.8992 67.5427 58.6368C67.4267 58.4336 67.5485 57.9982 67.7074 57.7636C67.8257 57.5894 68.1713 57.507 68.4194 57.4965C69.208 57.464 69.999 57.4849 70.8328 57.4849V55.7571C70.0373 55.7571 69.2347 55.7862 68.4357 55.7409C68.1573 55.7258 67.8199 55.5946 67.6297 55.3995C67.2388 54.9966 67.4406 54.3254 67.9764 54.1187C68.1504 54.0514 68.3522 54.034 68.5412 54.034C72.5991 54.0293 76.657 54.0305 80.7149 54.0316C80.8285 54.0316 80.9422 54.0421 81.1301 54.0514L81.1312 54.0479Z" fill="white"/>
<path d="M68.3765 40.9558C68.7569 41.3878 69.1083 41.8232 69.4968 42.2203C70.3886 43.133 71.2944 44.0317 72.2025 44.9258C72.7012 45.417 73.1187 45.4286 73.6081 44.9456C74.7643 43.8053 75.9101 42.6558 77.0501 41.5004C77.5581 40.986 77.5477 40.5785 77.0258 40.049C75.8858 38.8936 74.7388 37.7441 73.5872 36.6003C73.4527 36.4668 73.2683 36.382 73.1558 36.1881C74.0209 35.9385 74.8327 35.9396 75.619 36.1719C78.0382 36.8848 79.5981 38.4721 80.0272 40.9663C80.447 43.4036 79.5865 45.4298 77.5801 46.894C77.0641 47.2702 76.8437 47.6604 76.8588 48.2851C76.8913 49.596 76.8692 50.9081 76.8692 52.2644H71.7281C71.7281 51.4341 71.6702 50.5853 71.7409 49.747C71.8557 48.3977 71.6075 47.42 70.3121 46.5596C68.5992 45.4205 68.017 43.5255 68.1481 41.4609C68.1539 41.3657 68.177 41.2705 68.2014 41.1776C68.2107 41.1439 68.2466 41.1172 68.3742 40.9558H68.3765Z" fill="white"/>
<path d="M76.2105 83.8851C72.7823 84.6015 69.3623 81.8983 69.1791 78.4764C69.0735 76.4989 69.7334 74.8303 71.2109 73.5136C71.5925 73.1734 71.7478 72.8088 71.7386 72.3025C71.7131 71.0078 71.7305 69.7119 71.7305 68.4161V67.8274H76.8715C76.8715 68.9549 76.9017 70.0522 76.8611 71.146C76.8333 71.8729 77.0641 72.3025 77.7668 72.623C80.1628 73.7168 81.5383 76.4095 81.0489 78.9977C80.8842 78.8537 80.7439 78.7434 80.6186 78.618C79.4682 77.472 78.3224 76.3224 77.1719 75.1775C76.5851 74.5935 76.1745 74.5911 75.5982 75.1659C74.4895 76.2713 73.3819 77.3779 72.2802 78.4891C71.7467 79.0268 71.7409 79.4471 72.2732 79.9801C73.5559 81.2632 74.849 82.5369 76.2093 83.8862L76.2105 83.8851Z" fill="white"/>
<path d="M82.9044 66.074V54.027C84.1024 54.027 85.2784 54.0816 86.4451 54.0073C87.2082 53.9585 87.5631 54.2337 87.8426 54.9257C89.2876 58.5068 89.2482 62.0402 87.6605 65.5643C87.4819 65.9614 87.2592 66.0926 86.8313 66.0833C85.5405 66.0543 84.2486 66.0729 82.9044 66.0729V66.074Z" fill="white"/>
<path d="M69.9723 48.7368V52.3096C69.5235 52.3096 69.1025 52.3213 68.6839 52.3073C67.5566 52.2702 66.6184 52.6208 66.0513 53.6508C65.4865 54.6772 65.6558 55.6619 66.3458 56.6083C65.5827 57.6661 65.4737 58.7541 66.2252 59.8792C66.2844 59.9687 66.2542 60.1777 66.187 60.2822C65.4876 61.3829 65.5897 62.4384 66.3331 63.4649C65.5178 64.9082 65.5398 65.98 66.3876 66.9356C67.3629 68.0364 68.6827 67.7426 69.9584 67.8065V71.326C66.7633 70.4144 63.3909 65.1904 63.1624 60.7977C62.8458 54.7202 66.6161 50.3287 69.9735 48.7368H69.9723Z" fill="white"/>
<path d="M78.5856 67.8251H86.2398C86.1018 68.0178 86.0079 68.1734 85.8919 68.3104C84.4851 69.979 82.7746 71.2238 80.7439 72.0319C80.4087 72.1655 80.1327 72.2235 79.8717 71.9158C79.7987 71.8299 79.7001 71.7451 79.5957 71.7091C78.5972 71.3654 78.4952 70.5956 78.5752 69.691C78.6285 69.0838 78.5856 68.4672 78.5856 67.8239V67.8251Z" fill="white"/>
<path d="M86.2955 52.3038C84.9224 52.3038 83.6907 52.3096 82.4603 52.2945C82.3246 52.2934 82.1738 52.1889 82.059 52.0972C80.999 51.2565 79.9448 50.41 78.8906 49.5623C78.6065 49.3336 78.4105 48.5475 78.6552 48.3222C78.9753 48.0261 79.213 47.5338 79.8451 47.744C82.4081 48.5939 84.5327 50.05 86.2978 52.3038H86.2955Z" fill="white"/>
<path d="M74.1021 79.1928C74.8327 78.4601 75.6063 77.6845 76.3346 76.9529C77.1916 77.8133 78.0684 78.6923 78.9347 79.562C78.8489 79.5818 78.6865 79.6294 78.5218 79.6573C78.0034 79.7432 77.7483 80.0497 77.7471 80.5711C77.746 81.3351 77.7471 82.098 77.7471 82.8191C76.5248 81.6034 75.3152 80.4004 74.1033 79.194L74.1021 79.1928Z" fill="white"/>
<path d="M74.3862 39.8446C74.6541 40.1198 74.9603 40.4345 75.2247 40.7062C74.4373 41.4842 73.6498 42.2633 72.9122 42.9925C72.3196 42.3957 71.6238 41.6932 70.9372 41C71.9079 40.3996 73.4063 40.9152 74.3851 39.8434L74.3862 39.8446Z" fill="white"/>
<path d="M78.6077 52.2469V51.5944C78.777 51.707 78.9127 51.7906 79.0391 51.8847C79.1597 51.9752 79.271 52.0786 79.4682 52.2469H78.6077Z" fill="white"/>
</svg>
