<svg width="150" height="150" viewBox="0 0 150 150" fill="none" xmlns="http://www.w3.org/2000/svg">
<rect x="1" y="1" width="148" height="148" fill="#30AF97" stroke="#FFC107" stroke-width="2" rx="15" ry="15"/>
<path d="M62.7129 107.303C62.7129 108.797 62.4346 110.039 61.8779 111.029C61.3213 112.02 60.5361 112.764 59.5225 113.262C58.5146 113.754 57.3281 114 55.9629 114H51.8057V101.15H56.2529C57.6357 101.15 58.8076 101.388 59.7686 101.862C60.7295 102.337 61.459 103.031 61.957 103.945C62.4609 104.859 62.7129 105.979 62.7129 107.303ZM59.1094 107.426C59.1094 106.646 59.0039 106.002 58.793 105.492C58.5879 104.977 58.2773 104.593 57.8613 104.341C57.4453 104.083 56.9209 103.954 56.2881 103.954H55.2773V111.152H56.0508C57.1055 111.152 57.8789 110.848 58.3711 110.238C58.8633 109.623 59.1094 108.686 59.1094 107.426Z" fill="white"/>
<path d="M75.9492 101.15V108.885C75.9492 109.963 75.7441 110.9 75.334 111.697C74.9238 112.488 74.3086 113.101 73.4883 113.534C72.668 113.962 71.6396 114.176 70.4033 114.176C68.6338 114.176 67.2832 113.722 66.3516 112.813C65.4199 111.905 64.9541 110.622 64.9541 108.964V101.15H68.4434V108.691C68.4434 109.6 68.6133 110.259 68.9531 110.669C69.293 111.079 69.7939 111.284 70.4561 111.284C70.9307 111.284 71.3174 111.196 71.6162 111.021C71.915 110.839 72.1318 110.555 72.2666 110.168C72.4072 109.781 72.4775 109.283 72.4775 108.674V101.15H75.9492Z" fill="white"/>
<path d="M84.3691 103.813C83.959 103.813 83.5928 103.901 83.2705 104.077C82.9482 104.247 82.6729 104.496 82.4443 104.824C82.2158 105.152 82.04 105.554 81.917 106.028C81.7998 106.497 81.7412 107.03 81.7412 107.628C81.7412 108.437 81.8438 109.116 82.0488 109.667C82.2539 110.218 82.5645 110.634 82.9805 110.915C83.4023 111.196 83.9297 111.337 84.5625 111.337C85.1367 111.337 85.6875 111.258 86.2148 111.1C86.748 110.941 87.2842 110.751 87.8232 110.528V113.464C87.2549 113.716 86.6719 113.897 86.0742 114.009C85.4824 114.12 84.8525 114.176 84.1846 114.176C82.79 114.176 81.6475 113.9 80.7568 113.35C79.8721 112.793 79.2188 112.022 78.7969 111.038C78.3809 110.054 78.1729 108.911 78.1729 107.61C78.1729 106.638 78.3076 105.747 78.5771 104.938C78.8525 104.13 79.2539 103.43 79.7812 102.838C80.3086 102.24 80.959 101.78 81.7324 101.458C82.5117 101.13 83.4023 100.966 84.4043 100.966C85.0254 100.966 85.6787 101.039 86.3643 101.186C87.0557 101.326 87.7295 101.555 88.3857 101.871L87.3223 104.604C86.8535 104.382 86.3789 104.194 85.8984 104.042C85.418 103.89 84.9082 103.813 84.3691 103.813Z" fill="white"/>
<path d="M96.0059 114H92.5342V103.989H89.3965V101.15H99.1348V103.989H96.0059V114Z" fill="white"/>
<path d="M34.7373 122.813C34.3271 122.813 33.9609 122.901 33.6387 123.077C33.3164 123.247 33.041 123.496 32.8125 123.824C32.584 124.152 32.4082 124.554 32.2852 125.028C32.168 125.497 32.1094 126.03 32.1094 126.628C32.1094 127.437 32.2119 128.116 32.417 128.667C32.6221 129.218 32.9326 129.634 33.3486 129.915C33.7705 130.196 34.2979 130.337 34.9307 130.337C35.5049 130.337 36.0557 130.258 36.583 130.1C37.1162 129.941 37.6523 129.751 38.1914 129.528V132.464C37.623 132.716 37.04 132.897 36.4424 133.009C35.8506 133.12 35.2207 133.176 34.5527 133.176C33.1582 133.176 32.0156 132.9 31.125 132.35C30.2402 131.793 29.5869 131.022 29.165 130.038C28.749 129.054 28.541 127.911 28.541 126.61C28.541 125.638 28.6758 124.747 28.9453 123.938C29.2207 123.13 29.6221 122.43 30.1494 121.838C30.6768 121.24 31.3271 120.78 32.1006 120.458C32.8799 120.13 33.7705 119.966 34.7725 119.966C35.3936 119.966 36.0469 120.039 36.7324 120.186C37.4238 120.326 38.0977 120.555 38.7539 120.871L37.6904 123.604C37.2217 123.382 36.7471 123.194 36.2666 123.042C35.7861 122.89 35.2764 122.813 34.7373 122.813Z" fill="white"/>
<path d="M40.7051 133V120.15H44.1768V130.196H49.125V133H40.7051Z" fill="white"/>
<path d="M58.8105 133H51.1816V120.15H58.8105V122.937H54.6533V124.958H58.5029V127.744H54.6533V130.17H58.8105V133Z" fill="white"/>
<path d="M68.9443 133L68.3115 130.592H64.1367L63.4863 133H59.6719L63.8643 120.098H68.4961L72.7412 133H68.9443ZM67.5908 127.744L67.0371 125.635C66.9785 125.406 66.8936 125.081 66.7822 124.659C66.6709 124.231 66.5596 123.792 66.4482 123.341C66.3428 122.884 66.2607 122.509 66.2021 122.216C66.1494 122.509 66.0732 122.872 65.9736 123.306C65.8799 123.733 65.7803 124.158 65.6748 124.58C65.5752 125.002 65.4873 125.354 65.4111 125.635L64.8574 127.744H67.5908Z" fill="white"/>
<path d="M86.373 133H81.8203L77.127 123.947H77.0479C77.0771 124.223 77.1035 124.554 77.127 124.94C77.1504 125.327 77.1709 125.723 77.1885 126.127C77.2061 126.525 77.2148 126.886 77.2148 127.208V133H74.1387V120.15H78.6738L83.3496 129.08H83.4023C83.3848 128.799 83.3672 128.474 83.3496 128.104C83.332 127.729 83.3145 127.352 83.2969 126.971C83.2852 126.59 83.2793 126.253 83.2793 125.96V120.15H86.373V133Z" fill="white"/>
<path d="M89.1504 133V120.15H92.6396V133H89.1504Z" fill="white"/>
<path d="M107.66 133H103.107L98.4141 123.947H98.335C98.3643 124.223 98.3906 124.554 98.4141 124.94C98.4375 125.327 98.458 125.723 98.4756 126.127C98.4932 126.525 98.502 126.886 98.502 127.208V133H95.4258V120.15H99.9609L104.637 129.08H104.689C104.672 128.799 104.654 128.474 104.637 128.104C104.619 127.729 104.602 127.352 104.584 126.971C104.572 126.59 104.566 126.253 104.566 125.96V120.15H107.66V133Z" fill="white"/>
<path d="M115.597 125.477H121.143V132.402C120.48 132.631 119.722 132.818 118.866 132.965C118.011 133.105 117.114 133.176 116.177 133.176C114.94 133.176 113.856 132.936 112.925 132.455C111.993 131.975 111.267 131.245 110.745 130.267C110.224 129.282 109.963 128.04 109.963 126.54C109.963 125.192 110.221 124.029 110.736 123.051C111.252 122.066 112.011 121.308 113.013 120.774C114.021 120.235 115.254 119.966 116.713 119.966C117.516 119.966 118.277 120.042 118.998 120.194C119.719 120.347 120.346 120.54 120.879 120.774L119.78 123.499C119.317 123.271 118.837 123.101 118.339 122.989C117.841 122.872 117.305 122.813 116.73 122.813C115.963 122.813 115.345 122.986 114.876 123.332C114.413 123.678 114.076 124.141 113.865 124.721C113.654 125.295 113.549 125.931 113.549 126.628C113.549 127.425 113.66 128.099 113.883 128.649C114.111 129.194 114.442 129.61 114.876 129.897C115.315 130.179 115.846 130.319 116.467 130.319C116.672 130.319 116.921 130.305 117.214 130.275C117.513 130.246 117.738 130.211 117.891 130.17V128.157H115.597V125.477Z" fill="white"/>
<path fill-rule="evenodd" clip-rule="evenodd" d="M91.7871 37H95.9664C96.2405 37 96.5034 37.1106 96.6973 37.3074C96.8911 37.5043 97 37.7713 97 38.0496V55.8934C97 56.1718 96.8911 56.4388 96.6973 56.6356C96.5034 56.8325 96.2405 56.943 95.9664 56.943H91.7871C91.513 56.943 91.2501 56.8325 91.0563 56.6356C90.8624 56.4388 90.7535 56.1718 90.7535 55.8934V38.0496C90.7535 37.7713 90.8624 37.5043 91.0563 37.3074C91.2501 37.1106 91.513 37 91.7871 37ZM88.5623 54.8648C81.9954 54.7983 78.2571 55.2636 76.3863 57.1215C74.3777 59.1123 73.5508 63.2863 73.6059 71.7569H58.0259C57.9432 58.7134 60.1724 51.0616 65.5092 45.7679C70.9805 40.3448 78.0194 38.9348 88.5623 39.0468V54.8648ZM75.6077 74.6924V78.9504C75.6077 79.2287 75.4987 79.4957 75.3049 79.6926C75.1111 79.8894 74.8482 80 74.574 80H57.0336C56.7595 80 56.4966 79.8894 56.3027 79.6926C56.1089 79.4957 56 79.2287 56 78.9504V74.6924C56 74.414 56.1089 74.147 56.3027 73.9501C56.4966 73.7533 56.7595 73.6427 57.0336 73.6427H74.605C74.8792 73.6427 75.1421 73.7533 75.3359 73.9501C75.5298 74.147 75.6387 74.414 75.6387 74.6924H75.6077Z" fill="white"/>
</svg>
