<svg width="150" height="150" viewBox="0 0 150 150" fill="none" xmlns="http://www.w3.org/2000/svg">
<rect x="1" y="1" width="148" height="148" fill="#30AF97" stroke="#FFC107" stroke-width="2" rx="15" ry="15"/>
<path d="M62.7129 107.303C62.7129 108.797 62.4346 110.039 61.8779 111.029C61.3213 112.02 60.5361 112.764 59.5225 113.262C58.5146 113.754 57.3281 114 55.9629 114H51.8057V101.15H56.2529C57.6357 101.15 58.8076 101.388 59.7686 101.862C60.7295 102.337 61.459 103.031 61.957 103.945C62.4609 104.859 62.7129 105.979 62.7129 107.303ZM59.1094 107.426C59.1094 106.646 59.0039 106.002 58.793 105.492C58.5879 104.977 58.2773 104.593 57.8613 104.341C57.4453 104.083 56.9209 103.954 56.2881 103.954H55.2773V111.152H56.0508C57.1055 111.152 57.8789 110.848 58.3711 110.238C58.8633 109.623 59.1094 108.686 59.1094 107.426Z" fill="white"/>
<path d="M75.9492 101.15V108.885C75.9492 109.963 75.7441 110.9 75.334 111.697C74.9238 112.488 74.3086 113.101 73.4883 113.534C72.668 113.962 71.6396 114.176 70.4033 114.176C68.6338 114.176 67.2832 113.722 66.3516 112.813C65.4199 111.905 64.9541 110.622 64.9541 108.964V101.15H68.4434V108.691C68.4434 109.6 68.6133 110.259 68.9531 110.669C69.293 111.079 69.7939 111.284 70.4561 111.284C70.9307 111.284 71.3174 111.196 71.6162 111.021C71.915 110.839 72.1318 110.555 72.2666 110.168C72.4072 109.781 72.4775 109.283 72.4775 108.674V101.15H75.9492Z" fill="white"/>
<path d="M84.3691 103.813C83.959 103.813 83.5928 103.901 83.2705 104.077C82.9482 104.247 82.6729 104.496 82.4443 104.824C82.2158 105.152 82.04 105.554 81.917 106.028C81.7998 106.497 81.7412 107.03 81.7412 107.628C81.7412 108.437 81.8438 109.116 82.0488 109.667C82.2539 110.218 82.5645 110.634 82.9805 110.915C83.4023 111.196 83.9297 111.337 84.5625 111.337C85.1367 111.337 85.6875 111.258 86.2148 111.1C86.748 110.941 87.2842 110.751 87.8232 110.528V113.464C87.2549 113.716 86.6719 113.897 86.0742 114.009C85.4824 114.12 84.8525 114.176 84.1846 114.176C82.79 114.176 81.6475 113.9 80.7568 113.35C79.8721 112.793 79.2188 112.022 78.7969 111.038C78.3809 110.054 78.1729 108.911 78.1729 107.61C78.1729 106.638 78.3076 105.747 78.5771 104.938C78.8525 104.13 79.2539 103.43 79.7812 102.838C80.3086 102.24 80.959 101.78 81.7324 101.458C82.5117 101.13 83.4023 100.966 84.4043 100.966C85.0254 100.966 85.6787 101.039 86.3643 101.186C87.0557 101.326 87.7295 101.555 88.3857 101.871L87.3223 104.604C86.8535 104.382 86.3789 104.194 85.8984 104.042C85.418 103.89 84.9082 103.813 84.3691 103.813Z" fill="white"/>
<path d="M96.0059 114H92.5342V103.989H89.3965V101.15H99.1348V103.989H96.0059V114Z" fill="white"/>
<path d="M38.2178 133V120.15H41.707V133H38.2178Z" fill="white"/>
<path d="M56.7275 133H52.1748L47.4814 123.947H47.4023C47.4316 124.223 47.458 124.554 47.4814 124.94C47.5049 125.327 47.5254 125.723 47.543 126.127C47.5605 126.525 47.5693 126.886 47.5693 127.208V133H44.4932V120.15H49.0283L53.7041 129.08H53.7568C53.7393 128.799 53.7217 128.474 53.7041 128.104C53.6865 127.729 53.6689 127.352 53.6514 126.971C53.6396 126.59 53.6338 126.253 53.6338 125.96V120.15H56.7275V133Z" fill="white"/>
<path d="M67.9072 129.098C67.9072 129.795 67.7314 130.457 67.3799 131.084C67.0283 131.705 66.4805 132.209 65.7363 132.596C64.998 132.982 64.043 133.176 62.8711 133.176C62.2852 133.176 61.7695 133.149 61.3242 133.097C60.8848 133.044 60.4746 132.959 60.0938 132.842C59.7129 132.719 59.3174 132.561 58.9072 132.367V129.273C59.6045 129.625 60.3076 129.895 61.0166 130.082C61.7256 130.264 62.3672 130.354 62.9414 130.354C63.2871 130.354 63.5684 130.313 63.7852 130.231C64.0078 130.149 64.1719 130.038 64.2773 129.897C64.3828 129.751 64.4355 129.584 64.4355 129.396C64.4355 129.174 64.3564 128.986 64.1982 128.834C64.0459 128.676 63.7998 128.512 63.46 128.342C63.1201 128.172 62.6719 127.961 62.1152 127.709C61.6406 127.486 61.21 127.258 60.8232 127.023C60.4424 126.789 60.1143 126.522 59.8389 126.224C59.5693 125.919 59.3613 125.564 59.2148 125.16C59.0684 124.756 58.9951 124.278 58.9951 123.728C58.9951 122.901 59.1973 122.21 59.6016 121.653C60.0117 121.091 60.5801 120.669 61.3066 120.388C62.0391 120.106 62.8828 119.966 63.8379 119.966C64.6758 119.966 65.4287 120.06 66.0967 120.247C66.7705 120.435 67.374 120.648 67.9072 120.889L66.8438 123.569C66.293 123.317 65.751 123.118 65.2178 122.972C64.6846 122.819 64.1895 122.743 63.7324 122.743C63.4336 122.743 63.1875 122.781 62.9941 122.857C62.8066 122.928 62.666 123.024 62.5723 123.147C62.4844 123.271 62.4404 123.411 62.4404 123.569C62.4404 123.769 62.5166 123.947 62.6689 124.105C62.8271 124.264 63.0879 124.437 63.4512 124.624C63.8203 124.806 64.3213 125.043 64.9541 125.336C65.5811 125.617 66.1143 125.922 66.5537 126.25C66.9932 126.572 67.3271 126.962 67.5557 127.419C67.79 127.87 67.9072 128.43 67.9072 129.098Z" fill="white"/>
<path d="M75.5625 133H72.0908V122.989H68.9531V120.15H78.6914V122.989H75.5625V133Z" fill="white"/>
<path d="M88.4121 133L87.7793 130.592H83.6045L82.9541 133H79.1396L83.332 120.098H87.9639L92.209 133H88.4121ZM87.0586 127.744L86.5049 125.635C86.4463 125.406 86.3613 125.081 86.25 124.659C86.1387 124.231 86.0273 123.792 85.916 123.341C85.8105 122.884 85.7285 122.509 85.6699 122.216C85.6172 122.509 85.541 122.872 85.4414 123.306C85.3477 123.733 85.248 124.158 85.1426 124.58C85.043 125.002 84.9551 125.354 84.8789 125.635L84.3252 127.744H87.0586Z" fill="white"/>
<path d="M93.6064 133V120.15H97.0781V130.196H102.026V133H93.6064Z" fill="white"/>
<path d="M104.083 133V120.15H107.555V130.196H112.503V133H104.083Z" fill="white"/>
<path fill-rule="evenodd" clip-rule="evenodd" d="M90.5329 35H94.916C95.2035 35 95.4792 35.1106 95.6825 35.3074C95.8858 35.5043 96 35.7713 96 36.0496V53.8934C96 54.1718 95.8858 54.4388 95.6825 54.6356C95.4792 54.8325 95.2035 54.943 94.916 54.943H90.5329C90.2454 54.943 89.9696 54.8325 89.7663 54.6356C89.563 54.4388 89.4488 54.1718 89.4488 53.8934V36.0496C89.4488 35.7713 89.563 35.5043 89.7663 35.3074C89.9696 35.1106 90.2454 35 90.5329 35ZM87.1507 52.8648C80.2634 52.7983 76.3429 53.2636 74.3808 55.1215C72.2741 57.1123 71.4069 61.2863 71.4647 69.7569H55.1247C55.038 56.7134 57.3759 49.0616 62.9731 43.7679C68.7113 38.3448 76.0935 36.9348 87.1507 37.0468V52.8648ZM73.5641 72.6924V76.9504C73.5641 77.2288 73.4499 77.4957 73.2466 77.6926C73.0433 77.8894 72.7676 78 72.4801 78H54.084C53.7965 78 53.5208 77.8894 53.3175 77.6926C53.1142 77.4957 53 77.2288 53 76.9504V72.6924C53 72.414 53.1142 72.147 53.3175 71.9501C53.5208 71.7533 53.7965 71.6427 54.084 71.6427H72.5126C72.8001 71.6427 73.0758 71.7533 73.2791 71.9501C73.4824 72.147 73.5966 72.414 73.5966 72.6924H73.5641Z" fill="white"/>
<path d="M81.982 65.433L83.2709 65.2702L83.4338 63.9816L81.7527 62.3009C82.6054 61.9944 83.5954 62.18 84.2787 62.863C84.935 63.5192 85.1333 64.4587 84.8762 65.2874L86.9474 67.358C86.5441 67.999 86.0011 68.5427 85.361 68.9474L83.2882 66.8751C82.4593 67.132 81.5195 66.9337 80.8632 66.2777C80.1801 65.5947 79.9943 64.6048 80.301 63.7524L81.982 65.433Z" fill="white"/>
<path d="M74.1276 65.3929C74.7299 65.1434 74.7772 64.586 74.7772 64.4212C74.7774 64.2563 74.7305 63.699 74.1282 63.4496C73.8246 63.3238 73.5885 63.0875 73.4627 62.7841C73.337 62.4807 73.337 62.1466 73.4627 61.843L74.2636 59.9096C74.5233 59.2837 75.2431 58.9846 75.8704 59.2445C76.4731 59.4944 76.9 59.1331 77.0162 59.0166C77.1329 58.8999 77.4938 58.4728 77.2442 57.8703C77.1186 57.567 77.1186 57.2328 77.2444 56.9295C77.3701 56.6259 77.6065 56.3895 77.9096 56.264L79.8431 55.4631C80.469 55.204 81.1898 55.5025 81.4497 56.1288C81.6991 56.7305 82.2562 56.7774 82.4212 56.7774C82.5861 56.7774 83.1434 56.7307 83.3928 56.1284C83.5183 55.8248 83.7547 55.5885 84.0583 55.4627C84.3617 55.337 84.6958 55.337 84.9996 55.4627L86.9325 56.2634C87.236 56.3891 87.4724 56.6253 87.5981 56.9288C87.7239 57.2324 87.7239 57.5666 87.5981 57.8699C87.3485 58.4722 87.7096 58.8995 87.8261 59.016C87.9425 59.1327 88.3692 59.494 88.9719 59.2441C89.2753 59.1186 89.6097 59.1186 89.9132 59.2441C90.2168 59.3698 90.4532 59.6062 90.5787 59.9096L91.3794 61.8426C91.5051 62.1462 91.5051 62.4803 91.3794 62.7839C91.2536 63.0875 91.0173 63.3238 90.7139 63.4494C90.112 63.6988 90.0651 64.2563 90.0651 64.421C90.0651 64.5858 90.112 65.143 90.7147 65.3927C91.341 65.6524 91.6393 66.3732 91.3798 66.999L90.5791 68.9323C90.4534 69.2358 90.217 69.472 89.9136 69.5977C89.6105 69.7233 89.2763 69.7235 88.9725 69.5977C88.3704 69.3487 87.9431 69.7092 87.8265 69.8259C87.71 69.9423 87.3491 70.3696 87.5985 70.9719C87.8581 71.598 87.5597 72.3188 86.9331 72.5787L84.9998 73.3795C84.8479 73.4423 84.6886 73.4737 84.529 73.4737C84.3695 73.4737 84.2102 73.4423 84.0585 73.3793C83.7549 73.2536 83.5186 73.0172 83.393 72.7141C83.1434 72.1116 82.5861 72.0649 82.4214 72.0649C82.2566 72.0649 81.6993 72.1116 81.4497 72.7145C81.19 73.3403 80.4692 73.638 79.8433 73.3793L77.9094 72.5785C77.2836 72.3188 76.9853 71.5982 77.2446 70.9719C77.494 70.3696 77.1331 69.9423 77.0164 69.8259C76.8998 69.7092 76.4735 69.3479 75.8702 69.5979C75.2437 69.8564 74.5235 69.5585 74.2636 68.9323L73.4627 66.999C73.2034 66.373 73.5017 65.6524 74.1276 65.3929ZM82.4212 70.0789C85.546 70.0789 88.0791 67.5458 88.0791 64.421C88.0791 61.2963 85.546 58.7631 82.4212 58.7631C79.2963 58.7631 76.7632 61.2963 76.7632 64.421C76.7632 67.5458 79.2963 70.0789 82.4212 70.0789Z" fill="white"/>
</svg>
