<svg width="150" height="150" viewBox="0 0 150 150" fill="none" xmlns="http://www.w3.org/2000/svg">
<rect x="1" y="1" width="148" height="148" fill="#30AF97" stroke="#FFC107" stroke-width="2" rx="15" ry="15"/>
<path d="M52.2188 107.303C52.2188 108.797 51.9404 110.039 51.3838 111.029C50.8271 112.02 50.042 112.764 49.0283 113.262C48.0205 113.754 46.834 114 45.4688 114H41.3115V101.15H45.7588C47.1416 101.15 48.3135 101.388 49.2744 101.862C50.2354 102.337 50.9648 103.031 51.4629 103.945C51.9668 104.859 52.2188 105.979 52.2188 107.303ZM48.6152 107.426C48.6152 106.646 48.5098 106.002 48.2988 105.492C48.0938 104.977 47.7832 104.593 47.3672 104.341C46.9512 104.083 46.4268 103.954 45.7939 103.954H44.7832V111.152H45.5566C46.6113 111.152 47.3848 110.848 47.877 110.238C48.3691 109.623 48.6152 108.686 48.6152 107.426Z" fill="white"/>
<path d="M58.7402 101.15C59.9062 101.15 60.876 101.294 61.6494 101.581C62.4229 101.862 63.0029 102.284 63.3896 102.847C63.7822 103.409 63.9785 104.109 63.9785 104.947C63.9785 105.469 63.8906 105.943 63.7148 106.371C63.5391 106.799 63.2871 107.183 62.959 107.522C62.6367 107.856 62.25 108.149 61.7988 108.401L65.543 114H61.6055L58.8809 109.324H58.002V114H54.5303V101.15H58.7402ZM58.6875 103.778H58.002V106.714H58.6523C59.1855 106.714 59.6221 106.597 59.9619 106.362C60.3018 106.128 60.4717 105.709 60.4717 105.105C60.4717 104.689 60.3311 104.364 60.0498 104.13C59.7686 103.896 59.3145 103.778 58.6875 103.778Z" fill="white"/>
<path d="M74.5957 114L73.9629 111.592H69.7881L69.1377 114H65.3232L69.5156 101.098H74.1475L78.3926 114H74.5957ZM73.2422 108.744L72.6885 106.635C72.6299 106.406 72.5449 106.081 72.4336 105.659C72.3223 105.231 72.2109 104.792 72.0996 104.341C71.9941 103.884 71.9121 103.509 71.8535 103.216C71.8008 103.509 71.7246 103.872 71.625 104.306C71.5312 104.733 71.4316 105.158 71.3262 105.58C71.2266 106.002 71.1387 106.354 71.0625 106.635L70.5088 108.744H73.2422Z" fill="white"/>
<path d="M79.79 114V101.15H83.2793V114H79.79Z" fill="white"/>
<path d="M98.2998 114H93.7471L89.0537 104.947H88.9746C89.0039 105.223 89.0303 105.554 89.0537 105.94C89.0771 106.327 89.0977 106.723 89.1152 107.127C89.1328 107.525 89.1416 107.886 89.1416 108.208V114H86.0654V101.15H90.6006L95.2764 110.08H95.3291C95.3115 109.799 95.2939 109.474 95.2764 109.104C95.2588 108.729 95.2412 108.352 95.2236 107.971C95.2119 107.59 95.2061 107.253 95.2061 106.96V101.15H98.2998V114Z" fill="white"/>
<path d="M109.479 110.098C109.479 110.795 109.304 111.457 108.952 112.084C108.601 112.705 108.053 113.209 107.309 113.596C106.57 113.982 105.615 114.176 104.443 114.176C103.857 114.176 103.342 114.149 102.896 114.097C102.457 114.044 102.047 113.959 101.666 113.842C101.285 113.719 100.89 113.561 100.479 113.367V110.273C101.177 110.625 101.88 110.895 102.589 111.082C103.298 111.264 103.939 111.354 104.514 111.354C104.859 111.354 105.141 111.313 105.357 111.231C105.58 111.149 105.744 111.038 105.85 110.897C105.955 110.751 106.008 110.584 106.008 110.396C106.008 110.174 105.929 109.986 105.771 109.834C105.618 109.676 105.372 109.512 105.032 109.342C104.692 109.172 104.244 108.961 103.688 108.709C103.213 108.486 102.782 108.258 102.396 108.023C102.015 107.789 101.687 107.522 101.411 107.224C101.142 106.919 100.934 106.564 100.787 106.16C100.641 105.756 100.567 105.278 100.567 104.728C100.567 103.901 100.77 103.21 101.174 102.653C101.584 102.091 102.152 101.669 102.879 101.388C103.611 101.106 104.455 100.966 105.41 100.966C106.248 100.966 107.001 101.06 107.669 101.247C108.343 101.435 108.946 101.648 109.479 101.889L108.416 104.569C107.865 104.317 107.323 104.118 106.79 103.972C106.257 103.819 105.762 103.743 105.305 103.743C105.006 103.743 104.76 103.781 104.566 103.857C104.379 103.928 104.238 104.024 104.145 104.147C104.057 104.271 104.013 104.411 104.013 104.569C104.013 104.769 104.089 104.947 104.241 105.105C104.399 105.264 104.66 105.437 105.023 105.624C105.393 105.806 105.894 106.043 106.526 106.336C107.153 106.617 107.687 106.922 108.126 107.25C108.565 107.572 108.899 107.962 109.128 108.419C109.362 108.87 109.479 109.43 109.479 110.098Z" fill="white"/>
<path fill-rule="evenodd" clip-rule="evenodd" d="M56.9369 44.7496H63.0866V55.9678H56.9369V44.7496ZM83.7491 54.3162C83.3421 54.0956 83.1933 53.5908 83.4166 53.189C83.64 52.7871 84.1512 52.6401 84.5582 52.8606C85.4863 53.3654 86.345 53.8751 87.1342 54.4191C87.9432 54.9729 88.6778 55.5561 89.3528 56.2079C90.4646 57.2812 91.3928 58.526 92.1323 60.0698C92.8619 61.5842 93.4079 63.3828 93.7653 65.5833C93.8397 66.0342 93.527 66.4606 93.0654 66.5341C92.6088 66.6076 92.177 66.2988 92.1025 65.8431C91.77 63.7994 91.2687 62.1478 90.6085 60.7755C89.9583 59.4278 89.1493 58.3398 88.1765 57.3939C87.5759 56.8107 86.9059 56.2814 86.1762 55.7815C85.4317 55.2718 84.6227 54.7915 83.7491 54.3162ZM75.0186 62.0939C74.7456 61.7263 74.8299 61.2068 75.2022 60.9373C75.5744 60.6677 76.1006 60.751 76.3736 61.1186C77.0535 62.0449 77.6442 62.9956 78.076 64.0003C78.5227 65.0344 78.8056 66.1322 78.8503 67.3182C78.8652 67.774 78.5028 68.1612 78.0413 68.1759C77.5797 68.1906 77.1876 67.8328 77.1727 67.377C77.133 66.4165 76.8997 65.5147 76.5274 64.6521C76.1452 63.7553 75.6241 62.9123 75.0186 62.0939ZM76.0857 56.2275C75.6539 56.0658 75.4305 55.5904 75.5943 55.1591C75.7581 54.7327 76.2395 54.5122 76.6763 54.6739C78.9793 55.5218 81.1434 56.7274 82.7813 58.4329C84.2058 59.913 85.2233 61.7508 85.5955 64.0346C85.67 64.4855 85.3573 64.9119 84.8957 64.9854C84.4391 65.0589 84.0072 64.7502 83.9328 64.2944C83.6201 62.3683 82.7614 60.8196 81.5653 59.5748C80.111 58.0751 78.1703 56.9969 76.0857 56.2275ZM65.9504 77.419C66.8091 77.6738 67.7373 77.9483 68.581 78.1688C69.3305 78.3648 70.482 77.9434 71.6931 77.5023C73.202 76.9534 74.7704 76.3849 76.6515 76.429C78.071 76.4633 79.2672 77.1053 80.4733 77.7571C81.2327 78.1688 82.002 78.5805 82.4289 78.5952C82.9203 78.6099 83.6449 78.1884 84.3696 77.7669C85.5558 77.0759 86.7371 76.3898 88.3849 76.331C90.1519 76.2722 91.5218 76.875 92.8818 77.468C93.6561 77.8061 94.4254 78.1443 95.0706 78.1933C95.6762 78.2423 96.4902 77.7277 97.2793 77.2327C98.3762 76.5368 99.4533 75.8605 100.873 75.7037C102.555 75.5223 104.397 76.3016 105.96 76.9681L106 76.9877C106 78.5658 106 80.1488 106 81.7269C105.662 81.6288 105.315 81.4965 104.958 81.3544C104.71 81.2515 104.451 81.1436 104.193 81.0358C103.126 80.5849 101.865 80.0458 101.364 80.0998C100.962 80.1439 100.327 80.5457 99.6816 80.9525C99.4434 81.0995 99.2051 81.2515 98.9619 81.3985C97.7608 82.1189 96.4604 82.7364 94.743 82.6041C93.3483 82.5012 92.2117 82.0013 91.0701 81.4965L90.9709 81.4524C90.1172 81.0799 89.2635 80.7173 88.5339 80.7369C88.0871 80.7516 87.4469 81.1093 86.8016 81.4818L86.6527 81.5651C85.3722 82.315 84.0817 83.0599 82.28 82.9962C80.8059 82.9423 79.57 82.2807 78.349 81.619L78.1951 81.5357C77.5151 81.1682 76.8649 80.8349 76.5522 80.8251C75.5993 80.8006 74.4974 81.178 73.4253 81.57L73.2417 81.6386C71.3705 82.3199 69.5886 82.9668 67.4742 82.4228C66.3376 82.1287 65.4789 81.8739 64.6898 81.6386L64.6649 81.6288C62.6697 80.58 58.287 80.6193 56.3513 81.6288L56.3264 81.6386C55.5373 81.8739 54.6786 82.1287 53.542 82.4228C51.4276 82.9668 49.6408 82.3199 47.7745 81.6386L47.5909 81.57C46.7074 81.2711 45.814 80.9623 45 80.8692V76.4388C46.5982 76.5172 47.9731 77.0171 49.3033 77.5023C50.5094 77.9434 51.6658 78.3648 52.4153 78.1688C53.2541 77.9483 54.1872 77.6738 55.0459 77.419C60.0837 75.9242 60.9076 75.9242 65.9504 77.419ZM65.3797 54.473V46.8913C83.6499 45.4749 96.0037 52.0225 97.0262 65.4804C97.6764 67.1026 97.6615 68.269 97.1106 69.0727L97.2694 68.9747C98.3663 68.2788 99.4434 67.6025 100.863 67.4457C102.545 67.2643 104.387 68.0436 105.95 68.7101L105.99 68.7297C105.99 70.3078 105.99 71.8908 105.99 73.4688C105.653 73.3708 105.305 73.2385 104.948 73.0964C104.7 72.9935 104.441 72.8856 104.183 72.7778C103.116 72.3269 101.856 71.7878 101.354 71.8418C100.952 71.8859 100.317 72.2877 99.6717 72.6945C99.4334 72.8415 99.1952 72.9935 98.952 73.1405C97.7508 73.8609 96.4504 74.4784 94.7331 74.3461C93.3384 74.2432 92.2018 73.7433 91.0602 73.2385L90.9609 73.1944C90.1072 72.8219 89.2535 72.4593 88.5239 72.4789C88.0772 72.4936 87.4369 72.8513 86.7917 73.2238L86.6428 73.3071C85.3622 74.057 84.0718 74.8019 82.2701 74.7382C80.7959 74.6843 79.5601 74.0227 78.3391 73.361L78.1852 73.2777C77.5052 72.9102 76.855 72.5769 76.5423 72.5671C75.5893 72.5426 74.4875 72.9199 73.4154 73.312L73.2317 73.3855C71.3605 74.0668 69.5787 74.7137 67.4643 74.1697C66.3277 73.8756 65.469 73.6208 64.6798 73.3855L64.655 73.3757C62.6895 72.425 58.3068 72.4495 56.3413 73.3757L56.3165 73.3855C55.5273 73.6208 54.6687 73.8756 53.5321 74.1697C51.4177 74.7137 49.6308 74.0668 47.7646 73.3855L47.581 73.3169C46.7074 73.0033 45.814 72.6945 45 72.6014V68.171C46.5982 68.2494 47.9731 68.7493 49.3033 69.2345C50.5094 69.6756 51.6658 70.097 52.4153 69.901C53.2541 69.6805 54.1872 69.406 55.0459 69.1512C56.3066 68.7787 57.4333 68.4454 58.5004 68.2347C59.1754 68.0681 59.8356 68.0044 60.5007 68.0093C61.1657 67.9995 61.8209 68.0681 62.5009 68.2347C63.568 68.4405 64.6947 68.7787 65.9554 69.1512C66.8141 69.406 67.7422 69.6805 68.586 69.901C69.3355 70.097 70.487 69.6756 71.6981 69.2345C72.6957 68.8718 73.7281 68.4993 74.8548 68.2984C72.0207 63.4073 73.5792 55.164 65.3797 54.473ZM45.0546 44.7496H51.5616V55.9678H45.0546V44.7496ZM53.0605 56.4726V44.0194C53.0605 43.4607 53.5271 43 54.0929 43C54.6587 43 55.1253 43.4607 55.1253 44.0194V56.4726C55.1253 57.0313 54.6587 57.4919 54.0929 57.4919C53.5221 57.4919 53.0605 57.0313 53.0605 56.4726Z" fill="white"/>
</svg>
