<svg width="150" height="150" viewBox="0 0 150 150" fill="none" xmlns="http://www.w3.org/2000/svg">
<rect x="1" y="1" width="148" height="148" fill="#30AF97" stroke="#FFC107" stroke-width="2" rx="15" ry="15"/>
<path d="M31.0283 101.15C32.6572 101.15 33.876 101.505 34.6846 102.214C35.499 102.923 35.9062 103.931 35.9062 105.237C35.9062 105.823 35.8213 106.386 35.6514 106.925C35.4873 107.464 35.2148 107.944 34.834 108.366C34.459 108.788 33.958 109.122 33.3311 109.368C32.71 109.614 31.9424 109.737 31.0283 109.737H30.0527V114H26.5811V101.15H31.0283ZM30.9492 103.954H30.0527V106.907H30.7383C31.0371 106.907 31.3154 106.857 31.5732 106.758C31.8311 106.652 32.0361 106.485 32.1885 106.257C32.3467 106.022 32.4258 105.712 32.4258 105.325C32.4258 104.921 32.3057 104.593 32.0654 104.341C31.8252 104.083 31.4531 103.954 30.9492 103.954Z" fill="white"/>
<path d="M37.9541 114V101.15H41.4258V111.196H46.374V114H37.9541Z" fill="white"/>
<path d="M59.3555 101.15V108.885C59.3555 109.963 59.1504 110.9 58.7402 111.697C58.3301 112.488 57.7148 113.101 56.8945 113.534C56.0742 113.962 55.0459 114.176 53.8096 114.176C52.04 114.176 50.6895 113.722 49.7578 112.813C48.8262 111.905 48.3604 110.622 48.3604 108.964V101.15H51.8496V108.691C51.8496 109.6 52.0195 110.259 52.3594 110.669C52.6992 111.079 53.2002 111.284 53.8623 111.284C54.3369 111.284 54.7236 111.196 55.0225 111.021C55.3213 110.839 55.5381 110.555 55.6729 110.168C55.8135 109.781 55.8838 109.283 55.8838 108.674V101.15H59.3555Z" fill="white"/>
<path d="M67.6523 114L65.0244 104.745H64.9453C64.9688 104.985 64.9922 105.311 65.0156 105.721C65.0449 106.131 65.0713 106.573 65.0947 107.048C65.1182 107.522 65.1299 107.979 65.1299 108.419V114H62.0537V101.15H66.6768L69.3574 110.273H69.4277L72.0557 101.15H76.6875V114H73.4971V108.366C73.4971 107.962 73.5029 107.528 73.5146 107.065C73.5322 106.597 73.5498 106.157 73.5674 105.747C73.5908 105.331 73.6113 105.003 73.6289 104.763H73.5498L70.957 114H67.6523Z" fill="white"/>
<path d="M79.4561 101.15H83.9385C85.7959 101.15 87.1201 101.426 87.9111 101.977C88.7021 102.527 89.0977 103.318 89.0977 104.35C89.0977 104.912 88.9951 105.39 88.79 105.782C88.5908 106.175 88.3359 106.485 88.0254 106.714C87.7207 106.942 87.4072 107.098 87.085 107.18V107.268C87.4365 107.355 87.7852 107.502 88.1309 107.707C88.4824 107.906 88.7725 108.208 89.001 108.612C89.2354 109.011 89.3525 109.553 89.3525 110.238C89.3525 111.018 89.1533 111.688 88.7549 112.251C88.3623 112.813 87.7998 113.247 87.0674 113.552C86.335 113.851 85.4648 114 84.457 114H79.4561V101.15ZM82.9277 106.081H83.9736C84.5479 106.081 84.9521 105.964 85.1865 105.729C85.4209 105.489 85.5381 105.199 85.5381 104.859C85.5381 104.508 85.4033 104.241 85.1338 104.06C84.8701 103.872 84.46 103.778 83.9033 103.778H82.9277V106.081ZM82.9277 108.621V111.319H84.1494C84.7529 111.319 85.1748 111.19 85.415 110.933C85.6553 110.669 85.7754 110.341 85.7754 109.948C85.7754 109.72 85.7227 109.506 85.6172 109.307C85.5176 109.102 85.3447 108.938 85.0986 108.814C84.8525 108.686 84.5127 108.621 84.0791 108.621H82.9277Z" fill="white"/>
<path d="M91.585 114V101.15H95.0742V114H91.585Z" fill="white"/>
<path d="M110.095 114H105.542L100.849 104.947H100.77C100.799 105.223 100.825 105.554 100.849 105.94C100.872 106.327 100.893 106.723 100.91 107.127C100.928 107.525 100.937 107.886 100.937 108.208V114H97.8604V101.15H102.396L107.071 110.08H107.124C107.106 109.799 107.089 109.474 107.071 109.104C107.054 108.729 107.036 108.352 107.019 107.971C107.007 107.59 107.001 107.253 107.001 106.96V101.15H110.095V114Z" fill="white"/>
<path d="M118.031 106.477H123.577V113.402C122.915 113.631 122.156 113.818 121.301 113.965C120.445 114.105 119.549 114.176 118.611 114.176C117.375 114.176 116.291 113.936 115.359 113.455C114.428 112.975 113.701 112.245 113.18 111.267C112.658 110.282 112.397 109.04 112.397 107.54C112.397 106.192 112.655 105.029 113.171 104.051C113.687 103.066 114.445 102.308 115.447 101.774C116.455 101.235 117.688 100.966 119.147 100.966C119.95 100.966 120.712 101.042 121.433 101.194C122.153 101.347 122.78 101.54 123.313 101.774L122.215 104.499C121.752 104.271 121.271 104.101 120.773 103.989C120.275 103.872 119.739 103.813 119.165 103.813C118.397 103.813 117.779 103.986 117.311 104.332C116.848 104.678 116.511 105.141 116.3 105.721C116.089 106.295 115.983 106.931 115.983 107.628C115.983 108.425 116.095 109.099 116.317 109.649C116.546 110.194 116.877 110.61 117.311 110.897C117.75 111.179 118.28 111.319 118.901 111.319C119.106 111.319 119.355 111.305 119.648 111.275C119.947 111.246 120.173 111.211 120.325 111.17V109.157H118.031V106.477Z" fill="white"/>
<path d="M98.7186 86.0826C98.7186 83.9152 94.7774 77.8576 94.7774 77.8576C94.7774 77.8576 90.7767 83.9152 90.7767 86.0826C90.7767 88.2457 92.5555 90 94.7482 90C96.9398 90 98.7186 88.2457 98.7186 86.0826ZM70.2215 52.1424H62.2796V44.287H64.4452V40H50V44.287H52.1667V56.4283C52.1667 59.5848 54.7537 62.1424 57.9441 62.1424H70.2215V64.2859H74.5559V50.0011H70.2215V52.1424ZM99.8312 69.9989V57.8576C99.8312 54.7022 97.2452 52.1435 94.0581 52.1435H81.7785V50.0022H77.4441V64.288H81.7785V62.1435H89.7215V69.9989H87.5581V74.2859H102V69.9989H99.8312Z" fill="white"/>
</svg>
